<mxfile host="Electron" modified="2024-01-02T19:24:57.427Z" agent="Mozilla/5.0 (Windows NT 10.0; Win64; x64) AppleWebKit/537.36 (KHTML, like Gecko) draw.io/22.0.3 Chrome/114.0.5735.289 Electron/25.8.4 Safari/537.36" etag="UmTcFB0dQCNBy5p8rR3Y" version="22.0.3" type="device" pages="5">
  <diagram id="C5RBs43oDa-KdzZeNtuy" name="Klassendiagramm">
    <mxGraphModel dx="3765" dy="2357" grid="1" gridSize="10" guides="1" tooltips="1" connect="1" arrows="1" fold="1" page="1" pageScale="1" pageWidth="827" pageHeight="1169" math="0" shadow="0">
      <root>
        <mxCell id="WIyWlLk6GJQsqaUBKTNV-0" />
        <mxCell id="WIyWlLk6GJQsqaUBKTNV-1" parent="WIyWlLk6GJQsqaUBKTNV-0" />
        <mxCell id="RYkkYyoczVAdhS8qKxW1-55" value="BusinessLogic" style="shape=umlFrame;whiteSpace=wrap;html=1;width=110;height=30;" parent="WIyWlLk6GJQsqaUBKTNV-1" vertex="1">
          <mxGeometry x="-650" y="-290" width="2660" height="880" as="geometry" />
        </mxCell>
        <mxCell id="RYkkYyoczVAdhS8qKxW1-35" value="Entities" style="shape=umlFrame;whiteSpace=wrap;html=1;" parent="WIyWlLk6GJQsqaUBKTNV-1" vertex="1">
          <mxGeometry x="-20" y="650" width="2030" height="610" as="geometry" />
        </mxCell>
        <mxCell id="RYkkYyoczVAdhS8qKxW1-63" style="edgeStyle=orthogonalEdgeStyle;rounded=0;orthogonalLoop=1;jettySize=auto;html=1;entryX=0.5;entryY=1;entryDx=0;entryDy=0;strokeWidth=1;endArrow=none;endFill=0;endSize=12;startArrow=open;startFill=0;dashed=1;exitX=1;exitY=0.5;exitDx=0;exitDy=0;" parent="WIyWlLk6GJQsqaUBKTNV-1" source="zkfFHV4jXpPFQw0GAbJ--11" target="RYkkYyoczVAdhS8qKxW1-25" edge="1">
          <mxGeometry relative="1" as="geometry">
            <Array as="points" />
          </mxGeometry>
        </mxCell>
        <mxCell id="J3uAUibjWmVgkW_LJcS_-3" style="edgeStyle=orthogonalEdgeStyle;rounded=0;orthogonalLoop=1;jettySize=auto;html=1;exitX=0.5;exitY=0;exitDx=0;exitDy=0;entryX=0.5;entryY=1;entryDx=0;entryDy=0;dashed=1;endArrow=block;endFill=0;" parent="WIyWlLk6GJQsqaUBKTNV-1" source="zkfFHV4jXpPFQw0GAbJ--6" target="J3uAUibjWmVgkW_LJcS_-1" edge="1">
          <mxGeometry relative="1" as="geometry" />
        </mxCell>
        <mxCell id="dXqHbMRYeNBjOG6s7Nbo-70" style="edgeStyle=orthogonalEdgeStyle;rounded=0;orthogonalLoop=1;jettySize=auto;html=1;exitX=0.75;exitY=0;exitDx=0;exitDy=0;entryX=0.5;entryY=1;entryDx=0;entryDy=0;dashed=1;startArrow=open;startFill=0;endArrow=none;endFill=0;" parent="WIyWlLk6GJQsqaUBKTNV-1" source="zkfFHV4jXpPFQw0GAbJ--6" target="RYkkYyoczVAdhS8qKxW1-64" edge="1">
          <mxGeometry relative="1" as="geometry">
            <Array as="points">
              <mxPoint x="592" y="690" />
              <mxPoint x="518" y="690" />
              <mxPoint x="518" y="630" />
              <mxPoint x="450" y="630" />
            </Array>
          </mxGeometry>
        </mxCell>
        <mxCell id="zkfFHV4jXpPFQw0GAbJ--6" value="Board" style="swimlane;fontStyle=1;align=center;verticalAlign=top;childLayout=stackLayout;horizontal=1;startSize=26;horizontalStack=0;resizeParent=1;resizeLast=0;collapsible=1;marginBottom=0;rounded=0;shadow=0;strokeWidth=1;" parent="WIyWlLk6GJQsqaUBKTNV-1" vertex="1">
          <mxGeometry x="300" y="750" width="390" height="476" as="geometry">
            <mxRectangle x="130" y="380" width="160" height="26" as="alternateBounds" />
          </mxGeometry>
        </mxCell>
        <mxCell id="zkfFHV4jXpPFQw0GAbJ--7" value="- code_max_length : int" style="text;align=left;verticalAlign=top;spacingLeft=4;spacingRight=4;overflow=hidden;rotatable=0;points=[[0,0.5],[1,0.5]];portConstraint=eastwest;" parent="zkfFHV4jXpPFQw0GAbJ--6" vertex="1">
          <mxGeometry y="26" width="390" height="26" as="geometry" />
        </mxCell>
        <mxCell id="k-5rJhX6iSYrkwQTePAZ-0" value="- max_colour : int" style="text;align=left;verticalAlign=top;spacingLeft=4;spacingRight=4;overflow=hidden;rotatable=0;points=[[0,0.5],[1,0.5]];portConstraint=eastwest;rounded=0;shadow=0;html=0;" parent="zkfFHV4jXpPFQw0GAbJ--6" vertex="1">
          <mxGeometry y="52" width="390" height="26" as="geometry" />
        </mxCell>
        <mxCell id="zkfFHV4jXpPFQw0GAbJ--8" value="- max_attempts : int" style="text;align=left;verticalAlign=top;spacingLeft=4;spacingRight=4;overflow=hidden;rotatable=0;points=[[0,0.5],[1,0.5]];portConstraint=eastwest;rounded=0;shadow=0;html=0;" parent="zkfFHV4jXpPFQw0GAbJ--6" vertex="1">
          <mxGeometry y="78" width="390" height="26" as="geometry" />
        </mxCell>
        <mxCell id="RYkkYyoczVAdhS8qKxW1-0" value="- attempt_counter :Â  int" style="text;align=left;verticalAlign=top;spacingLeft=4;spacingRight=4;overflow=hidden;rotatable=0;points=[[0,0.5],[1,0.5]];portConstraint=eastwest;rounded=0;shadow=0;html=0;" parent="zkfFHV4jXpPFQw0GAbJ--6" vertex="1">
          <mxGeometry y="104" width="390" height="26" as="geometry" />
        </mxCell>
        <mxCell id="RYkkYyoczVAdhS8qKxW1-2" value="- guessed_code : Stone[]" style="text;align=left;verticalAlign=top;spacingLeft=4;spacingRight=4;overflow=hidden;rotatable=0;points=[[0,0.5],[1,0.5]];portConstraint=eastwest;rounded=0;shadow=0;html=0;" parent="zkfFHV4jXpPFQw0GAbJ--6" vertex="1">
          <mxGeometry y="130" width="390" height="26" as="geometry" />
        </mxCell>
        <mxCell id="k-5rJhX6iSYrkwQTePAZ-1" value="- guessed_code_list : List(Stone[])" style="text;align=left;verticalAlign=top;spacingLeft=4;spacingRight=4;overflow=hidden;rotatable=0;points=[[0,0.5],[1,0.5]];portConstraint=eastwest;rounded=0;shadow=0;html=0;" parent="zkfFHV4jXpPFQw0GAbJ--6" vertex="1">
          <mxGeometry y="156" width="390" height="26" as="geometry" />
        </mxCell>
        <mxCell id="RYkkYyoczVAdhS8qKxW1-1" value="- code : Stone[]" style="text;align=left;verticalAlign=top;spacingLeft=4;spacingRight=4;overflow=hidden;rotatable=0;points=[[0,0.5],[1,0.5]];portConstraint=eastwest;rounded=0;shadow=0;html=0;" parent="zkfFHV4jXpPFQw0GAbJ--6" vertex="1">
          <mxGeometry y="182" width="390" height="26" as="geometry" />
        </mxCell>
        <mxCell id="RYkkYyoczVAdhS8qKxW1-3" value="- feedback : Stone[]" style="text;align=left;verticalAlign=top;spacingLeft=4;spacingRight=4;overflow=hidden;rotatable=0;points=[[0,0.5],[1,0.5]];portConstraint=eastwest;rounded=0;shadow=0;html=0;" parent="zkfFHV4jXpPFQw0GAbJ--6" vertex="1">
          <mxGeometry y="208" width="390" height="26" as="geometry" />
        </mxCell>
        <mxCell id="k-5rJhX6iSYrkwQTePAZ-2" value="- feedback_list : List(Stone[])" style="text;align=left;verticalAlign=top;spacingLeft=4;spacingRight=4;overflow=hidden;rotatable=0;points=[[0,0.5],[1,0.5]];portConstraint=eastwest;rounded=0;shadow=0;html=0;" parent="zkfFHV4jXpPFQw0GAbJ--6" vertex="1">
          <mxGeometry y="234" width="390" height="26" as="geometry" />
        </mxCell>
        <mxCell id="RYkkYyoczVAdhS8qKxW1-4" value="- game_mode : Role" style="text;align=left;verticalAlign=top;spacingLeft=4;spacingRight=4;overflow=hidden;rotatable=0;points=[[0,0.5],[1,0.5]];portConstraint=eastwest;rounded=0;shadow=0;html=0;" parent="zkfFHV4jXpPFQw0GAbJ--6" vertex="1">
          <mxGeometry y="260" width="390" height="26" as="geometry" />
        </mxCell>
        <mxCell id="J3uAUibjWmVgkW_LJcS_-6" value="- observers: Observer[]" style="text;align=left;verticalAlign=top;spacingLeft=4;spacingRight=4;overflow=hidden;rotatable=0;points=[[0,0.5],[1,0.5]];portConstraint=eastwest;rounded=0;shadow=0;html=0;" parent="zkfFHV4jXpPFQw0GAbJ--6" vertex="1">
          <mxGeometry y="286" width="390" height="26" as="geometry" />
        </mxCell>
        <mxCell id="zkfFHV4jXpPFQw0GAbJ--9" value="" style="line;html=1;strokeWidth=1;align=left;verticalAlign=middle;spacingTop=-1;spacingLeft=3;spacingRight=3;rotatable=0;labelPosition=right;points=[];portConstraint=eastwest;" parent="zkfFHV4jXpPFQw0GAbJ--6" vertex="1">
          <mxGeometry y="312" width="390" height="8" as="geometry" />
        </mxCell>
        <mxCell id="J3uAUibjWmVgkW_LJcS_-4" value="+ register_observer (observer : Observer) : void" style="text;align=left;verticalAlign=top;spacingLeft=4;spacingRight=4;overflow=hidden;rotatable=0;points=[[0,0.5],[1,0.5]];portConstraint=eastwest;" parent="zkfFHV4jXpPFQw0GAbJ--6" vertex="1">
          <mxGeometry y="320" width="390" height="26" as="geometry" />
        </mxCell>
        <mxCell id="zkfFHV4jXpPFQw0GAbJ--11" value="+ remove_observer (observer : Observer) : void" style="text;align=left;verticalAlign=top;spacingLeft=4;spacingRight=4;overflow=hidden;rotatable=0;points=[[0,0.5],[1,0.5]];portConstraint=eastwest;" parent="zkfFHV4jXpPFQw0GAbJ--6" vertex="1">
          <mxGeometry y="346" width="390" height="26" as="geometry" />
        </mxCell>
        <mxCell id="J3uAUibjWmVgkW_LJcS_-5" value="+ notify_observer () : void" style="text;align=left;verticalAlign=top;spacingLeft=4;spacingRight=4;overflow=hidden;rotatable=0;points=[[0,0.5],[1,0.5]];portConstraint=eastwest;" parent="zkfFHV4jXpPFQw0GAbJ--6" vertex="1">
          <mxGeometry y="372" width="390" height="26" as="geometry" />
        </mxCell>
        <mxCell id="xcD10W__ClrGcK0cBTRJ-0" value="+ create_board_stone_array (values : String ) : Stone[]" style="text;align=left;verticalAlign=top;spacingLeft=4;spacingRight=4;overflow=hidden;rotatable=0;points=[[0,0.5],[1,0.5]];portConstraint=eastwest;fontStyle=4" parent="zkfFHV4jXpPFQw0GAbJ--6" vertex="1">
          <mxGeometry y="398" width="390" height="26" as="geometry" />
        </mxCell>
        <mxCell id="xcD10W__ClrGcK0cBTRJ-1" value="+ create_stone_array_to_colour ( stone_array : Stone[] ) : Colour[]" style="text;align=left;verticalAlign=top;spacingLeft=4;spacingRight=4;overflow=hidden;rotatable=0;points=[[0,0.5],[1,0.5]];portConstraint=eastwest;fontStyle=4" parent="zkfFHV4jXpPFQw0GAbJ--6" vertex="1">
          <mxGeometry y="424" width="390" height="26" as="geometry" />
        </mxCell>
        <mxCell id="xcD10W__ClrGcK0cBTRJ-2" value="+ convert_colour_array_to_int ( colour_array : Colour[] ) : int[]" style="text;align=left;verticalAlign=top;spacingLeft=4;spacingRight=4;overflow=hidden;rotatable=0;points=[[0,0.5],[1,0.5]];portConstraint=eastwest;fontStyle=4" parent="zkfFHV4jXpPFQw0GAbJ--6" vertex="1">
          <mxGeometry y="450" width="390" height="26" as="geometry" />
        </mxCell>
        <mxCell id="dXqHbMRYeNBjOG6s7Nbo-19" style="edgeStyle=orthogonalEdgeStyle;rounded=0;orthogonalLoop=1;jettySize=auto;html=1;exitX=0.75;exitY=1;exitDx=0;exitDy=0;entryX=0;entryY=0.5;entryDx=0;entryDy=0;endArrow=none;endFill=0;" parent="WIyWlLk6GJQsqaUBKTNV-1" source="zkfFHV4jXpPFQw0GAbJ--13" target="RYkkYyoczVAdhS8qKxW1-1" edge="1">
          <mxGeometry relative="1" as="geometry" />
        </mxCell>
        <mxCell id="dXqHbMRYeNBjOG6s7Nbo-20" value="&amp;lt; besteht aus" style="edgeLabel;html=1;align=center;verticalAlign=middle;resizable=0;points=[];" parent="dXqHbMRYeNBjOG6s7Nbo-19" vertex="1" connectable="0">
          <mxGeometry x="0.2013" y="-1" relative="1" as="geometry">
            <mxPoint x="-7" y="-1" as="offset" />
          </mxGeometry>
        </mxCell>
        <mxCell id="nisNGyiN4TUQVdw5tTL0-28" style="edgeStyle=orthogonalEdgeStyle;rounded=0;orthogonalLoop=1;jettySize=auto;html=1;exitX=0.5;exitY=1;exitDx=0;exitDy=0;entryX=0.5;entryY=0;entryDx=0;entryDy=0;dashed=1;endArrow=open;endFill=0;" parent="WIyWlLk6GJQsqaUBKTNV-1" source="zkfFHV4jXpPFQw0GAbJ--13" target="RYkkYyoczVAdhS8qKxW1-9" edge="1">
          <mxGeometry relative="1" as="geometry" />
        </mxCell>
        <mxCell id="zkfFHV4jXpPFQw0GAbJ--13" value="Stone" style="swimlane;fontStyle=1;align=center;verticalAlign=top;childLayout=stackLayout;horizontal=1;startSize=26;horizontalStack=0;resizeParent=1;resizeLast=0;collapsible=1;marginBottom=0;rounded=0;shadow=0;strokeWidth=1;" parent="WIyWlLk6GJQsqaUBKTNV-1" vertex="1">
          <mxGeometry x="50" y="750" width="205" height="120" as="geometry">
            <mxRectangle x="340" y="380" width="170" height="26" as="alternateBounds" />
          </mxGeometry>
        </mxCell>
        <mxCell id="zkfFHV4jXpPFQw0GAbJ--14" value="- colour : Colour" style="text;align=left;verticalAlign=top;spacingLeft=4;spacingRight=4;overflow=hidden;rotatable=0;points=[[0,0.5],[1,0.5]];portConstraint=eastwest;" parent="zkfFHV4jXpPFQw0GAbJ--13" vertex="1">
          <mxGeometry y="26" width="205" height="26" as="geometry" />
        </mxCell>
        <mxCell id="zkfFHV4jXpPFQw0GAbJ--15" value="" style="line;html=1;strokeWidth=1;align=left;verticalAlign=middle;spacingTop=-1;spacingLeft=3;spacingRight=3;rotatable=0;labelPosition=right;points=[];portConstraint=eastwest;" parent="zkfFHV4jXpPFQw0GAbJ--13" vertex="1">
          <mxGeometry y="52" width="205" height="8" as="geometry" />
        </mxCell>
        <mxCell id="RYkkYyoczVAdhS8qKxW1-14" value="+ colour() : Colour" style="text;align=left;verticalAlign=top;spacingLeft=4;spacingRight=4;overflow=hidden;rotatable=0;points=[[0,0.5],[1,0.5]];portConstraint=eastwest;" parent="zkfFHV4jXpPFQw0GAbJ--13" vertex="1">
          <mxGeometry y="60" width="205" height="26" as="geometry" />
        </mxCell>
        <mxCell id="RYkkYyoczVAdhS8qKxW1-15" value="+ colour.setter(colour : Colour) : void" style="text;align=left;verticalAlign=top;spacingLeft=4;spacingRight=4;overflow=hidden;rotatable=0;points=[[0,0.5],[1,0.5]];portConstraint=eastwest;" parent="zkfFHV4jXpPFQw0GAbJ--13" vertex="1">
          <mxGeometry y="86" width="205" height="26" as="geometry" />
        </mxCell>
        <mxCell id="RYkkYyoczVAdhS8qKxW1-9" value="&lt;p style=&quot;margin:0px;margin-top:4px;text-align:center;&quot;&gt;&lt;i&gt;&amp;lt;&amp;lt;enumeration&amp;gt;&amp;gt;&lt;/i&gt;&lt;/p&gt;&lt;p style=&quot;margin:0px;margin-top:4px;text-align:center;&quot;&gt;&lt;b&gt;Colour&lt;/b&gt;&lt;/p&gt;&lt;hr size=&quot;1&quot;&gt;&lt;p style=&quot;margin:0px;margin-left:4px;&quot;&gt;- RED : 1&lt;br&gt;- GREEN : 2&lt;/p&gt;&lt;p style=&quot;margin:0px;margin-left:4px;&quot;&gt;- YELLOW : 3&lt;/p&gt;&lt;p style=&quot;margin:0px;margin-left:4px;&quot;&gt;- BLUE : 4&lt;/p&gt;&lt;p style=&quot;margin:0px;margin-left:4px;&quot;&gt;- ORANGE : 5&lt;/p&gt;&lt;p style=&quot;margin:0px;margin-left:4px;&quot;&gt;- BROWN : 6&lt;/p&gt;&lt;p style=&quot;margin:0px;margin-left:4px;&quot;&gt;- WHITE : 7&lt;/p&gt;&lt;p style=&quot;margin:0px;margin-left:4px;&quot;&gt;- BLACK : 8&lt;/p&gt;" style="verticalAlign=top;align=left;overflow=fill;fontSize=12;fontFamily=Helvetica;html=1;" parent="WIyWlLk6GJQsqaUBKTNV-1" vertex="1">
          <mxGeometry x="57.5" y="970" width="190" height="184" as="geometry" />
        </mxCell>
        <mxCell id="dXqHbMRYeNBjOG6s7Nbo-68" style="edgeStyle=orthogonalEdgeStyle;rounded=0;orthogonalLoop=1;jettySize=auto;html=1;exitX=0.5;exitY=0;exitDx=0;exitDy=0;entryX=0.75;entryY=1;entryDx=0;entryDy=0;dashed=1;startArrow=open;startFill=0;endArrow=none;endFill=0;" parent="WIyWlLk6GJQsqaUBKTNV-1" source="RYkkYyoczVAdhS8qKxW1-10" target="RYkkYyoczVAdhS8qKxW1-64" edge="1">
          <mxGeometry relative="1" as="geometry" />
        </mxCell>
        <mxCell id="nisNGyiN4TUQVdw5tTL0-32" style="edgeStyle=orthogonalEdgeStyle;rounded=0;orthogonalLoop=1;jettySize=auto;html=1;exitX=0.5;exitY=1;exitDx=0;exitDy=0;entryX=0.5;entryY=0;entryDx=0;entryDy=0;dashed=1;endArrow=open;endFill=0;" parent="WIyWlLk6GJQsqaUBKTNV-1" source="RYkkYyoczVAdhS8qKxW1-10" target="RYkkYyoczVAdhS8qKxW1-20" edge="1">
          <mxGeometry relative="1" as="geometry" />
        </mxCell>
        <mxCell id="RYkkYyoczVAdhS8qKxW1-10" value="User" style="swimlane;fontStyle=1;align=center;verticalAlign=top;childLayout=stackLayout;horizontal=1;startSize=26;horizontalStack=0;resizeParent=1;resizeLast=0;collapsible=1;marginBottom=0;rounded=0;shadow=0;strokeWidth=1;" parent="WIyWlLk6GJQsqaUBKTNV-1" vertex="1">
          <mxGeometry x="740" y="690" width="200" height="200" as="geometry">
            <mxRectangle x="340" y="380" width="170" height="26" as="alternateBounds" />
          </mxGeometry>
        </mxCell>
        <mxCell id="RYkkYyoczVAdhS8qKxW1-11" value="- name : String" style="text;align=left;verticalAlign=top;spacingLeft=4;spacingRight=4;overflow=hidden;rotatable=0;points=[[0,0.5],[1,0.5]];portConstraint=eastwest;" parent="RYkkYyoczVAdhS8qKxW1-10" vertex="1">
          <mxGeometry y="26" width="200" height="26" as="geometry" />
        </mxCell>
        <mxCell id="RYkkYyoczVAdhS8qKxW1-13" value="- role : Role" style="text;align=left;verticalAlign=top;spacingLeft=4;spacingRight=4;overflow=hidden;rotatable=0;points=[[0,0.5],[1,0.5]];portConstraint=eastwest;" parent="RYkkYyoczVAdhS8qKxW1-10" vertex="1">
          <mxGeometry y="52" width="200" height="26" as="geometry" />
        </mxCell>
        <mxCell id="RYkkYyoczVAdhS8qKxW1-12" value="" style="line;html=1;strokeWidth=1;align=left;verticalAlign=middle;spacingTop=-1;spacingLeft=3;spacingRight=3;rotatable=0;labelPosition=right;points=[];portConstraint=eastwest;" parent="RYkkYyoczVAdhS8qKxW1-10" vertex="1">
          <mxGeometry y="78" width="200" height="8" as="geometry" />
        </mxCell>
        <mxCell id="RYkkYyoczVAdhS8qKxW1-16" value="+ name() : String" style="text;align=left;verticalAlign=top;spacingLeft=4;spacingRight=4;overflow=hidden;rotatable=0;points=[[0,0.5],[1,0.5]];portConstraint=eastwest;" parent="RYkkYyoczVAdhS8qKxW1-10" vertex="1">
          <mxGeometry y="86" width="200" height="26" as="geometry" />
        </mxCell>
        <mxCell id="RYkkYyoczVAdhS8qKxW1-17" value="+ name.setter(value : String) : void" style="text;align=left;verticalAlign=top;spacingLeft=4;spacingRight=4;overflow=hidden;rotatable=0;points=[[0,0.5],[1,0.5]];portConstraint=eastwest;" parent="RYkkYyoczVAdhS8qKxW1-10" vertex="1">
          <mxGeometry y="112" width="200" height="26" as="geometry" />
        </mxCell>
        <mxCell id="RYkkYyoczVAdhS8qKxW1-18" value="+ role() : Role" style="text;align=left;verticalAlign=top;spacingLeft=4;spacingRight=4;overflow=hidden;rotatable=0;points=[[0,0.5],[1,0.5]];portConstraint=eastwest;" parent="RYkkYyoczVAdhS8qKxW1-10" vertex="1">
          <mxGeometry y="138" width="200" height="26" as="geometry" />
        </mxCell>
        <mxCell id="RYkkYyoczVAdhS8qKxW1-19" value="+ role.setter(role : Role) : void" style="text;align=left;verticalAlign=top;spacingLeft=4;spacingRight=4;overflow=hidden;rotatable=0;points=[[0,0.5],[1,0.5]];portConstraint=eastwest;" parent="RYkkYyoczVAdhS8qKxW1-10" vertex="1">
          <mxGeometry y="164" width="200" height="26" as="geometry" />
        </mxCell>
        <mxCell id="dXqHbMRYeNBjOG6s7Nbo-40" style="edgeStyle=orthogonalEdgeStyle;rounded=0;orthogonalLoop=1;jettySize=auto;html=1;exitX=1;exitY=0.25;exitDx=0;exitDy=0;entryX=0.25;entryY=1;entryDx=0;entryDy=0;endArrow=none;endFill=0;startArrow=open;startFill=0;dashed=1;" parent="WIyWlLk6GJQsqaUBKTNV-1" source="RYkkYyoczVAdhS8qKxW1-20" target="RYkkYyoczVAdhS8qKxW1-25" edge="1">
          <mxGeometry relative="1" as="geometry" />
        </mxCell>
        <mxCell id="dXqHbMRYeNBjOG6s7Nbo-42" style="edgeStyle=orthogonalEdgeStyle;rounded=0;orthogonalLoop=1;jettySize=auto;html=1;exitX=1;exitY=0.75;exitDx=0;exitDy=0;entryX=0.25;entryY=1;entryDx=0;entryDy=0;endArrow=none;endFill=0;dashed=1;startArrow=open;startFill=0;" parent="WIyWlLk6GJQsqaUBKTNV-1" source="RYkkYyoczVAdhS8qKxW1-20" target="dXqHbMRYeNBjOG6s7Nbo-22" edge="1">
          <mxGeometry relative="1" as="geometry" />
        </mxCell>
        <mxCell id="RYkkYyoczVAdhS8qKxW1-20" value="&lt;p style=&quot;margin:0px;margin-top:4px;text-align:center;&quot;&gt;&lt;i&gt;&amp;lt;&amp;lt;enumeration&amp;gt;&amp;gt;&lt;/i&gt;&lt;/p&gt;&lt;p style=&quot;margin:0px;margin-top:4px;text-align:center;&quot;&gt;&lt;b&gt;Role&lt;/b&gt;&lt;/p&gt;&lt;hr size=&quot;1&quot;&gt;&lt;p style=&quot;margin:0px;margin-left:4px;&quot;&gt;- Coder : 1&lt;/p&gt;&lt;p style=&quot;margin:0px;margin-left:4px;&quot;&gt;- Rater : 2&lt;/p&gt;" style="verticalAlign=top;align=left;overflow=fill;fontSize=12;fontFamily=Helvetica;html=1;" parent="WIyWlLk6GJQsqaUBKTNV-1" vertex="1">
          <mxGeometry x="740" y="920" width="190" height="95" as="geometry" />
        </mxCell>
        <mxCell id="RYkkYyoczVAdhS8qKxW1-25" value="NPC" style="swimlane;fontStyle=1;align=center;verticalAlign=top;childLayout=stackLayout;horizontal=1;startSize=26;horizontalStack=0;resizeParent=1;resizeLast=0;collapsible=1;marginBottom=0;rounded=0;shadow=0;strokeWidth=1;" parent="WIyWlLk6GJQsqaUBKTNV-1" vertex="1">
          <mxGeometry x="960" y="-120" width="440" height="410" as="geometry">
            <mxRectangle x="340" y="380" width="170" height="26" as="alternateBounds" />
          </mxGeometry>
        </mxCell>
        <mxCell id="RYkkYyoczVAdhS8qKxW1-26" value="- board : Board" style="text;align=left;verticalAlign=top;spacingLeft=4;spacingRight=4;overflow=hidden;rotatable=0;points=[[0,0.5],[1,0.5]];portConstraint=eastwest;" parent="RYkkYyoczVAdhS8qKxW1-25" vertex="1">
          <mxGeometry y="26" width="440" height="26" as="geometry" />
        </mxCell>
        <mxCell id="RYkkYyoczVAdhS8qKxW1-27" value="- role : Role" style="text;align=left;verticalAlign=top;spacingLeft=4;spacingRight=4;overflow=hidden;rotatable=0;points=[[0,0.5],[1,0.5]];portConstraint=eastwest;" parent="RYkkYyoczVAdhS8qKxW1-25" vertex="1">
          <mxGeometry y="52" width="440" height="26" as="geometry" />
        </mxCell>
        <mxCell id="RYkkYyoczVAdhS8qKxW1-33" value="- permutations : String []" style="text;align=left;verticalAlign=top;spacingLeft=4;spacingRight=4;overflow=hidden;rotatable=0;points=[[0,0.5],[1,0.5]];portConstraint=eastwest;" parent="RYkkYyoczVAdhS8qKxW1-25" vertex="1">
          <mxGeometry y="78" width="440" height="26" as="geometry" />
        </mxCell>
        <mxCell id="RYkkYyoczVAdhS8qKxW1-28" value="" style="line;html=1;strokeWidth=1;align=left;verticalAlign=middle;spacingTop=-1;spacingLeft=3;spacingRight=3;rotatable=0;labelPosition=right;points=[];portConstraint=eastwest;" parent="RYkkYyoczVAdhS8qKxW1-25" vertex="1">
          <mxGeometry y="104" width="440" height="8" as="geometry" />
        </mxCell>
        <mxCell id="RYkkYyoczVAdhS8qKxW1-29" value="+ generate_all_combinations(max_code_length : int, max_colour : int) : String []" style="text;align=left;verticalAlign=top;spacingLeft=4;spacingRight=4;overflow=hidden;rotatable=0;points=[[0,0.5],[1,0.5]];portConstraint=eastwest;" parent="RYkkYyoczVAdhS8qKxW1-25" vertex="1">
          <mxGeometry y="112" width="440" height="26" as="geometry" />
        </mxCell>
        <mxCell id="RYkkYyoczVAdhS8qKxW1-30" value="+ opposite_role () : Role" style="text;align=left;verticalAlign=top;spacingLeft=4;spacingRight=4;overflow=hidden;rotatable=0;points=[[0,0.5],[1,0.5]];portConstraint=eastwest;" parent="RYkkYyoczVAdhS8qKxW1-25" vertex="1">
          <mxGeometry y="138" width="440" height="26" as="geometry" />
        </mxCell>
        <mxCell id="RYkkYyoczVAdhS8qKxW1-31" value="+ update (board) : void" style="text;align=left;verticalAlign=top;spacingLeft=4;spacingRight=4;overflow=hidden;rotatable=0;points=[[0,0.5],[1,0.5]];portConstraint=eastwest;" parent="RYkkYyoczVAdhS8qKxW1-25" vertex="1">
          <mxGeometry y="164" width="440" height="26" as="geometry" />
        </mxCell>
        <mxCell id="RYkkYyoczVAdhS8qKxW1-57" value="+ generate_code () : void" style="text;align=left;verticalAlign=top;spacingLeft=4;spacingRight=4;overflow=hidden;rotatable=0;points=[[0,0.5],[1,0.5]];portConstraint=eastwest;" parent="RYkkYyoczVAdhS8qKxW1-25" vertex="1">
          <mxGeometry y="190" width="440" height="26" as="geometry" />
        </mxCell>
        <mxCell id="RYkkYyoczVAdhS8qKxW1-59" value="+ generate_feedback () : void" style="text;align=left;verticalAlign=top;spacingLeft=4;spacingRight=4;overflow=hidden;rotatable=0;points=[[0,0.5],[1,0.5]];portConstraint=eastwest;" parent="RYkkYyoczVAdhS8qKxW1-25" vertex="1">
          <mxGeometry y="216" width="440" height="26" as="geometry" />
        </mxCell>
        <mxCell id="RYkkYyoczVAdhS8qKxW1-58" value="+ generate_permutations : void" style="text;align=left;verticalAlign=top;spacingLeft=4;spacingRight=4;overflow=hidden;rotatable=0;points=[[0,0.5],[1,0.5]];portConstraint=eastwest;" parent="RYkkYyoczVAdhS8qKxW1-25" vertex="1">
          <mxGeometry y="242" width="440" height="26" as="geometry" />
        </mxCell>
        <mxCell id="RYkkYyoczVAdhS8qKxW1-56" value="+ variation_feedback (solution : String) : void" style="text;align=left;verticalAlign=top;spacingLeft=4;spacingRight=4;overflow=hidden;rotatable=0;points=[[0,0.5],[1,0.5]];portConstraint=eastwest;" parent="RYkkYyoczVAdhS8qKxW1-25" vertex="1">
          <mxGeometry y="268" width="440" height="26" as="geometry" />
        </mxCell>
        <mxCell id="RYkkYyoczVAdhS8qKxW1-32" value="+ calculate_nk_value (guess : String) :Â  int" style="text;align=left;verticalAlign=top;spacingLeft=4;spacingRight=4;overflow=hidden;rotatable=0;points=[[0,0.5],[1,0.5]];portConstraint=eastwest;" parent="RYkkYyoczVAdhS8qKxW1-25" vertex="1">
          <mxGeometry y="294" width="440" height="26" as="geometry" />
        </mxCell>
        <mxCell id="RYkkYyoczVAdhS8qKxW1-60" value="+ count_dopplungen (guess : String) : int" style="text;align=left;verticalAlign=top;spacingLeft=4;spacingRight=4;overflow=hidden;rotatable=0;points=[[0,0.5],[1,0.5]];portConstraint=eastwest;" parent="RYkkYyoczVAdhS8qKxW1-25" vertex="1">
          <mxGeometry y="320" width="440" height="26" as="geometry" />
        </mxCell>
        <mxCell id="RYkkYyoczVAdhS8qKxW1-61" value="+ choose_best_guess (permutations : String[]) : String" style="text;align=left;verticalAlign=top;spacingLeft=4;spacingRight=4;overflow=hidden;rotatable=0;points=[[0,0.5],[1,0.5]];portConstraint=eastwest;" parent="RYkkYyoczVAdhS8qKxW1-25" vertex="1">
          <mxGeometry y="346" width="440" height="26" as="geometry" />
        </mxCell>
        <mxCell id="RYkkYyoczVAdhS8qKxW1-62" value="+ generate_guess () : void" style="text;align=left;verticalAlign=top;spacingLeft=4;spacingRight=4;overflow=hidden;rotatable=0;points=[[0,0.5],[1,0.5]];portConstraint=eastwest;" parent="RYkkYyoczVAdhS8qKxW1-25" vertex="1">
          <mxGeometry y="372" width="440" height="26" as="geometry" />
        </mxCell>
        <mxCell id="dXqHbMRYeNBjOG6s7Nbo-45" style="edgeStyle=orthogonalEdgeStyle;rounded=0;orthogonalLoop=1;jettySize=auto;html=1;exitX=0.75;exitY=0;exitDx=0;exitDy=0;entryX=0.75;entryY=1;entryDx=0;entryDy=0;endArrow=none;endFill=0;startArrow=open;startFill=0;dashed=1;" parent="WIyWlLk6GJQsqaUBKTNV-1" source="RYkkYyoczVAdhS8qKxW1-36" target="dXqHbMRYeNBjOG6s7Nbo-22" edge="1">
          <mxGeometry relative="1" as="geometry">
            <Array as="points">
              <mxPoint x="1811" y="600" />
              <mxPoint x="1811" y="510" />
            </Array>
          </mxGeometry>
        </mxCell>
        <mxCell id="RYkkYyoczVAdhS8qKxW1-36" value="RuleBook" style="swimlane;fontStyle=1;align=center;verticalAlign=top;childLayout=stackLayout;horizontal=1;startSize=26;horizontalStack=0;resizeParent=1;resizeLast=0;collapsible=1;marginBottom=0;rounded=0;shadow=0;strokeWidth=1;" parent="WIyWlLk6GJQsqaUBKTNV-1" vertex="1">
          <mxGeometry x="1654" y="690" width="210" height="380" as="geometry">
            <mxRectangle x="340" y="380" width="170" height="26" as="alternateBounds" />
          </mxGeometry>
        </mxCell>
        <mxCell id="RYkkYyoczVAdhS8qKxW1-48" value="- max_colour : int" style="text;align=left;verticalAlign=top;spacingLeft=4;spacingRight=4;overflow=hidden;rotatable=0;points=[[0,0.5],[1,0.5]];portConstraint=eastwest;" parent="RYkkYyoczVAdhS8qKxW1-36" vertex="1">
          <mxGeometry y="26" width="210" height="26" as="geometry" />
        </mxCell>
        <mxCell id="RYkkYyoczVAdhS8qKxW1-49" value="- max_try : intÂ " style="text;align=left;verticalAlign=top;spacingLeft=4;spacingRight=4;overflow=hidden;rotatable=0;points=[[0,0.5],[1,0.5]];portConstraint=eastwest;" parent="RYkkYyoczVAdhS8qKxW1-36" vertex="1">
          <mxGeometry y="52" width="210" height="26" as="geometry" />
        </mxCell>
        <mxCell id="RYkkYyoczVAdhS8qKxW1-38" value="- min_code_length : intÂ " style="text;align=left;verticalAlign=top;spacingLeft=4;spacingRight=4;overflow=hidden;rotatable=0;points=[[0,0.5],[1,0.5]];portConstraint=eastwest;" parent="RYkkYyoczVAdhS8qKxW1-36" vertex="1">
          <mxGeometry y="78" width="210" height="26" as="geometry" />
        </mxCell>
        <mxCell id="RYkkYyoczVAdhS8qKxW1-45" value="- min_game_mode : intÂ " style="text;align=left;verticalAlign=top;spacingLeft=4;spacingRight=4;overflow=hidden;rotatable=0;points=[[0,0.5],[1,0.5]];portConstraint=eastwest;" parent="RYkkYyoczVAdhS8qKxW1-36" vertex="1">
          <mxGeometry y="104" width="210" height="26" as="geometry" />
        </mxCell>
        <mxCell id="RYkkYyoczVAdhS8qKxW1-44" value="- max_code_length : int" style="text;align=left;verticalAlign=top;spacingLeft=4;spacingRight=4;overflow=hidden;rotatable=0;points=[[0,0.5],[1,0.5]];portConstraint=eastwest;" parent="RYkkYyoczVAdhS8qKxW1-36" vertex="1">
          <mxGeometry y="130" width="210" height="26" as="geometry" />
        </mxCell>
        <mxCell id="RYkkYyoczVAdhS8qKxW1-46" value="- max_game_mode : int" style="text;align=left;verticalAlign=top;spacingLeft=4;spacingRight=4;overflow=hidden;rotatable=0;points=[[0,0.5],[1,0.5]];portConstraint=eastwest;" parent="RYkkYyoczVAdhS8qKxW1-36" vertex="1">
          <mxGeometry y="156" width="210" height="26" as="geometry" />
        </mxCell>
        <mxCell id="RYkkYyoczVAdhS8qKxW1-47" value="- min_colour : intÂ " style="text;align=left;verticalAlign=top;spacingLeft=4;spacingRight=4;overflow=hidden;rotatable=0;points=[[0,0.5],[1,0.5]];portConstraint=eastwest;" parent="RYkkYyoczVAdhS8qKxW1-36" vertex="1">
          <mxGeometry y="182" width="210" height="26" as="geometry" />
        </mxCell>
        <mxCell id="RYkkYyoczVAdhS8qKxW1-37" value="- min_check_code : int" style="text;align=left;verticalAlign=top;spacingLeft=4;spacingRight=4;overflow=hidden;rotatable=0;points=[[0,0.5],[1,0.5]];portConstraint=eastwest;" parent="RYkkYyoczVAdhS8qKxW1-36" vertex="1">
          <mxGeometry y="208" width="210" height="26" as="geometry" />
        </mxCell>
        <mxCell id="RYkkYyoczVAdhS8qKxW1-50" value="- min_feedback_colour : intÂ " style="text;align=left;verticalAlign=top;spacingLeft=4;spacingRight=4;overflow=hidden;rotatable=0;points=[[0,0.5],[1,0.5]];portConstraint=eastwest;" parent="RYkkYyoczVAdhS8qKxW1-36" vertex="1">
          <mxGeometry y="234" width="210" height="26" as="geometry" />
        </mxCell>
        <mxCell id="RYkkYyoczVAdhS8qKxW1-51" value="- max_feedback_colour : intÂ " style="text;align=left;verticalAlign=top;spacingLeft=4;spacingRight=4;overflow=hidden;rotatable=0;points=[[0,0.5],[1,0.5]];portConstraint=eastwest;" parent="RYkkYyoczVAdhS8qKxW1-36" vertex="1">
          <mxGeometry y="260" width="210" height="26" as="geometry" />
        </mxCell>
        <mxCell id="RYkkYyoczVAdhS8qKxW1-52" value="- winning_feedback_4 : StringÂ " style="text;align=left;verticalAlign=top;spacingLeft=4;spacingRight=4;overflow=hidden;rotatable=0;points=[[0,0.5],[1,0.5]];portConstraint=eastwest;" parent="RYkkYyoczVAdhS8qKxW1-36" vertex="1">
          <mxGeometry y="286" width="210" height="26" as="geometry" />
        </mxCell>
        <mxCell id="RYkkYyoczVAdhS8qKxW1-53" value="- winning_feedback_5 : StringÂ " style="text;align=left;verticalAlign=top;spacingLeft=4;spacingRight=4;overflow=hidden;rotatable=0;points=[[0,0.5],[1,0.5]];portConstraint=eastwest;" parent="RYkkYyoczVAdhS8qKxW1-36" vertex="1">
          <mxGeometry y="312" width="210" height="26" as="geometry" />
        </mxCell>
        <mxCell id="RYkkYyoczVAdhS8qKxW1-39" value="" style="line;html=1;strokeWidth=1;align=left;verticalAlign=middle;spacingTop=-1;spacingLeft=3;spacingRight=3;rotatable=0;labelPosition=right;points=[];portConstraint=eastwest;" parent="RYkkYyoczVAdhS8qKxW1-36" vertex="1">
          <mxGeometry y="338" width="210" height="8" as="geometry" />
        </mxCell>
        <mxCell id="RYkkYyoczVAdhS8qKxW1-54" value="+ getter_for_every_attribute" style="text;align=left;verticalAlign=top;spacingLeft=4;spacingRight=4;overflow=hidden;rotatable=0;points=[[0,0.5],[1,0.5]];portConstraint=eastwest;" parent="RYkkYyoczVAdhS8qKxW1-36" vertex="1">
          <mxGeometry y="346" width="210" height="26" as="geometry" />
        </mxCell>
        <mxCell id="nisNGyiN4TUQVdw5tTL0-25" style="edgeStyle=orthogonalEdgeStyle;rounded=0;orthogonalLoop=1;jettySize=auto;html=1;exitX=0.25;exitY=0;exitDx=0;exitDy=0;entryX=0.5;entryY=1;entryDx=0;entryDy=0;entryPerimeter=0;dashed=1;endArrow=open;endFill=0;" parent="WIyWlLk6GJQsqaUBKTNV-1" source="RYkkYyoczVAdhS8qKxW1-64" target="nisNGyiN4TUQVdw5tTL0-0" edge="1">
          <mxGeometry relative="1" as="geometry" />
        </mxCell>
        <mxCell id="nisNGyiN4TUQVdw5tTL0-30" style="edgeStyle=orthogonalEdgeStyle;rounded=0;orthogonalLoop=1;jettySize=auto;html=1;exitX=0.75;exitY=0;exitDx=0;exitDy=0;entryX=0;entryY=0.5;entryDx=0;entryDy=0;dashed=1;endArrow=open;endFill=0;" parent="WIyWlLk6GJQsqaUBKTNV-1" source="RYkkYyoczVAdhS8qKxW1-64" target="dXqHbMRYeNBjOG6s7Nbo-3" edge="1">
          <mxGeometry relative="1" as="geometry" />
        </mxCell>
        <mxCell id="nisNGyiN4TUQVdw5tTL0-37" style="edgeStyle=orthogonalEdgeStyle;rounded=0;orthogonalLoop=1;jettySize=auto;html=1;exitX=0.5;exitY=0;exitDx=0;exitDy=0;entryX=0.5;entryY=1;entryDx=0;entryDy=0;dashed=1;endArrow=open;endFill=0;" parent="WIyWlLk6GJQsqaUBKTNV-1" source="RYkkYyoczVAdhS8qKxW1-64" target="nisNGyiN4TUQVdw5tTL0-2" edge="1">
          <mxGeometry relative="1" as="geometry" />
        </mxCell>
        <mxCell id="RYkkYyoczVAdhS8qKxW1-64" value="GameController" style="swimlane;fontStyle=1;align=center;verticalAlign=top;childLayout=stackLayout;horizontal=1;startSize=26;horizontalStack=0;resizeParent=1;resizeLast=0;collapsible=1;marginBottom=0;rounded=0;shadow=0;strokeWidth=1;" parent="WIyWlLk6GJQsqaUBKTNV-1" vertex="1">
          <mxGeometry x="20" y="-120" width="860" height="680" as="geometry">
            <mxRectangle x="340" y="380" width="170" height="26" as="alternateBounds" />
          </mxGeometry>
        </mxCell>
        <mxCell id="RYkkYyoczVAdhS8qKxW1-65" value="- validator: Validator" style="text;align=left;verticalAlign=top;spacingLeft=4;spacingRight=4;overflow=hidden;rotatable=0;points=[[0,0.5],[1,0.5]];portConstraint=eastwest;" parent="RYkkYyoczVAdhS8qKxW1-64" vertex="1">
          <mxGeometry y="26" width="860" height="26" as="geometry" />
        </mxCell>
        <mxCell id="RYkkYyoczVAdhS8qKxW1-66" value="- terminal : Terminal" style="text;align=left;verticalAlign=top;spacingLeft=4;spacingRight=4;overflow=hidden;rotatable=0;points=[[0,0.5],[1,0.5]];portConstraint=eastwest;" parent="RYkkYyoczVAdhS8qKxW1-64" vertex="1">
          <mxGeometry y="52" width="860" height="26" as="geometry" />
        </mxCell>
        <mxCell id="RYkkYyoczVAdhS8qKxW1-67" value="- user_name : String" style="text;align=left;verticalAlign=top;spacingLeft=4;spacingRight=4;overflow=hidden;rotatable=0;points=[[0,0.5],[1,0.5]];portConstraint=eastwest;" parent="RYkkYyoczVAdhS8qKxW1-64" vertex="1">
          <mxGeometry y="78" width="860" height="26" as="geometry" />
        </mxCell>
        <mxCell id="J3uAUibjWmVgkW_LJcS_-0" value="- npc_feedback_error : NPCFeedbackError" style="text;align=left;verticalAlign=top;spacingLeft=4;spacingRight=4;overflow=hidden;rotatable=0;points=[[0,0.5],[1,0.5]];portConstraint=eastwest;" parent="RYkkYyoczVAdhS8qKxW1-64" vertex="1">
          <mxGeometry y="104" width="860" height="26" as="geometry" />
        </mxCell>
        <mxCell id="RYkkYyoczVAdhS8qKxW1-68" value="" style="line;html=1;strokeWidth=1;align=left;verticalAlign=middle;spacingTop=-1;spacingLeft=3;spacingRight=3;rotatable=0;labelPosition=right;points=[];portConstraint=eastwest;" parent="RYkkYyoczVAdhS8qKxW1-64" vertex="1">
          <mxGeometry y="130" width="860" height="8" as="geometry" />
        </mxCell>
        <mxCell id="RYkkYyoczVAdhS8qKxW1-69" value="+ command_checker (user_input : String, terminal : View, validator : Validator, npc_feedback_error : NPCFeedbackError, user_name : String)" style="text;align=left;verticalAlign=top;spacingLeft=4;spacingRight=4;overflow=hidden;rotatable=0;points=[[0,0.5],[1,0.5]];portConstraint=eastwest;fontStyle=4" parent="RYkkYyoczVAdhS8qKxW1-64" vertex="1">
          <mxGeometry y="138" width="860" height="26" as="geometry" />
        </mxCell>
        <mxCell id="RYkkYyoczVAdhS8qKxW1-70" value="+ user_help (view : View) : void" style="text;align=left;verticalAlign=top;spacingLeft=4;spacingRight=4;overflow=hidden;rotatable=0;points=[[0,0.5],[1,0.5]];portConstraint=eastwest;fontStyle=4" parent="RYkkYyoczVAdhS8qKxW1-64" vertex="1">
          <mxGeometry y="164" width="860" height="26" as="geometry" />
        </mxCell>
        <mxCell id="RYkkYyoczVAdhS8qKxW1-71" value="+ reset ( validator : Validator, terminal : View, npc_feedback_error : NPCFeedbackError, user_input : String) : GameController" style="text;align=left;verticalAlign=top;spacingLeft=4;spacingRight=4;overflow=hidden;rotatable=0;points=[[0,0.5],[1,0.5]];portConstraint=eastwest;fontStyle=4" parent="RYkkYyoczVAdhS8qKxW1-64" vertex="1">
          <mxGeometry y="190" width="860" height="26" as="geometry" />
        </mxCell>
        <mxCell id="RYkkYyoczVAdhS8qKxW1-72" value="+ quit_game () : void" style="text;align=left;verticalAlign=top;spacingLeft=4;spacingRight=4;overflow=hidden;rotatable=0;points=[[0,0.5],[1,0.5]];portConstraint=eastwest;fontStyle=4" parent="RYkkYyoczVAdhS8qKxW1-64" vertex="1">
          <mxGeometry y="216" width="860" height="26" as="geometry" />
        </mxCell>
        <mxCell id="RYkkYyoczVAdhS8qKxW1-73" value="+ setup_game () : void" style="text;align=left;verticalAlign=top;spacingLeft=4;spacingRight=4;overflow=hidden;rotatable=0;points=[[0,0.5],[1,0.5]];portConstraint=eastwest;" parent="RYkkYyoczVAdhS8qKxW1-64" vertex="1">
          <mxGeometry y="242" width="860" height="26" as="geometry" />
        </mxCell>
        <mxCell id="RYkkYyoczVAdhS8qKxW1-74" value="+ choose_game_mode (user : User) : void" style="text;align=left;verticalAlign=top;spacingLeft=4;spacingRight=4;overflow=hidden;rotatable=0;points=[[0,0.5],[1,0.5]];portConstraint=eastwest;" parent="RYkkYyoczVAdhS8qKxW1-64" vertex="1">
          <mxGeometry y="268" width="860" height="26" as="geometry" />
        </mxCell>
        <mxCell id="RYkkYyoczVAdhS8qKxW1-75" value="+ setup_network_mode () : NetworkMode" style="text;align=left;verticalAlign=top;spacingLeft=4;spacingRight=4;overflow=hidden;rotatable=0;points=[[0,0.5],[1,0.5]];portConstraint=eastwest;" parent="RYkkYyoczVAdhS8qKxW1-64" vertex="1">
          <mxGeometry y="294" width="860" height="26" as="geometry" />
        </mxCell>
        <mxCell id="RYkkYyoczVAdhS8qKxW1-76" value="+ choose_npc_rater () : int" style="text;align=left;verticalAlign=top;spacingLeft=4;spacingRight=4;overflow=hidden;rotatable=0;points=[[0,0.5],[1,0.5]];portConstraint=eastwest;" parent="RYkkYyoczVAdhS8qKxW1-64" vertex="1">
          <mxGeometry y="320" width="860" height="26" as="geometry" />
        </mxCell>
        <mxCell id="RYkkYyoczVAdhS8qKxW1-77" value="+ choose_user_name (user : User) : void" style="text;align=left;verticalAlign=top;spacingLeft=4;spacingRight=4;overflow=hidden;rotatable=0;points=[[0,0.5],[1,0.5]];portConstraint=eastwest;" parent="RYkkYyoczVAdhS8qKxW1-64" vertex="1">
          <mxGeometry y="346" width="860" height="26" as="geometry" />
        </mxCell>
        <mxCell id="RYkkYyoczVAdhS8qKxW1-78" value="+ choose_max_colour () : int" style="text;align=left;verticalAlign=top;spacingLeft=4;spacingRight=4;overflow=hidden;rotatable=0;points=[[0,0.5],[1,0.5]];portConstraint=eastwest;" parent="RYkkYyoczVAdhS8qKxW1-64" vertex="1">
          <mxGeometry y="372" width="860" height="26" as="geometry" />
        </mxCell>
        <mxCell id="dXqHbMRYeNBjOG6s7Nbo-6" value="+ get_user_input (prompt : Function, validation_function : Validator:Function) : String" style="text;align=left;verticalAlign=top;spacingLeft=4;spacingRight=4;overflow=hidden;rotatable=0;points=[[0,0.5],[1,0.5]];portConstraint=eastwest;" parent="RYkkYyoczVAdhS8qKxW1-64" vertex="1">
          <mxGeometry y="398" width="860" height="26" as="geometry" />
        </mxCell>
        <mxCell id="RYkkYyoczVAdhS8qKxW1-79" value="+ initialize_game ( network_mode : Int, network_config : NetworkMode, code_max_length : int, max_colours : int, user : User, npc_rater : Boolean) : void" style="text;align=left;verticalAlign=top;spacingLeft=4;spacingRight=4;overflow=hidden;rotatable=0;points=[[0,0.5],[1,0.5]];portConstraint=eastwest;" parent="RYkkYyoczVAdhS8qKxW1-64" vertex="1">
          <mxGeometry y="424" width="860" height="26" as="geometry" />
        </mxCell>
        <mxCell id="dXqHbMRYeNBjOG6s7Nbo-11" value="+ coder_game (role : Role, board : Board) : void" style="text;align=left;verticalAlign=top;spacingLeft=4;spacingRight=4;overflow=hidden;rotatable=0;points=[[0,0.5],[1,0.5]];portConstraint=eastwest;" parent="RYkkYyoczVAdhS8qKxW1-64" vertex="1">
          <mxGeometry y="450" width="860" height="26" as="geometry" />
        </mxCell>
        <mxCell id="dXqHbMRYeNBjOG6s7Nbo-10" value="+ set_initial_code (board : Board) : void" style="text;align=left;verticalAlign=top;spacingLeft=4;spacingRight=4;overflow=hidden;rotatable=0;points=[[0,0.5],[1,0.5]];portConstraint=eastwest;" parent="RYkkYyoczVAdhS8qKxW1-64" vertex="1">
          <mxGeometry y="476" width="860" height="26" as="geometry" />
        </mxCell>
        <mxCell id="dXqHbMRYeNBjOG6s7Nbo-13" value="+ get_valid_code_input ( board : Board, prompt : Function ) : void" style="text;align=left;verticalAlign=top;spacingLeft=4;spacingRight=4;overflow=hidden;rotatable=0;points=[[0,0.5],[1,0.5]];portConstraint=eastwest;" parent="RYkkYyoczVAdhS8qKxW1-64" vertex="1">
          <mxGeometry y="502" width="860" height="26" as="geometry" />
        </mxCell>
        <mxCell id="dXqHbMRYeNBjOG6s7Nbo-12" value="+ provide_feedback (board : Board) : void" style="text;align=left;verticalAlign=top;spacingLeft=4;spacingRight=4;overflow=hidden;rotatable=0;points=[[0,0.5],[1,0.5]];portConstraint=eastwest;" parent="RYkkYyoczVAdhS8qKxW1-64" vertex="1">
          <mxGeometry y="528" width="860" height="26" as="geometry" />
        </mxCell>
        <mxCell id="dXqHbMRYeNBjOG6s7Nbo-14" value="+ guesser_game ( role : Role, npc : NPC, board : Board, server : ServerHandler, npc_rater : Boolean ) : void" style="text;align=left;verticalAlign=top;spacingLeft=4;spacingRight=4;overflow=hidden;rotatable=0;points=[[0,0.5],[1,0.5]];portConstraint=eastwest;" parent="RYkkYyoczVAdhS8qKxW1-64" vertex="1">
          <mxGeometry y="554" width="860" height="26" as="geometry" />
        </mxCell>
        <mxCell id="dXqHbMRYeNBjOG6s7Nbo-7" value="+ start_online_game(server : ServerHandler) : void" style="text;align=left;verticalAlign=top;spacingLeft=4;spacingRight=4;overflow=hidden;rotatable=0;points=[[0,0.5],[1,0.5]];portConstraint=eastwest;fontStyle=4" parent="RYkkYyoczVAdhS8qKxW1-64" vertex="1">
          <mxGeometry y="580" width="860" height="26" as="geometry" />
        </mxCell>
        <mxCell id="dXqHbMRYeNBjOG6s7Nbo-16" value="+ perform_guesser_turn ( npc : NPC, board : Board, server : ServerHandler, npc_rater : Boolean, role : Role) : void" style="text;align=left;verticalAlign=top;spacingLeft=4;spacingRight=4;overflow=hidden;rotatable=0;points=[[0,0.5],[1,0.5]];portConstraint=eastwest;" parent="RYkkYyoczVAdhS8qKxW1-64" vertex="1">
          <mxGeometry y="606" width="860" height="26" as="geometry" />
        </mxCell>
        <mxCell id="dXqHbMRYeNBjOG6s7Nbo-15" value="+ check_game_end ( board : Board, role : Role ) : Boolean" style="text;align=left;verticalAlign=top;spacingLeft=4;spacingRight=4;overflow=hidden;rotatable=0;points=[[0,0.5],[1,0.5]];portConstraint=eastwest;" parent="RYkkYyoczVAdhS8qKxW1-64" vertex="1">
          <mxGeometry y="632" width="860" height="26" as="geometry" />
        </mxCell>
        <mxCell id="J3uAUibjWmVgkW_LJcS_-1" value="Â«interfaceÂ»&lt;br&gt;&lt;b&gt;Observer&lt;/b&gt;" style="html=1;" parent="WIyWlLk6GJQsqaUBKTNV-1" vertex="1">
          <mxGeometry x="390" y="660" width="110" height="50" as="geometry" />
        </mxCell>
        <mxCell id="dXqHbMRYeNBjOG6s7Nbo-1" style="edgeStyle=orthogonalEdgeStyle;rounded=0;orthogonalLoop=1;jettySize=auto;html=1;exitX=1;exitY=0.5;exitDx=0;exitDy=0;exitPerimeter=0;entryX=0.5;entryY=0;entryDx=0;entryDy=0;endArrow=none;endFill=0;" parent="WIyWlLk6GJQsqaUBKTNV-1" source="J3uAUibjWmVgkW_LJcS_-11" target="RYkkYyoczVAdhS8qKxW1-25" edge="1">
          <mxGeometry relative="1" as="geometry" />
        </mxCell>
        <mxCell id="J3uAUibjWmVgkW_LJcS_-11" value="" style="shape=providedRequiredInterface;html=1;verticalLabelPosition=bottom;sketch=0;rotation=90;" parent="WIyWlLk6GJQsqaUBKTNV-1" vertex="1">
          <mxGeometry x="1170" y="-172.5" width="20" height="20" as="geometry" />
        </mxCell>
        <mxCell id="J3uAUibjWmVgkW_LJcS_-13" style="edgeStyle=orthogonalEdgeStyle;rounded=0;orthogonalLoop=1;jettySize=auto;html=1;exitX=0.5;exitY=1;exitDx=0;exitDy=0;entryX=0;entryY=0.5;entryDx=0;entryDy=0;entryPerimeter=0;endArrow=none;endFill=0;" parent="WIyWlLk6GJQsqaUBKTNV-1" source="J3uAUibjWmVgkW_LJcS_-12" target="J3uAUibjWmVgkW_LJcS_-11" edge="1">
          <mxGeometry relative="1" as="geometry" />
        </mxCell>
        <mxCell id="J3uAUibjWmVgkW_LJcS_-12" value="Â«interfaceÂ»&lt;br&gt;&lt;b&gt;Observer&lt;/b&gt;" style="html=1;" parent="WIyWlLk6GJQsqaUBKTNV-1" vertex="1">
          <mxGeometry x="1130" y="-244.5" width="110" height="50" as="geometry" />
        </mxCell>
        <mxCell id="dXqHbMRYeNBjOG6s7Nbo-2" value="&amp;lt;&amp;lt;DataType&amp;gt;&amp;gt;&lt;br&gt;&lt;b&gt;NetworkMode&lt;/b&gt;" style="swimlane;fontStyle=0;align=center;verticalAlign=top;childLayout=stackLayout;horizontal=1;startSize=40;horizontalStack=0;resizeParent=1;resizeParentMax=0;resizeLast=0;collapsible=0;marginBottom=0;html=1;" parent="WIyWlLk6GJQsqaUBKTNV-1" vertex="1">
          <mxGeometry x="720" y="-260" width="160" height="130" as="geometry" />
        </mxCell>
        <mxCell id="dXqHbMRYeNBjOG6s7Nbo-5" value="+ network_mode : int&lt;br&gt;" style="text;html=1;strokeColor=none;fillColor=none;align=left;verticalAlign=middle;spacingLeft=4;spacingRight=4;overflow=hidden;rotatable=0;points=[[0,0.5],[1,0.5]];portConstraint=eastwest;" parent="dXqHbMRYeNBjOG6s7Nbo-2" vertex="1">
          <mxGeometry y="40" width="160" height="30" as="geometry" />
        </mxCell>
        <mxCell id="dXqHbMRYeNBjOG6s7Nbo-4" value="+ ip : String" style="text;html=1;strokeColor=none;fillColor=none;align=left;verticalAlign=middle;spacingLeft=4;spacingRight=4;overflow=hidden;rotatable=0;points=[[0,0.5],[1,0.5]];portConstraint=eastwest;" parent="dXqHbMRYeNBjOG6s7Nbo-2" vertex="1">
          <mxGeometry y="70" width="160" height="30" as="geometry" />
        </mxCell>
        <mxCell id="dXqHbMRYeNBjOG6s7Nbo-3" value="+ port : int" style="text;html=1;strokeColor=none;fillColor=none;align=left;verticalAlign=middle;spacingLeft=4;spacingRight=4;overflow=hidden;rotatable=0;points=[[0,0.5],[1,0.5]];portConstraint=eastwest;" parent="dXqHbMRYeNBjOG6s7Nbo-2" vertex="1">
          <mxGeometry y="100" width="160" height="30" as="geometry" />
        </mxCell>
        <mxCell id="dXqHbMRYeNBjOG6s7Nbo-21" value="Presentation" style="shape=umlFrame;whiteSpace=wrap;html=1;width=110;height=30;" parent="WIyWlLk6GJQsqaUBKTNV-1" vertex="1">
          <mxGeometry x="-36" y="-1120" width="900" height="800" as="geometry" />
        </mxCell>
        <mxCell id="nisNGyiN4TUQVdw5tTL0-27" style="edgeStyle=orthogonalEdgeStyle;rounded=0;orthogonalLoop=1;jettySize=auto;html=1;exitX=0.75;exitY=0;exitDx=0;exitDy=0;entryX=0.5;entryY=1;entryDx=0;entryDy=0;dashed=1;endArrow=open;endFill=0;" parent="WIyWlLk6GJQsqaUBKTNV-1" source="dXqHbMRYeNBjOG6s7Nbo-22" target="dXqHbMRYeNBjOG6s7Nbo-38" edge="1">
          <mxGeometry relative="1" as="geometry" />
        </mxCell>
        <mxCell id="dXqHbMRYeNBjOG6s7Nbo-22" value="Validator" style="swimlane;fontStyle=1;align=center;verticalAlign=top;childLayout=stackLayout;horizontal=1;startSize=26;horizontalStack=0;resizeParent=1;resizeLast=0;collapsible=1;marginBottom=0;rounded=0;shadow=0;strokeWidth=1;" parent="WIyWlLk6GJQsqaUBKTNV-1" vertex="1">
          <mxGeometry x="1460" y="-120" width="520" height="410" as="geometry">
            <mxRectangle x="340" y="380" width="170" height="26" as="alternateBounds" />
          </mxGeometry>
        </mxCell>
        <mxCell id="dXqHbMRYeNBjOG6s7Nbo-23" value="- rule_book : RuleBook" style="text;align=left;verticalAlign=top;spacingLeft=4;spacingRight=4;overflow=hidden;rotatable=0;points=[[0,0.5],[1,0.5]];portConstraint=eastwest;" parent="dXqHbMRYeNBjOG6s7Nbo-22" vertex="1">
          <mxGeometry y="26" width="520" height="26" as="geometry" />
        </mxCell>
        <mxCell id="dXqHbMRYeNBjOG6s7Nbo-24" value="- validation_error : ValidationError" style="text;align=left;verticalAlign=top;spacingLeft=4;spacingRight=4;overflow=hidden;rotatable=0;points=[[0,0.5],[1,0.5]];portConstraint=eastwest;" parent="dXqHbMRYeNBjOG6s7Nbo-22" vertex="1">
          <mxGeometry y="52" width="520" height="26" as="geometry" />
        </mxCell>
        <mxCell id="dXqHbMRYeNBjOG6s7Nbo-25" value="- game_state : GameState" style="text;align=left;verticalAlign=top;spacingLeft=4;spacingRight=4;overflow=hidden;rotatable=0;points=[[0,0.5],[1,0.5]];portConstraint=eastwest;" parent="dXqHbMRYeNBjOG6s7Nbo-22" vertex="1">
          <mxGeometry y="78" width="520" height="26" as="geometry" />
        </mxCell>
        <mxCell id="dXqHbMRYeNBjOG6s7Nbo-39" value="- role: Role" style="text;align=left;verticalAlign=top;spacingLeft=4;spacingRight=4;overflow=hidden;rotatable=0;points=[[0,0.5],[1,0.5]];portConstraint=eastwest;" parent="dXqHbMRYeNBjOG6s7Nbo-22" vertex="1">
          <mxGeometry y="104" width="520" height="26" as="geometry" />
        </mxCell>
        <mxCell id="dXqHbMRYeNBjOG6s7Nbo-26" value="" style="line;html=1;strokeWidth=1;align=left;verticalAlign=middle;spacingTop=-1;spacingLeft=3;spacingRight=3;rotatable=0;labelPosition=right;points=[];portConstraint=eastwest;" parent="dXqHbMRYeNBjOG6s7Nbo-22" vertex="1">
          <mxGeometry y="130" width="520" height="8" as="geometry" />
        </mxCell>
        <mxCell id="dXqHbMRYeNBjOG6s7Nbo-27" value="+ check_stone_input ( input_strings : String, min_number : int, max_number : int): Boolean" style="text;align=left;verticalAlign=top;spacingLeft=4;spacingRight=4;overflow=hidden;rotatable=0;points=[[0,0.5],[1,0.5]];portConstraint=eastwest;" parent="dXqHbMRYeNBjOG6s7Nbo-22" vertex="1">
          <mxGeometry y="138" width="520" height="26" as="geometry" />
        </mxCell>
        <mxCell id="dXqHbMRYeNBjOG6s7Nbo-28" value="+ check_code_input ( input_strings : String, code_max_length : int, max_number : int) : Boolean" style="text;align=left;verticalAlign=top;spacingLeft=4;spacingRight=4;overflow=hidden;rotatable=0;points=[[0,0.5],[1,0.5]];portConstraint=eastwest;" parent="dXqHbMRYeNBjOG6s7Nbo-22" vertex="1">
          <mxGeometry y="164" width="520" height="26" as="geometry" />
        </mxCell>
        <mxCell id="dXqHbMRYeNBjOG6s7Nbo-29" value="+ check_feedback_input ( input_strings : String, code_max_length : int) : Boolean" style="text;align=left;verticalAlign=top;spacingLeft=4;spacingRight=4;overflow=hidden;rotatable=0;points=[[0,0.5],[1,0.5]];portConstraint=eastwest;" parent="dXqHbMRYeNBjOG6s7Nbo-22" vertex="1">
          <mxGeometry y="190" width="520" height="26" as="geometry" />
        </mxCell>
        <mxCell id="dXqHbMRYeNBjOG6s7Nbo-30" value="+ set_digit_range ( value : int, min_value : int, max_value : int) : Boolean" style="text;align=left;verticalAlign=top;spacingLeft=4;spacingRight=4;overflow=hidden;rotatable=0;points=[[0,0.5],[1,0.5]];portConstraint=eastwest;" parent="dXqHbMRYeNBjOG6s7Nbo-22" vertex="1">
          <mxGeometry y="216" width="520" height="26" as="geometry" />
        </mxCell>
        <mxCell id="dXqHbMRYeNBjOG6s7Nbo-31" value="+ check_max_code_length_input ( code_max_length : int ) : Boolean" style="text;align=left;verticalAlign=top;spacingLeft=4;spacingRight=4;overflow=hidden;rotatable=0;points=[[0,0.5],[1,0.5]];portConstraint=eastwest;" parent="dXqHbMRYeNBjOG6s7Nbo-22" vertex="1">
          <mxGeometry y="242" width="520" height="26" as="geometry" />
        </mxCell>
        <mxCell id="dXqHbMRYeNBjOG6s7Nbo-32" value="+ check_game_mode_input ( game_mode : int) : Boolean" style="text;align=left;verticalAlign=top;spacingLeft=4;spacingRight=4;overflow=hidden;rotatable=0;points=[[0,0.5],[1,0.5]];portConstraint=eastwest;" parent="dXqHbMRYeNBjOG6s7Nbo-22" vertex="1">
          <mxGeometry y="268" width="520" height="26" as="geometry" />
        </mxCell>
        <mxCell id="dXqHbMRYeNBjOG6s7Nbo-33" value="+ check_max_colour_input ( max_colour : int ) : Boolean" style="text;align=left;verticalAlign=top;spacingLeft=4;spacingRight=4;overflow=hidden;rotatable=0;points=[[0,0.5],[1,0.5]];portConstraint=eastwest;" parent="dXqHbMRYeNBjOG6s7Nbo-22" vertex="1">
          <mxGeometry y="294" width="520" height="26" as="geometry" />
        </mxCell>
        <mxCell id="dXqHbMRYeNBjOG6s7Nbo-34" value="+ check_game_state ( board : Board, user_role : Role ) : void" style="text;align=left;verticalAlign=top;spacingLeft=4;spacingRight=4;overflow=hidden;rotatable=0;points=[[0,0.5],[1,0.5]];portConstraint=eastwest;" parent="dXqHbMRYeNBjOG6s7Nbo-22" vertex="1">
          <mxGeometry y="320" width="520" height="26" as="geometry" />
        </mxCell>
        <mxCell id="dXqHbMRYeNBjOG6s7Nbo-35" value="+ check_port_input ( input_string : String) : Boolean" style="text;align=left;verticalAlign=top;spacingLeft=4;spacingRight=4;overflow=hidden;rotatable=0;points=[[0,0.5],[1,0.5]];portConstraint=eastwest;" parent="dXqHbMRYeNBjOG6s7Nbo-22" vertex="1">
          <mxGeometry y="346" width="520" height="26" as="geometry" />
        </mxCell>
        <mxCell id="dXqHbMRYeNBjOG6s7Nbo-38" value="&lt;p style=&quot;margin:0px;margin-top:4px;text-align:center;&quot;&gt;&lt;i&gt;&amp;lt;&amp;lt;enumeration&amp;gt;&amp;gt;&lt;/i&gt;&lt;/p&gt;&lt;p style=&quot;margin:0px;margin-top:4px;text-align:center;&quot;&gt;&lt;b&gt;GameState&lt;/b&gt;&lt;/p&gt;&lt;hr size=&quot;1&quot;&gt;&lt;p style=&quot;margin:0px;margin-left:4px;&quot;&gt;- Win : True&lt;/p&gt;&lt;p style=&quot;margin:0px;margin-left:4px;&quot;&gt;- Lose : False&lt;/p&gt;&lt;p style=&quot;margin:0px;margin-left:4px;&quot;&gt;- Undecided : -1&lt;/p&gt;" style="verticalAlign=top;align=left;overflow=fill;fontSize=12;fontFamily=Helvetica;html=1;" parent="WIyWlLk6GJQsqaUBKTNV-1" vertex="1">
          <mxGeometry x="1760" y="-247.5" width="190" height="95" as="geometry" />
        </mxCell>
        <mxCell id="nisNGyiN4TUQVdw5tTL0-31" style="edgeStyle=orthogonalEdgeStyle;rounded=0;orthogonalLoop=1;jettySize=auto;html=1;exitX=0.25;exitY=0;exitDx=0;exitDy=0;entryX=0.5;entryY=1;entryDx=0;entryDy=0;entryPerimeter=0;dashed=1;endArrow=open;endFill=0;" parent="WIyWlLk6GJQsqaUBKTNV-1" source="dXqHbMRYeNBjOG6s7Nbo-47" target="dXqHbMRYeNBjOG6s7Nbo-64" edge="1">
          <mxGeometry relative="1" as="geometry" />
        </mxCell>
        <mxCell id="nisNGyiN4TUQVdw5tTL0-33" style="edgeStyle=orthogonalEdgeStyle;rounded=0;orthogonalLoop=1;jettySize=auto;html=1;exitX=0.75;exitY=1;exitDx=0;exitDy=0;entryX=0.25;entryY=0;entryDx=0;entryDy=0;endArrow=open;endFill=0;" parent="WIyWlLk6GJQsqaUBKTNV-1" source="dXqHbMRYeNBjOG6s7Nbo-47" target="zkfFHV4jXpPFQw0GAbJ--6" edge="1">
          <mxGeometry relative="1" as="geometry">
            <Array as="points">
              <mxPoint x="-200" y="630" />
              <mxPoint x="372" y="630" />
              <mxPoint x="372" y="730" />
              <mxPoint x="398" y="730" />
            </Array>
          </mxGeometry>
        </mxCell>
        <mxCell id="mPyDys2yiyJjPXda6x0K-1" value="schreibt Feedback" style="edgeLabel;html=1;align=center;verticalAlign=middle;resizable=0;points=[];" parent="nisNGyiN4TUQVdw5tTL0-33" vertex="1" connectable="0">
          <mxGeometry x="-0.5678" y="-4" relative="1" as="geometry">
            <mxPoint as="offset" />
          </mxGeometry>
        </mxCell>
        <mxCell id="dXqHbMRYeNBjOG6s7Nbo-47" value="ServerHandler" style="swimlane;fontStyle=1;align=center;verticalAlign=top;childLayout=stackLayout;horizontal=1;startSize=26;horizontalStack=0;resizeParent=1;resizeLast=0;collapsible=1;marginBottom=0;rounded=0;shadow=0;strokeWidth=1;" parent="WIyWlLk6GJQsqaUBKTNV-1" vertex="1">
          <mxGeometry x="-590" y="-120" width="520" height="280" as="geometry">
            <mxRectangle x="340" y="380" width="170" height="26" as="alternateBounds" />
          </mxGeometry>
        </mxCell>
        <mxCell id="dXqHbMRYeNBjOG6s7Nbo-48" value="- ip : String" style="text;align=left;verticalAlign=top;spacingLeft=4;spacingRight=4;overflow=hidden;rotatable=0;points=[[0,0.5],[1,0.5]];portConstraint=eastwest;" parent="dXqHbMRYeNBjOG6s7Nbo-47" vertex="1">
          <mxGeometry y="26" width="520" height="26" as="geometry" />
        </mxCell>
        <mxCell id="dXqHbMRYeNBjOG6s7Nbo-49" value="- port : int" style="text;align=left;verticalAlign=top;spacingLeft=4;spacingRight=4;overflow=hidden;rotatable=0;points=[[0,0.5],[1,0.5]];portConstraint=eastwest;" parent="dXqHbMRYeNBjOG6s7Nbo-47" vertex="1">
          <mxGeometry y="52" width="520" height="26" as="geometry" />
        </mxCell>
        <mxCell id="dXqHbMRYeNBjOG6s7Nbo-50" value="- board : Board" style="text;align=left;verticalAlign=top;spacingLeft=4;spacingRight=4;overflow=hidden;rotatable=0;points=[[0,0.5],[1,0.5]];portConstraint=eastwest;" parent="dXqHbMRYeNBjOG6s7Nbo-47" vertex="1">
          <mxGeometry y="78" width="520" height="26" as="geometry" />
        </mxCell>
        <mxCell id="dXqHbMRYeNBjOG6s7Nbo-51" value="- user_name : String" style="text;align=left;verticalAlign=top;spacingLeft=4;spacingRight=4;overflow=hidden;rotatable=0;points=[[0,0.5],[1,0.5]];portConstraint=eastwest;" parent="dXqHbMRYeNBjOG6s7Nbo-47" vertex="1">
          <mxGeometry y="104" width="520" height="26" as="geometry" />
        </mxCell>
        <mxCell id="dXqHbMRYeNBjOG6s7Nbo-62" value="- game_id : int" style="text;align=left;verticalAlign=top;spacingLeft=4;spacingRight=4;overflow=hidden;rotatable=0;points=[[0,0.5],[1,0.5]];portConstraint=eastwest;" parent="dXqHbMRYeNBjOG6s7Nbo-47" vertex="1">
          <mxGeometry y="130" width="520" height="26" as="geometry" />
        </mxCell>
        <mxCell id="dXqHbMRYeNBjOG6s7Nbo-63" value="- first_call_made : Boolean" style="text;align=left;verticalAlign=top;spacingLeft=4;spacingRight=4;overflow=hidden;rotatable=0;points=[[0,0.5],[1,0.5]];portConstraint=eastwest;" parent="dXqHbMRYeNBjOG6s7Nbo-47" vertex="1">
          <mxGeometry y="156" width="520" height="26" as="geometry" />
        </mxCell>
        <mxCell id="dXqHbMRYeNBjOG6s7Nbo-52" value="" style="line;html=1;strokeWidth=1;align=left;verticalAlign=middle;spacingTop=-1;spacingLeft=3;spacingRight=3;rotatable=0;labelPosition=right;points=[];portConstraint=eastwest;" parent="dXqHbMRYeNBjOG6s7Nbo-47" vertex="1">
          <mxGeometry y="182" width="520" height="8" as="geometry" />
        </mxCell>
        <mxCell id="dXqHbMRYeNBjOG6s7Nbo-53" value="+ convert_guess_to_string () : String" style="text;align=left;verticalAlign=top;spacingLeft=4;spacingRight=4;overflow=hidden;rotatable=0;points=[[0,0.5],[1,0.5]];portConstraint=eastwest;" parent="dXqHbMRYeNBjOG6s7Nbo-47" vertex="1">
          <mxGeometry y="190" width="520" height="26" as="geometry" />
        </mxCell>
        <mxCell id="dXqHbMRYeNBjOG6s7Nbo-54" value="+ server_handler_send_json () : Response" style="text;align=left;verticalAlign=top;spacingLeft=4;spacingRight=4;overflow=hidden;rotatable=0;points=[[0,0.5],[1,0.5]];portConstraint=eastwest;" parent="dXqHbMRYeNBjOG6s7Nbo-47" vertex="1">
          <mxGeometry y="216" width="520" height="26" as="geometry" />
        </mxCell>
        <mxCell id="dXqHbMRYeNBjOG6s7Nbo-55" value="+ handle_response ( response : Response ) : void" style="text;align=left;verticalAlign=top;spacingLeft=4;spacingRight=4;overflow=hidden;rotatable=0;points=[[0,0.5],[1,0.5]];portConstraint=eastwest;" parent="dXqHbMRYeNBjOG6s7Nbo-47" vertex="1">
          <mxGeometry y="242" width="520" height="26" as="geometry" />
        </mxCell>
        <mxCell id="dXqHbMRYeNBjOG6s7Nbo-64" value="Request" style="shape=folder;fontStyle=1;tabWidth=80;tabHeight=30;tabPosition=left;html=1;boundedLbl=1;" parent="WIyWlLk6GJQsqaUBKTNV-1" vertex="1">
          <mxGeometry x="-530" y="-244.5" width="150" height="80" as="geometry" />
        </mxCell>
        <mxCell id="nisNGyiN4TUQVdw5tTL0-0" value="sys" style="shape=folder;fontStyle=1;tabWidth=80;tabHeight=30;tabPosition=left;html=1;boundedLbl=1;" parent="WIyWlLk6GJQsqaUBKTNV-1" vertex="1">
          <mxGeometry x="180" y="-260" width="150" height="80" as="geometry" />
        </mxCell>
        <mxCell id="nisNGyiN4TUQVdw5tTL0-26" style="edgeStyle=orthogonalEdgeStyle;rounded=0;orthogonalLoop=1;jettySize=auto;html=1;exitX=0.25;exitY=0;exitDx=0;exitDy=0;entryX=0.5;entryY=1;entryDx=0;entryDy=0;entryPerimeter=0;dashed=1;endArrow=open;endFill=0;" parent="WIyWlLk6GJQsqaUBKTNV-1" source="nisNGyiN4TUQVdw5tTL0-2" target="nisNGyiN4TUQVdw5tTL0-23" edge="1">
          <mxGeometry relative="1" as="geometry" />
        </mxCell>
        <mxCell id="nisNGyiN4TUQVdw5tTL0-2" value="TerminalView" style="swimlane;fontStyle=1;align=center;verticalAlign=top;childLayout=stackLayout;horizontal=1;startSize=26;horizontalStack=0;resizeParent=1;resizeLast=0;collapsible=1;marginBottom=0;rounded=0;shadow=0;strokeWidth=1;" parent="WIyWlLk6GJQsqaUBKTNV-1" vertex="1">
          <mxGeometry x="115" y="-902" width="520" height="472" as="geometry">
            <mxRectangle x="340" y="380" width="170" height="26" as="alternateBounds" />
          </mxGeometry>
        </mxCell>
        <mxCell id="nisNGyiN4TUQVdw5tTL0-7" value="" style="line;html=1;strokeWidth=1;align=left;verticalAlign=middle;spacingTop=-1;spacingLeft=3;spacingRight=3;rotatable=0;labelPosition=right;points=[];portConstraint=eastwest;" parent="nisNGyiN4TUQVdw5tTL0-2" vertex="1">
          <mxGeometry y="26" width="520" height="8" as="geometry" />
        </mxCell>
        <mxCell id="nisNGyiN4TUQVdw5tTL0-35" value="+ background_colour ( colour_value : int ) : String" style="text;align=left;verticalAlign=top;spacingLeft=4;spacingRight=4;overflow=hidden;rotatable=0;points=[[0,0.5],[1,0.5]];portConstraint=eastwest;fontStyle=4" parent="nisNGyiN4TUQVdw5tTL0-2" vertex="1">
          <mxGeometry y="34" width="520" height="26" as="geometry" />
        </mxCell>
        <mxCell id="nisNGyiN4TUQVdw5tTL0-8" value="+ view_game_mode () : void" style="text;align=left;verticalAlign=top;spacingLeft=4;spacingRight=4;overflow=hidden;rotatable=0;points=[[0,0.5],[1,0.5]];portConstraint=eastwest;fontStyle=4" parent="nisNGyiN4TUQVdw5tTL0-2" vertex="1">
          <mxGeometry y="60" width="520" height="26" as="geometry" />
        </mxCell>
        <mxCell id="nisNGyiN4TUQVdw5tTL0-9" value="+ view_game_network_mode () : void" style="text;align=left;verticalAlign=top;spacingLeft=4;spacingRight=4;overflow=hidden;rotatable=0;points=[[0,0.5],[1,0.5]];portConstraint=eastwest;fontStyle=4" parent="nisNGyiN4TUQVdw5tTL0-2" vertex="1">
          <mxGeometry y="86" width="520" height="26" as="geometry" />
        </mxCell>
        <mxCell id="nisNGyiN4TUQVdw5tTL0-10" value="+ view_human_or_npc () : void" style="text;align=left;verticalAlign=top;spacingLeft=4;spacingRight=4;overflow=hidden;rotatable=0;points=[[0,0.5],[1,0.5]];portConstraint=eastwest;fontStyle=4" parent="nisNGyiN4TUQVdw5tTL0-2" vertex="1">
          <mxGeometry y="112" width="520" height="26" as="geometry" />
        </mxCell>
        <mxCell id="nisNGyiN4TUQVdw5tTL0-11" value="+ view_ip_address () : void" style="text;align=left;verticalAlign=top;spacingLeft=4;spacingRight=4;overflow=hidden;rotatable=0;points=[[0,0.5],[1,0.5]];portConstraint=eastwest;fontStyle=4" parent="nisNGyiN4TUQVdw5tTL0-2" vertex="1">
          <mxGeometry y="138" width="520" height="26" as="geometry" />
        </mxCell>
        <mxCell id="nisNGyiN4TUQVdw5tTL0-12" value="+ view_port () : void" style="text;align=left;verticalAlign=top;spacingLeft=4;spacingRight=4;overflow=hidden;rotatable=0;points=[[0,0.5],[1,0.5]];portConstraint=eastwest;fontStyle=4" parent="nisNGyiN4TUQVdw5tTL0-2" vertex="1">
          <mxGeometry y="164" width="520" height="26" as="geometry" />
        </mxCell>
        <mxCell id="nisNGyiN4TUQVdw5tTL0-13" value="+ view_code_length () : void" style="text;align=left;verticalAlign=top;spacingLeft=4;spacingRight=4;overflow=hidden;rotatable=0;points=[[0,0.5],[1,0.5]];portConstraint=eastwest;fontStyle=4" parent="nisNGyiN4TUQVdw5tTL0-2" vertex="1">
          <mxGeometry y="190" width="520" height="26" as="geometry" />
        </mxCell>
        <mxCell id="nisNGyiN4TUQVdw5tTL0-14" value="+ view_max_colour () : void" style="text;align=left;verticalAlign=top;spacingLeft=4;spacingRight=4;overflow=hidden;rotatable=0;points=[[0,0.5],[1,0.5]];portConstraint=eastwest;fontStyle=4" parent="nisNGyiN4TUQVdw5tTL0-2" vertex="1">
          <mxGeometry y="216" width="520" height="26" as="geometry" />
        </mxCell>
        <mxCell id="nisNGyiN4TUQVdw5tTL0-15" value="+ view_username () : void" style="text;align=left;verticalAlign=top;spacingLeft=4;spacingRight=4;overflow=hidden;rotatable=0;points=[[0,0.5],[1,0.5]];portConstraint=eastwest;fontStyle=4" parent="nisNGyiN4TUQVdw5tTL0-2" vertex="1">
          <mxGeometry y="242" width="520" height="26" as="geometry" />
        </mxCell>
        <mxCell id="nisNGyiN4TUQVdw5tTL0-17" value="+ view_provide_guess () : void" style="text;align=left;verticalAlign=top;spacingLeft=4;spacingRight=4;overflow=hidden;rotatable=0;points=[[0,0.5],[1,0.5]];portConstraint=eastwest;fontStyle=4" parent="nisNGyiN4TUQVdw5tTL0-2" vertex="1">
          <mxGeometry y="268" width="520" height="26" as="geometry" />
        </mxCell>
        <mxCell id="nisNGyiN4TUQVdw5tTL0-19" value="+ view_provide_code () : void" style="text;align=left;verticalAlign=top;spacingLeft=4;spacingRight=4;overflow=hidden;rotatable=0;points=[[0,0.5],[1,0.5]];portConstraint=eastwest;fontStyle=4" parent="nisNGyiN4TUQVdw5tTL0-2" vertex="1">
          <mxGeometry y="294" width="520" height="26" as="geometry" />
        </mxCell>
        <mxCell id="nisNGyiN4TUQVdw5tTL0-20" value="+ view_provide_feedback () : void" style="text;align=left;verticalAlign=top;spacingLeft=4;spacingRight=4;overflow=hidden;rotatable=0;points=[[0,0.5],[1,0.5]];portConstraint=eastwest;fontStyle=4" parent="nisNGyiN4TUQVdw5tTL0-2" vertex="1">
          <mxGeometry y="320" width="520" height="26" as="geometry" />
        </mxCell>
        <mxCell id="nisNGyiN4TUQVdw5tTL0-18" value="+ view_win () : void" style="text;align=left;verticalAlign=top;spacingLeft=4;spacingRight=4;overflow=hidden;rotatable=0;points=[[0,0.5],[1,0.5]];portConstraint=eastwest;fontStyle=4" parent="nisNGyiN4TUQVdw5tTL0-2" vertex="1">
          <mxGeometry y="346" width="520" height="26" as="geometry" />
        </mxCell>
        <mxCell id="nisNGyiN4TUQVdw5tTL0-21" value="+ view_lose () : void" style="text;align=left;verticalAlign=top;spacingLeft=4;spacingRight=4;overflow=hidden;rotatable=0;points=[[0,0.5],[1,0.5]];portConstraint=eastwest;fontStyle=4" parent="nisNGyiN4TUQVdw5tTL0-2" vertex="1">
          <mxGeometry y="372" width="520" height="26" as="geometry" />
        </mxCell>
        <mxCell id="nisNGyiN4TUQVdw5tTL0-22" value="+ view_draw () : void" style="text;align=left;verticalAlign=top;spacingLeft=4;spacingRight=4;overflow=hidden;rotatable=0;points=[[0,0.5],[1,0.5]];portConstraint=eastwest;fontStyle=4" parent="nisNGyiN4TUQVdw5tTL0-2" vertex="1">
          <mxGeometry y="398" width="520" height="26" as="geometry" />
        </mxCell>
        <mxCell id="nisNGyiN4TUQVdw5tTL0-16" value="+ print_help () : void" style="text;align=left;verticalAlign=top;spacingLeft=4;spacingRight=4;overflow=hidden;rotatable=0;points=[[0,0.5],[1,0.5]];portConstraint=eastwest;fontStyle=4" parent="nisNGyiN4TUQVdw5tTL0-2" vertex="1">
          <mxGeometry y="424" width="520" height="26" as="geometry" />
        </mxCell>
        <mxCell id="nisNGyiN4TUQVdw5tTL0-23" value="os" style="shape=folder;fontStyle=1;tabWidth=80;tabHeight=30;tabPosition=left;html=1;boundedLbl=1;" parent="WIyWlLk6GJQsqaUBKTNV-1" vertex="1">
          <mxGeometry x="170" y="-1050" width="150" height="80" as="geometry" />
        </mxCell>
        <mxCell id="_kjZ75DUSwdjm7417okM-1" style="edgeStyle=orthogonalEdgeStyle;rounded=0;orthogonalLoop=1;jettySize=auto;html=1;exitX=1;exitY=0.5;exitDx=0;exitDy=0;entryX=0;entryY=0.25;entryDx=0;entryDy=0;dashed=1;endArrow=open;endFill=0;" parent="WIyWlLk6GJQsqaUBKTNV-1" source="RYkkYyoczVAdhS8qKxW1-1" target="RYkkYyoczVAdhS8qKxW1-20" edge="1">
          <mxGeometry relative="1" as="geometry" />
        </mxCell>
        <mxCell id="mPyDys2yiyJjPXda6x0K-2" style="edgeStyle=orthogonalEdgeStyle;rounded=0;orthogonalLoop=1;jettySize=auto;html=1;exitX=0;exitY=0.5;exitDx=0;exitDy=0;entryX=1;entryY=0.5;entryDx=0;entryDy=0;endArrow=openThin;endFill=0;dashed=1;" parent="WIyWlLk6GJQsqaUBKTNV-1" source="RYkkYyoczVAdhS8qKxW1-69" target="dXqHbMRYeNBjOG6s7Nbo-62" edge="1">
          <mxGeometry relative="1" as="geometry" />
        </mxCell>
      </root>
    </mxGraphModel>
  </diagram>
  <diagram id="mMTpYRJ-5tBh_RXpv3RG" name="Objektdiagramm Guess Server">
    <mxGraphModel dx="2448" dy="2644" grid="1" gridSize="10" guides="1" tooltips="1" connect="1" arrows="1" fold="1" page="1" pageScale="1" pageWidth="1169" pageHeight="827" math="0" shadow="0">
      <root>
        <mxCell id="0" />
        <mxCell id="1" parent="0" />
        <mxCell id="Ec1SnEiNYGpAepE4OgDY-1" value="terminal:TerminalView" style="swimlane;fontStyle=5;align=center;verticalAlign=top;childLayout=stackLayout;horizontal=1;startSize=26;horizontalStack=0;resizeParent=1;resizeLast=0;collapsible=1;marginBottom=0;rounded=0;shadow=0;strokeWidth=1;" parent="1" vertex="1">
          <mxGeometry x="1050" y="-1305" width="520" height="130" as="geometry">
            <mxRectangle x="340" y="380" width="170" height="26" as="alternateBounds" />
          </mxGeometry>
        </mxCell>
        <mxCell id="Ec1SnEiNYGpAepE4OgDY-2" value="" style="line;html=1;strokeWidth=1;align=left;verticalAlign=middle;spacingTop=-1;spacingLeft=3;spacingRight=3;rotatable=0;labelPosition=right;points=[];portConstraint=eastwest;" parent="Ec1SnEiNYGpAepE4OgDY-1" vertex="1">
          <mxGeometry y="26" width="520" height="8" as="geometry" />
        </mxCell>
        <mxCell id="Ec1SnEiNYGpAepE4OgDY-3" value="+ background_colour ( colour_value : int ) : String" style="text;align=left;verticalAlign=top;spacingLeft=4;spacingRight=4;overflow=hidden;rotatable=0;points=[[0,0.5],[1,0.5]];portConstraint=eastwest;fontStyle=4" parent="Ec1SnEiNYGpAepE4OgDY-1" vertex="1">
          <mxGeometry y="34" width="520" height="26" as="geometry" />
        </mxCell>
        <mxCell id="Ec1SnEiNYGpAepE4OgDY-12" value="+ view_provide_guess () : void" style="text;align=left;verticalAlign=top;spacingLeft=4;spacingRight=4;overflow=hidden;rotatable=0;points=[[0,0.5],[1,0.5]];portConstraint=eastwest;fontStyle=4" parent="Ec1SnEiNYGpAepE4OgDY-1" vertex="1">
          <mxGeometry y="60" width="520" height="26" as="geometry" />
        </mxCell>
        <mxCell id="Ec1SnEiNYGpAepE4OgDY-17" value="+ view_draw () : void" style="text;align=left;verticalAlign=top;spacingLeft=4;spacingRight=4;overflow=hidden;rotatable=0;points=[[0,0.5],[1,0.5]];portConstraint=eastwest;fontStyle=4" parent="Ec1SnEiNYGpAepE4OgDY-1" vertex="1">
          <mxGeometry y="86" width="520" height="26" as="geometry" />
        </mxCell>
        <mxCell id="WbkZ5O1RnTZ-OV7QSHxZ-1" value="rule_book:RuleBook" style="swimlane;fontStyle=5;align=center;verticalAlign=top;childLayout=stackLayout;horizontal=1;startSize=26;horizontalStack=0;resizeParent=1;resizeLast=0;collapsible=1;marginBottom=0;rounded=0;shadow=0;strokeWidth=1;" parent="1" vertex="1">
          <mxGeometry x="880" y="-810" width="210" height="360" as="geometry">
            <mxRectangle x="340" y="380" width="170" height="26" as="alternateBounds" />
          </mxGeometry>
        </mxCell>
        <mxCell id="WbkZ5O1RnTZ-OV7QSHxZ-2" value="- max_colour : 8" style="text;align=left;verticalAlign=top;spacingLeft=4;spacingRight=4;overflow=hidden;rotatable=0;points=[[0,0.5],[1,0.5]];portConstraint=eastwest;" parent="WbkZ5O1RnTZ-OV7QSHxZ-1" vertex="1">
          <mxGeometry y="26" width="210" height="26" as="geometry" />
        </mxCell>
        <mxCell id="WbkZ5O1RnTZ-OV7QSHxZ-8" value="- min_colour : 2Â " style="text;align=left;verticalAlign=top;spacingLeft=4;spacingRight=4;overflow=hidden;rotatable=0;points=[[0,0.5],[1,0.5]];portConstraint=eastwest;" parent="WbkZ5O1RnTZ-OV7QSHxZ-1" vertex="1">
          <mxGeometry y="52" width="210" height="26" as="geometry" />
        </mxCell>
        <mxCell id="WbkZ5O1RnTZ-OV7QSHxZ-3" value="- max_try : 10Â " style="text;align=left;verticalAlign=top;spacingLeft=4;spacingRight=4;overflow=hidden;rotatable=0;points=[[0,0.5],[1,0.5]];portConstraint=eastwest;" parent="WbkZ5O1RnTZ-OV7QSHxZ-1" vertex="1">
          <mxGeometry y="78" width="210" height="26" as="geometry" />
        </mxCell>
        <mxCell id="WbkZ5O1RnTZ-OV7QSHxZ-4" value="- min_code_length : 4" style="text;align=left;verticalAlign=top;spacingLeft=4;spacingRight=4;overflow=hidden;rotatable=0;points=[[0,0.5],[1,0.5]];portConstraint=eastwest;" parent="WbkZ5O1RnTZ-OV7QSHxZ-1" vertex="1">
          <mxGeometry y="104" width="210" height="26" as="geometry" />
        </mxCell>
        <mxCell id="WbkZ5O1RnTZ-OV7QSHxZ-6" value="- max_code_length : 5" style="text;align=left;verticalAlign=top;spacingLeft=4;spacingRight=4;overflow=hidden;rotatable=0;points=[[0,0.5],[1,0.5]];portConstraint=eastwest;" parent="WbkZ5O1RnTZ-OV7QSHxZ-1" vertex="1">
          <mxGeometry y="130" width="210" height="26" as="geometry" />
        </mxCell>
        <mxCell id="WbkZ5O1RnTZ-OV7QSHxZ-5" value="- min_game_mode : 1Â " style="text;align=left;verticalAlign=top;spacingLeft=4;spacingRight=4;overflow=hidden;rotatable=0;points=[[0,0.5],[1,0.5]];portConstraint=eastwest;" parent="WbkZ5O1RnTZ-OV7QSHxZ-1" vertex="1">
          <mxGeometry y="156" width="210" height="26" as="geometry" />
        </mxCell>
        <mxCell id="WbkZ5O1RnTZ-OV7QSHxZ-7" value="- max_game_mode : 2" style="text;align=left;verticalAlign=top;spacingLeft=4;spacingRight=4;overflow=hidden;rotatable=0;points=[[0,0.5],[1,0.5]];portConstraint=eastwest;" parent="WbkZ5O1RnTZ-OV7QSHxZ-1" vertex="1">
          <mxGeometry y="182" width="210" height="26" as="geometry" />
        </mxCell>
        <mxCell id="WbkZ5O1RnTZ-OV7QSHxZ-9" value="- min_check_code : 2" style="text;align=left;verticalAlign=top;spacingLeft=4;spacingRight=4;overflow=hidden;rotatable=0;points=[[0,0.5],[1,0.5]];portConstraint=eastwest;" parent="WbkZ5O1RnTZ-OV7QSHxZ-1" vertex="1">
          <mxGeometry y="208" width="210" height="26" as="geometry" />
        </mxCell>
        <mxCell id="WbkZ5O1RnTZ-OV7QSHxZ-10" value="- min_feedback_colour : 7" style="text;align=left;verticalAlign=top;spacingLeft=4;spacingRight=4;overflow=hidden;rotatable=0;points=[[0,0.5],[1,0.5]];portConstraint=eastwest;" parent="WbkZ5O1RnTZ-OV7QSHxZ-1" vertex="1">
          <mxGeometry y="234" width="210" height="26" as="geometry" />
        </mxCell>
        <mxCell id="WbkZ5O1RnTZ-OV7QSHxZ-11" value="- max_feedback_colour : 8Â " style="text;align=left;verticalAlign=top;spacingLeft=4;spacingRight=4;overflow=hidden;rotatable=0;points=[[0,0.5],[1,0.5]];portConstraint=eastwest;" parent="WbkZ5O1RnTZ-OV7QSHxZ-1" vertex="1">
          <mxGeometry y="260" width="210" height="26" as="geometry" />
        </mxCell>
        <mxCell id="WbkZ5O1RnTZ-OV7QSHxZ-12" value="- winning_feedback_4 : &quot;8888&quot;" style="text;align=left;verticalAlign=top;spacingLeft=4;spacingRight=4;overflow=hidden;rotatable=0;points=[[0,0.5],[1,0.5]];portConstraint=eastwest;" parent="WbkZ5O1RnTZ-OV7QSHxZ-1" vertex="1">
          <mxGeometry y="286" width="210" height="26" as="geometry" />
        </mxCell>
        <mxCell id="WbkZ5O1RnTZ-OV7QSHxZ-13" value="- winning_feedback_5 : &quot;88888&quot;" style="text;align=left;verticalAlign=top;spacingLeft=4;spacingRight=4;overflow=hidden;rotatable=0;points=[[0,0.5],[1,0.5]];portConstraint=eastwest;" parent="WbkZ5O1RnTZ-OV7QSHxZ-1" vertex="1">
          <mxGeometry y="312" width="210" height="26" as="geometry" />
        </mxCell>
        <mxCell id="WbkZ5O1RnTZ-OV7QSHxZ-14" value="" style="line;html=1;strokeWidth=1;align=left;verticalAlign=middle;spacingTop=-1;spacingLeft=3;spacingRight=3;rotatable=0;labelPosition=right;points=[];portConstraint=eastwest;" parent="WbkZ5O1RnTZ-OV7QSHxZ-1" vertex="1">
          <mxGeometry y="338" width="210" height="8" as="geometry" />
        </mxCell>
        <mxCell id="fsdTuqIgzPmC5Hz3-l9X-6" style="edgeStyle=orthogonalEdgeStyle;rounded=0;orthogonalLoop=1;jettySize=auto;html=1;exitX=0.75;exitY=1;exitDx=0;exitDy=0;entryX=0;entryY=0.5;entryDx=0;entryDy=0;dashed=1;endArrow=open;endFill=0;" parent="1" source="DZFzH0clIZ-gT7l7dqrf-1" target="WbkZ5O1RnTZ-OV7QSHxZ-8" edge="1">
          <mxGeometry relative="1" as="geometry" />
        </mxCell>
        <mxCell id="DZFzH0clIZ-gT7l7dqrf-1" value="validator:Validator" style="swimlane;fontStyle=5;align=center;verticalAlign=top;childLayout=stackLayout;horizontal=1;startSize=26;horizontalStack=0;resizeParent=1;resizeLast=0;collapsible=1;marginBottom=0;rounded=0;shadow=0;strokeWidth=1;" parent="1" vertex="1">
          <mxGeometry x="340" y="-998" width="520" height="158" as="geometry">
            <mxRectangle x="340" y="380" width="170" height="26" as="alternateBounds" />
          </mxGeometry>
        </mxCell>
        <mxCell id="DZFzH0clIZ-gT7l7dqrf-2" value="- rule_book : rule_book" style="text;align=left;verticalAlign=top;spacingLeft=4;spacingRight=4;overflow=hidden;rotatable=0;points=[[0,0.5],[1,0.5]];portConstraint=eastwest;" parent="DZFzH0clIZ-gT7l7dqrf-1" vertex="1">
          <mxGeometry y="26" width="520" height="26" as="geometry" />
        </mxCell>
        <mxCell id="DZFzH0clIZ-gT7l7dqrf-4" value="- game_state : GameState.Undecided" style="text;align=left;verticalAlign=top;spacingLeft=4;spacingRight=4;overflow=hidden;rotatable=0;points=[[0,0.5],[1,0.5]];portConstraint=eastwest;" parent="DZFzH0clIZ-gT7l7dqrf-1" vertex="1">
          <mxGeometry y="52" width="520" height="26" as="geometry" />
        </mxCell>
        <mxCell id="DZFzH0clIZ-gT7l7dqrf-6" value="" style="line;html=1;strokeWidth=1;align=left;verticalAlign=middle;spacingTop=-1;spacingLeft=3;spacingRight=3;rotatable=0;labelPosition=right;points=[];portConstraint=eastwest;" parent="DZFzH0clIZ-gT7l7dqrf-1" vertex="1">
          <mxGeometry y="78" width="520" height="8" as="geometry" />
        </mxCell>
        <mxCell id="DZFzH0clIZ-gT7l7dqrf-8" value="+ check_code_input ( input_strings : String, code_max_length : int, max_number : int) : Boolean" style="text;align=left;verticalAlign=top;spacingLeft=4;spacingRight=4;overflow=hidden;rotatable=0;points=[[0,0.5],[1,0.5]];portConstraint=eastwest;" parent="DZFzH0clIZ-gT7l7dqrf-1" vertex="1">
          <mxGeometry y="86" width="520" height="26" as="geometry" />
        </mxCell>
        <mxCell id="DZFzH0clIZ-gT7l7dqrf-14" value="+ check_game_state ( board : Board, user_role : Role ) : void" style="text;align=left;verticalAlign=top;spacingLeft=4;spacingRight=4;overflow=hidden;rotatable=0;points=[[0,0.5],[1,0.5]];portConstraint=eastwest;" parent="DZFzH0clIZ-gT7l7dqrf-1" vertex="1">
          <mxGeometry y="112" width="520" height="26" as="geometry" />
        </mxCell>
        <mxCell id="fsdTuqIgzPmC5Hz3-l9X-1" style="edgeStyle=orthogonalEdgeStyle;rounded=0;orthogonalLoop=1;jettySize=auto;html=1;entryX=0.75;entryY=0;entryDx=0;entryDy=0;dashed=1;endArrow=open;endFill=0;exitX=0.75;exitY=1;exitDx=0;exitDy=0;" parent="1" source="rcQOH5ZH7XJkh9ToVAs4-1" target="XPVH49KEsoUfNuo3gavF-1" edge="1">
          <mxGeometry relative="1" as="geometry">
            <mxPoint x="1610" y="-730" as="sourcePoint" />
          </mxGeometry>
        </mxCell>
        <mxCell id="fsdTuqIgzPmC5Hz3-l9X-2" style="edgeStyle=orthogonalEdgeStyle;rounded=0;orthogonalLoop=1;jettySize=auto;html=1;exitX=0.5;exitY=1;exitDx=0;exitDy=0;entryX=0.25;entryY=0;entryDx=0;entryDy=0;dashed=1;endArrow=open;endFill=0;" parent="1" source="rcQOH5ZH7XJkh9ToVAs4-1" target="uXuXJESQKgpOxpkzYa3M-1" edge="1">
          <mxGeometry relative="1" as="geometry" />
        </mxCell>
        <mxCell id="5dgfC-dnQEsc_uYfHZti-3" style="edgeStyle=orthogonalEdgeStyle;rounded=0;orthogonalLoop=1;jettySize=auto;html=1;exitX=0.5;exitY=0;exitDx=0;exitDy=0;entryX=0.5;entryY=1;entryDx=0;entryDy=0;endArrow=openThin;endFill=0;dashed=1;" parent="1" source="rcQOH5ZH7XJkh9ToVAs4-1" target="Ec1SnEiNYGpAepE4OgDY-1" edge="1">
          <mxGeometry relative="1" as="geometry" />
        </mxCell>
        <mxCell id="rcQOH5ZH7XJkh9ToVAs4-1" value="game_controller:GameController" style="swimlane;fontStyle=5;align=center;verticalAlign=top;childLayout=stackLayout;horizontal=1;startSize=26;horizontalStack=0;resizeParent=1;resizeLast=0;collapsible=1;marginBottom=0;rounded=0;shadow=0;strokeWidth=1;" parent="1" vertex="1">
          <mxGeometry x="880" y="-1118" width="860" height="278" as="geometry">
            <mxRectangle x="340" y="380" width="170" height="26" as="alternateBounds" />
          </mxGeometry>
        </mxCell>
        <mxCell id="rcQOH5ZH7XJkh9ToVAs4-2" value="- validator: validator" style="text;align=left;verticalAlign=top;spacingLeft=4;spacingRight=4;overflow=hidden;rotatable=0;points=[[0,0.5],[1,0.5]];portConstraint=eastwest;" parent="rcQOH5ZH7XJkh9ToVAs4-1" vertex="1">
          <mxGeometry y="26" width="860" height="26" as="geometry" />
        </mxCell>
        <mxCell id="rcQOH5ZH7XJkh9ToVAs4-3" value="- terminal : terminal" style="text;align=left;verticalAlign=top;spacingLeft=4;spacingRight=4;overflow=hidden;rotatable=0;points=[[0,0.5],[1,0.5]];portConstraint=eastwest;" parent="rcQOH5ZH7XJkh9ToVAs4-1" vertex="1">
          <mxGeometry y="52" width="860" height="26" as="geometry" />
        </mxCell>
        <mxCell id="rcQOH5ZH7XJkh9ToVAs4-4" value="- user_name : foo" style="text;align=left;verticalAlign=top;spacingLeft=4;spacingRight=4;overflow=hidden;rotatable=0;points=[[0,0.5],[1,0.5]];portConstraint=eastwest;" parent="rcQOH5ZH7XJkh9ToVAs4-1" vertex="1">
          <mxGeometry y="78" width="860" height="26" as="geometry" />
        </mxCell>
        <mxCell id="rcQOH5ZH7XJkh9ToVAs4-6" value="" style="line;html=1;strokeWidth=1;align=left;verticalAlign=middle;spacingTop=-1;spacingLeft=3;spacingRight=3;rotatable=0;labelPosition=right;points=[];portConstraint=eastwest;" parent="rcQOH5ZH7XJkh9ToVAs4-1" vertex="1">
          <mxGeometry y="104" width="860" height="8" as="geometry" />
        </mxCell>
        <mxCell id="rcQOH5ZH7XJkh9ToVAs4-7" value="+ command_checker (user_input : String, terminal : View, validator : Validator, npc_feedback_error : NPCFeedbackError, user_name : User)" style="text;align=left;verticalAlign=top;spacingLeft=4;spacingRight=4;overflow=hidden;rotatable=0;points=[[0,0.5],[1,0.5]];portConstraint=eastwest;fontStyle=4" parent="rcQOH5ZH7XJkh9ToVAs4-1" vertex="1">
          <mxGeometry y="112" width="860" height="26" as="geometry" />
        </mxCell>
        <mxCell id="rcQOH5ZH7XJkh9ToVAs4-21" value="+ get_valid_code_input ( board, check_code_input ) : void" style="text;align=left;verticalAlign=top;spacingLeft=4;spacingRight=4;overflow=hidden;rotatable=0;points=[[0,0.5],[1,0.5]];portConstraint=eastwest;" parent="rcQOH5ZH7XJkh9ToVAs4-1" vertex="1">
          <mxGeometry y="138" width="860" height="26" as="geometry" />
        </mxCell>
        <mxCell id="rcQOH5ZH7XJkh9ToVAs4-23" value="+ guesser_game ( role : user_name.Role , npc : NPC, board : board, server : server , npc_rater : false ) : void" style="text;align=left;verticalAlign=top;spacingLeft=4;spacingRight=4;overflow=hidden;rotatable=0;points=[[0,0.5],[1,0.5]];portConstraint=eastwest;" parent="rcQOH5ZH7XJkh9ToVAs4-1" vertex="1">
          <mxGeometry y="164" width="860" height="26" as="geometry" />
        </mxCell>
        <mxCell id="rcQOH5ZH7XJkh9ToVAs4-25" value="+ perform_guesser_turn ( npc : NPC, board : board, server : server , npc_rater : false , role : user_name.role) : void" style="text;align=left;verticalAlign=top;spacingLeft=4;spacingRight=4;overflow=hidden;rotatable=0;points=[[0,0.5],[1,0.5]];portConstraint=eastwest;" parent="rcQOH5ZH7XJkh9ToVAs4-1" vertex="1">
          <mxGeometry y="190" width="860" height="26" as="geometry" />
        </mxCell>
        <mxCell id="rcQOH5ZH7XJkh9ToVAs4-26" value="+ check_game_end ( board : board, role : Role.Rater ) : False" style="text;align=left;verticalAlign=top;spacingLeft=4;spacingRight=4;overflow=hidden;rotatable=0;points=[[0,0.5],[1,0.5]];portConstraint=eastwest;" parent="rcQOH5ZH7XJkh9ToVAs4-1" vertex="1">
          <mxGeometry y="216" width="860" height="26" as="geometry" />
        </mxCell>
        <mxCell id="nUNQY4lH1AvuRWzz_7Ld-1" value="server:ServerHandler" style="swimlane;fontStyle=5;align=center;verticalAlign=top;childLayout=stackLayout;horizontal=1;startSize=26;horizontalStack=0;resizeParent=1;resizeLast=0;collapsible=1;marginBottom=0;rounded=0;shadow=0;strokeWidth=1;" parent="1" vertex="1">
          <mxGeometry x="1800" y="-1120" width="520" height="280" as="geometry">
            <mxRectangle x="340" y="380" width="170" height="26" as="alternateBounds" />
          </mxGeometry>
        </mxCell>
        <mxCell id="nUNQY4lH1AvuRWzz_7Ld-2" value="- ip : &quot;1.2.3.4&quot;" style="text;align=left;verticalAlign=top;spacingLeft=4;spacingRight=4;overflow=hidden;rotatable=0;points=[[0,0.5],[1,0.5]];portConstraint=eastwest;" parent="nUNQY4lH1AvuRWzz_7Ld-1" vertex="1">
          <mxGeometry y="26" width="520" height="26" as="geometry" />
        </mxCell>
        <mxCell id="nUNQY4lH1AvuRWzz_7Ld-3" value="- port : 5000" style="text;align=left;verticalAlign=top;spacingLeft=4;spacingRight=4;overflow=hidden;rotatable=0;points=[[0,0.5],[1,0.5]];portConstraint=eastwest;" parent="nUNQY4lH1AvuRWzz_7Ld-1" vertex="1">
          <mxGeometry y="52" width="520" height="26" as="geometry" />
        </mxCell>
        <mxCell id="nUNQY4lH1AvuRWzz_7Ld-4" value="- board : board" style="text;align=left;verticalAlign=top;spacingLeft=4;spacingRight=4;overflow=hidden;rotatable=0;points=[[0,0.5],[1,0.5]];portConstraint=eastwest;" parent="nUNQY4lH1AvuRWzz_7Ld-1" vertex="1">
          <mxGeometry y="78" width="520" height="26" as="geometry" />
        </mxCell>
        <mxCell id="nUNQY4lH1AvuRWzz_7Ld-5" value="- user_name : &quot;Foo&quot;" style="text;align=left;verticalAlign=top;spacingLeft=4;spacingRight=4;overflow=hidden;rotatable=0;points=[[0,0.5],[1,0.5]];portConstraint=eastwest;" parent="nUNQY4lH1AvuRWzz_7Ld-1" vertex="1">
          <mxGeometry y="104" width="520" height="26" as="geometry" />
        </mxCell>
        <mxCell id="nUNQY4lH1AvuRWzz_7Ld-6" value="- game_id : 123456" style="text;align=left;verticalAlign=top;spacingLeft=4;spacingRight=4;overflow=hidden;rotatable=0;points=[[0,0.5],[1,0.5]];portConstraint=eastwest;" parent="nUNQY4lH1AvuRWzz_7Ld-1" vertex="1">
          <mxGeometry y="130" width="520" height="26" as="geometry" />
        </mxCell>
        <mxCell id="nUNQY4lH1AvuRWzz_7Ld-7" value="- first_call_made : True" style="text;align=left;verticalAlign=top;spacingLeft=4;spacingRight=4;overflow=hidden;rotatable=0;points=[[0,0.5],[1,0.5]];portConstraint=eastwest;" parent="nUNQY4lH1AvuRWzz_7Ld-1" vertex="1">
          <mxGeometry y="156" width="520" height="26" as="geometry" />
        </mxCell>
        <mxCell id="nUNQY4lH1AvuRWzz_7Ld-8" value="" style="line;html=1;strokeWidth=1;align=left;verticalAlign=middle;spacingTop=-1;spacingLeft=3;spacingRight=3;rotatable=0;labelPosition=right;points=[];portConstraint=eastwest;" parent="nUNQY4lH1AvuRWzz_7Ld-1" vertex="1">
          <mxGeometry y="182" width="520" height="8" as="geometry" />
        </mxCell>
        <mxCell id="nUNQY4lH1AvuRWzz_7Ld-9" value="+ convert_guess_to_string () : String" style="text;align=left;verticalAlign=top;spacingLeft=4;spacingRight=4;overflow=hidden;rotatable=0;points=[[0,0.5],[1,0.5]];portConstraint=eastwest;" parent="nUNQY4lH1AvuRWzz_7Ld-1" vertex="1">
          <mxGeometry y="190" width="520" height="26" as="geometry" />
        </mxCell>
        <mxCell id="nUNQY4lH1AvuRWzz_7Ld-10" value="+ server_handler_send_json () : Response" style="text;align=left;verticalAlign=top;spacingLeft=4;spacingRight=4;overflow=hidden;rotatable=0;points=[[0,0.5],[1,0.5]];portConstraint=eastwest;" parent="nUNQY4lH1AvuRWzz_7Ld-1" vertex="1">
          <mxGeometry y="216" width="520" height="26" as="geometry" />
        </mxCell>
        <mxCell id="nUNQY4lH1AvuRWzz_7Ld-11" value="+ handle_response ( response : Response ) : void" style="text;align=left;verticalAlign=top;spacingLeft=4;spacingRight=4;overflow=hidden;rotatable=0;points=[[0,0.5],[1,0.5]];portConstraint=eastwest;" parent="nUNQY4lH1AvuRWzz_7Ld-1" vertex="1">
          <mxGeometry y="242" width="520" height="26" as="geometry" />
        </mxCell>
        <mxCell id="XPVH49KEsoUfNuo3gavF-1" value="board:Board" style="swimlane;fontStyle=5;align=center;verticalAlign=top;childLayout=stackLayout;horizontal=1;startSize=26;horizontalStack=0;resizeParent=1;resizeLast=0;collapsible=1;marginBottom=0;rounded=0;shadow=0;strokeWidth=1;" parent="1" vertex="1">
          <mxGeometry x="1430" y="-810" width="310" height="250" as="geometry">
            <mxRectangle x="130" y="380" width="160" height="26" as="alternateBounds" />
          </mxGeometry>
        </mxCell>
        <mxCell id="XPVH49KEsoUfNuo3gavF-2" value="- code_max_length : 4" style="text;align=left;verticalAlign=top;spacingLeft=4;spacingRight=4;overflow=hidden;rotatable=0;points=[[0,0.5],[1,0.5]];portConstraint=eastwest;" parent="XPVH49KEsoUfNuo3gavF-1" vertex="1">
          <mxGeometry y="26" width="310" height="26" as="geometry" />
        </mxCell>
        <mxCell id="XPVH49KEsoUfNuo3gavF-3" value="- max_attempts : 10" style="text;align=left;verticalAlign=top;spacingLeft=4;spacingRight=4;overflow=hidden;rotatable=0;points=[[0,0.5],[1,0.5]];portConstraint=eastwest;rounded=0;shadow=0;html=0;" parent="XPVH49KEsoUfNuo3gavF-1" vertex="1">
          <mxGeometry y="52" width="310" height="26" as="geometry" />
        </mxCell>
        <mxCell id="XPVH49KEsoUfNuo3gavF-4" value="- attempt_counter :Â 2" style="text;align=left;verticalAlign=top;spacingLeft=4;spacingRight=4;overflow=hidden;rotatable=0;points=[[0,0.5],[1,0.5]];portConstraint=eastwest;rounded=0;shadow=0;html=0;" parent="XPVH49KEsoUfNuo3gavF-1" vertex="1">
          <mxGeometry y="78" width="310" height="26" as="geometry" />
        </mxCell>
        <mxCell id="XPVH49KEsoUfNuo3gavF-5" value="- guessed_code : guess[ s(1), s(2), s(3), s(4) ]" style="text;align=left;verticalAlign=top;spacingLeft=4;spacingRight=4;overflow=hidden;rotatable=0;points=[[0,0.5],[1,0.5]];portConstraint=eastwest;rounded=0;shadow=0;html=0;" parent="XPVH49KEsoUfNuo3gavF-1" vertex="1">
          <mxGeometry y="104" width="310" height="26" as="geometry" />
        </mxCell>
        <mxCell id="XPVH49KEsoUfNuo3gavF-6" value="- code : code[ s(2), s(2), s(2), s(2) ]" style="text;align=left;verticalAlign=top;spacingLeft=4;spacingRight=4;overflow=hidden;rotatable=0;points=[[0,0.5],[1,0.5]];portConstraint=eastwest;rounded=0;shadow=0;html=0;" parent="XPVH49KEsoUfNuo3gavF-1" vertex="1">
          <mxGeometry y="130" width="310" height="26" as="geometry" />
        </mxCell>
        <mxCell id="XPVH49KEsoUfNuo3gavF-7" value="- feedback : feedback[s(8)]" style="text;align=left;verticalAlign=top;spacingLeft=4;spacingRight=4;overflow=hidden;rotatable=0;points=[[0,0.5],[1,0.5]];portConstraint=eastwest;rounded=0;shadow=0;html=0;" parent="XPVH49KEsoUfNuo3gavF-1" vertex="1">
          <mxGeometry y="156" width="310" height="26" as="geometry" />
        </mxCell>
        <mxCell id="XPVH49KEsoUfNuo3gavF-8" value="- game_mode : Role.Rater" style="text;align=left;verticalAlign=top;spacingLeft=4;spacingRight=4;overflow=hidden;rotatable=0;points=[[0,0.5],[1,0.5]];portConstraint=eastwest;rounded=0;shadow=0;html=0;" parent="XPVH49KEsoUfNuo3gavF-1" vertex="1">
          <mxGeometry y="182" width="310" height="26" as="geometry" />
        </mxCell>
        <mxCell id="XPVH49KEsoUfNuo3gavF-11" value="" style="line;html=1;strokeWidth=1;align=left;verticalAlign=middle;spacingTop=-1;spacingLeft=3;spacingRight=3;rotatable=0;labelPosition=right;points=[];portConstraint=eastwest;" parent="XPVH49KEsoUfNuo3gavF-1" vertex="1">
          <mxGeometry y="208" width="310" height="8" as="geometry" />
        </mxCell>
        <mxCell id="5dgfC-dnQEsc_uYfHZti-1" value="+ create_board_stone_array (values : String ) : Stone[]" style="text;align=left;verticalAlign=top;spacingLeft=4;spacingRight=4;overflow=hidden;rotatable=0;points=[[0,0.5],[1,0.5]];portConstraint=eastwest;fontStyle=4" parent="XPVH49KEsoUfNuo3gavF-1" vertex="1">
          <mxGeometry y="216" width="310" height="26" as="geometry" />
        </mxCell>
        <mxCell id="uXuXJESQKgpOxpkzYa3M-1" value="foo:User" style="swimlane;fontStyle=5;align=center;verticalAlign=top;childLayout=stackLayout;horizontal=1;startSize=26;horizontalStack=0;resizeParent=1;resizeLast=0;collapsible=1;marginBottom=0;rounded=0;shadow=0;strokeWidth=1;" parent="1" vertex="1">
          <mxGeometry x="1190" y="-810" width="200" height="200" as="geometry">
            <mxRectangle x="340" y="380" width="170" height="26" as="alternateBounds" />
          </mxGeometry>
        </mxCell>
        <mxCell id="uXuXJESQKgpOxpkzYa3M-2" value="- name : &quot;Foo&quot;" style="text;align=left;verticalAlign=top;spacingLeft=4;spacingRight=4;overflow=hidden;rotatable=0;points=[[0,0.5],[1,0.5]];portConstraint=eastwest;" parent="uXuXJESQKgpOxpkzYa3M-1" vertex="1">
          <mxGeometry y="26" width="200" height="26" as="geometry" />
        </mxCell>
        <mxCell id="uXuXJESQKgpOxpkzYa3M-3" value="- role : Role.Rater" style="text;align=left;verticalAlign=top;spacingLeft=4;spacingRight=4;overflow=hidden;rotatable=0;points=[[0,0.5],[1,0.5]];portConstraint=eastwest;" parent="uXuXJESQKgpOxpkzYa3M-1" vertex="1">
          <mxGeometry y="52" width="200" height="26" as="geometry" />
        </mxCell>
        <mxCell id="uXuXJESQKgpOxpkzYa3M-4" value="" style="line;html=1;strokeWidth=1;align=left;verticalAlign=middle;spacingTop=-1;spacingLeft=3;spacingRight=3;rotatable=0;labelPosition=right;points=[];portConstraint=eastwest;" parent="uXuXJESQKgpOxpkzYa3M-1" vertex="1">
          <mxGeometry y="78" width="200" height="8" as="geometry" />
        </mxCell>
        <mxCell id="uXuXJESQKgpOxpkzYa3M-5" value="+ name() : String" style="text;align=left;verticalAlign=top;spacingLeft=4;spacingRight=4;overflow=hidden;rotatable=0;points=[[0,0.5],[1,0.5]];portConstraint=eastwest;" parent="uXuXJESQKgpOxpkzYa3M-1" vertex="1">
          <mxGeometry y="86" width="200" height="26" as="geometry" />
        </mxCell>
        <mxCell id="uXuXJESQKgpOxpkzYa3M-6" value="+ name.setter(value : String) : void" style="text;align=left;verticalAlign=top;spacingLeft=4;spacingRight=4;overflow=hidden;rotatable=0;points=[[0,0.5],[1,0.5]];portConstraint=eastwest;" parent="uXuXJESQKgpOxpkzYa3M-1" vertex="1">
          <mxGeometry y="112" width="200" height="26" as="geometry" />
        </mxCell>
        <mxCell id="uXuXJESQKgpOxpkzYa3M-7" value="+ role() : Role" style="text;align=left;verticalAlign=top;spacingLeft=4;spacingRight=4;overflow=hidden;rotatable=0;points=[[0,0.5],[1,0.5]];portConstraint=eastwest;" parent="uXuXJESQKgpOxpkzYa3M-1" vertex="1">
          <mxGeometry y="138" width="200" height="26" as="geometry" />
        </mxCell>
        <mxCell id="uXuXJESQKgpOxpkzYa3M-8" value="+ role.setter(role : Role) : void" style="text;align=left;verticalAlign=top;spacingLeft=4;spacingRight=4;overflow=hidden;rotatable=0;points=[[0,0.5],[1,0.5]];portConstraint=eastwest;" parent="uXuXJESQKgpOxpkzYa3M-1" vertex="1">
          <mxGeometry y="164" width="200" height="26" as="geometry" />
        </mxCell>
        <mxCell id="fsdTuqIgzPmC5Hz3-l9X-4" style="edgeStyle=orthogonalEdgeStyle;rounded=0;orthogonalLoop=1;jettySize=auto;html=1;exitX=0.25;exitY=1;exitDx=0;exitDy=0;entryX=1;entryY=0.25;entryDx=0;entryDy=0;endArrow=classic;endFill=1;" parent="1" source="nUNQY4lH1AvuRWzz_7Ld-1" target="XPVH49KEsoUfNuo3gavF-1" edge="1">
          <mxGeometry relative="1" as="geometry">
            <mxPoint x="1950" y="-700" as="sourcePoint" />
          </mxGeometry>
        </mxCell>
        <mxCell id="5dgfC-dnQEsc_uYfHZti-2" value="schreibt erhaltenes Feedback" style="edgeLabel;html=1;align=center;verticalAlign=middle;resizable=0;points=[];" parent="fsdTuqIgzPmC5Hz3-l9X-4" vertex="1" connectable="0">
          <mxGeometry x="0.3926" y="3" relative="1" as="geometry">
            <mxPoint x="25" as="offset" />
          </mxGeometry>
        </mxCell>
        <mxCell id="fsdTuqIgzPmC5Hz3-l9X-3" style="edgeStyle=orthogonalEdgeStyle;rounded=0;orthogonalLoop=1;jettySize=auto;html=1;exitX=1;exitY=0.5;exitDx=0;exitDy=0;entryX=0;entryY=0.5;entryDx=0;entryDy=0;dashed=1;endArrow=open;endFill=0;" parent="1" target="nUNQY4lH1AvuRWzz_7Ld-6" edge="1">
          <mxGeometry relative="1" as="geometry">
            <mxPoint x="1740" y="-967" as="sourcePoint" />
          </mxGeometry>
        </mxCell>
        <mxCell id="5dgfC-dnQEsc_uYfHZti-5" value="prÃ¼ft Eingaben" style="edgeStyle=orthogonalEdgeStyle;rounded=0;orthogonalLoop=1;jettySize=auto;html=1;exitX=0;exitY=0.5;exitDx=0;exitDy=0;entryX=0.75;entryY=0;entryDx=0;entryDy=0;endArrow=openThin;endFill=0;" parent="1" source="rcQOH5ZH7XJkh9ToVAs4-4" target="DZFzH0clIZ-gT7l7dqrf-1" edge="1">
          <mxGeometry relative="1" as="geometry">
            <Array as="points">
              <mxPoint x="730" y="-1027" />
            </Array>
          </mxGeometry>
        </mxCell>
      </root>
    </mxGraphModel>
  </diagram>
  <diagram id="ru8cEBeqUb5KBqRj9QTG" name="Feindiagramm_BL">
    <mxGraphModel dx="4107" dy="2015" grid="1" gridSize="10" guides="1" tooltips="1" connect="1" arrows="1" fold="1" page="1" pageScale="1" pageWidth="1169" pageHeight="827" math="0" shadow="0">
      <root>
        <mxCell id="0" />
        <mxCell id="1" parent="0" />
        <mxCell id="zlSE3J9hhCGDOPV4P5my-1" value="BusinessLogic" style="shape=umlFrame;whiteSpace=wrap;html=1;width=110;height=30;" parent="1" vertex="1">
          <mxGeometry x="-650" y="-290" width="2660" height="880" as="geometry" />
        </mxCell>
        <mxCell id="ZPwmua-Yqa8nRkXLpiFK-3" style="edgeStyle=orthogonalEdgeStyle;rounded=0;orthogonalLoop=1;jettySize=auto;html=1;exitX=0.5;exitY=1;exitDx=0;exitDy=0;entryX=0.5;entryY=0;entryDx=0;entryDy=0;dashed=1;endArrow=openThin;endFill=0;" parent="1" source="zlSE3J9hhCGDOPV4P5my-2" target="ZPwmua-Yqa8nRkXLpiFK-1" edge="1">
          <mxGeometry relative="1" as="geometry" />
        </mxCell>
        <mxCell id="zlSE3J9hhCGDOPV4P5my-2" value="NPC" style="swimlane;fontStyle=1;align=center;verticalAlign=top;childLayout=stackLayout;horizontal=1;startSize=26;horizontalStack=0;resizeParent=1;resizeLast=0;collapsible=1;marginBottom=0;rounded=0;shadow=0;strokeWidth=1;" parent="1" vertex="1">
          <mxGeometry x="960" y="-120" width="440" height="410" as="geometry">
            <mxRectangle x="340" y="380" width="170" height="26" as="alternateBounds" />
          </mxGeometry>
        </mxCell>
        <mxCell id="zlSE3J9hhCGDOPV4P5my-3" value="- board : Board" style="text;align=left;verticalAlign=top;spacingLeft=4;spacingRight=4;overflow=hidden;rotatable=0;points=[[0,0.5],[1,0.5]];portConstraint=eastwest;" parent="zlSE3J9hhCGDOPV4P5my-2" vertex="1">
          <mxGeometry y="26" width="440" height="26" as="geometry" />
        </mxCell>
        <mxCell id="zlSE3J9hhCGDOPV4P5my-4" value="- role : Role" style="text;align=left;verticalAlign=top;spacingLeft=4;spacingRight=4;overflow=hidden;rotatable=0;points=[[0,0.5],[1,0.5]];portConstraint=eastwest;" parent="zlSE3J9hhCGDOPV4P5my-2" vertex="1">
          <mxGeometry y="52" width="440" height="26" as="geometry" />
        </mxCell>
        <mxCell id="zlSE3J9hhCGDOPV4P5my-5" value="- permutations : String []" style="text;align=left;verticalAlign=top;spacingLeft=4;spacingRight=4;overflow=hidden;rotatable=0;points=[[0,0.5],[1,0.5]];portConstraint=eastwest;" parent="zlSE3J9hhCGDOPV4P5my-2" vertex="1">
          <mxGeometry y="78" width="440" height="26" as="geometry" />
        </mxCell>
        <mxCell id="zlSE3J9hhCGDOPV4P5my-6" value="" style="line;html=1;strokeWidth=1;align=left;verticalAlign=middle;spacingTop=-1;spacingLeft=3;spacingRight=3;rotatable=0;labelPosition=right;points=[];portConstraint=eastwest;" parent="zlSE3J9hhCGDOPV4P5my-2" vertex="1">
          <mxGeometry y="104" width="440" height="8" as="geometry" />
        </mxCell>
        <mxCell id="zlSE3J9hhCGDOPV4P5my-7" value="+ generate_all_combinations(max_code_length : int, max_colour : int) : String []" style="text;align=left;verticalAlign=top;spacingLeft=4;spacingRight=4;overflow=hidden;rotatable=0;points=[[0,0.5],[1,0.5]];portConstraint=eastwest;" parent="zlSE3J9hhCGDOPV4P5my-2" vertex="1">
          <mxGeometry y="112" width="440" height="26" as="geometry" />
        </mxCell>
        <mxCell id="zlSE3J9hhCGDOPV4P5my-8" value="+ opposite_role () : Role" style="text;align=left;verticalAlign=top;spacingLeft=4;spacingRight=4;overflow=hidden;rotatable=0;points=[[0,0.5],[1,0.5]];portConstraint=eastwest;" parent="zlSE3J9hhCGDOPV4P5my-2" vertex="1">
          <mxGeometry y="138" width="440" height="26" as="geometry" />
        </mxCell>
        <mxCell id="zlSE3J9hhCGDOPV4P5my-9" value="+ update (board) : void" style="text;align=left;verticalAlign=top;spacingLeft=4;spacingRight=4;overflow=hidden;rotatable=0;points=[[0,0.5],[1,0.5]];portConstraint=eastwest;" parent="zlSE3J9hhCGDOPV4P5my-2" vertex="1">
          <mxGeometry y="164" width="440" height="26" as="geometry" />
        </mxCell>
        <mxCell id="zlSE3J9hhCGDOPV4P5my-10" value="+ generate_code () : void" style="text;align=left;verticalAlign=top;spacingLeft=4;spacingRight=4;overflow=hidden;rotatable=0;points=[[0,0.5],[1,0.5]];portConstraint=eastwest;" parent="zlSE3J9hhCGDOPV4P5my-2" vertex="1">
          <mxGeometry y="190" width="440" height="26" as="geometry" />
        </mxCell>
        <mxCell id="zlSE3J9hhCGDOPV4P5my-11" value="+ generate_feedback () : void" style="text;align=left;verticalAlign=top;spacingLeft=4;spacingRight=4;overflow=hidden;rotatable=0;points=[[0,0.5],[1,0.5]];portConstraint=eastwest;" parent="zlSE3J9hhCGDOPV4P5my-2" vertex="1">
          <mxGeometry y="216" width="440" height="26" as="geometry" />
        </mxCell>
        <mxCell id="zlSE3J9hhCGDOPV4P5my-12" value="+ generate_permutations : void" style="text;align=left;verticalAlign=top;spacingLeft=4;spacingRight=4;overflow=hidden;rotatable=0;points=[[0,0.5],[1,0.5]];portConstraint=eastwest;" parent="zlSE3J9hhCGDOPV4P5my-2" vertex="1">
          <mxGeometry y="242" width="440" height="26" as="geometry" />
        </mxCell>
        <mxCell id="zlSE3J9hhCGDOPV4P5my-13" value="+ variation_feedback (solution : String) : void" style="text;align=left;verticalAlign=top;spacingLeft=4;spacingRight=4;overflow=hidden;rotatable=0;points=[[0,0.5],[1,0.5]];portConstraint=eastwest;" parent="zlSE3J9hhCGDOPV4P5my-2" vertex="1">
          <mxGeometry y="268" width="440" height="26" as="geometry" />
        </mxCell>
        <mxCell id="zlSE3J9hhCGDOPV4P5my-14" value="+ calculate_nk_value (guess : String) :Â  int" style="text;align=left;verticalAlign=top;spacingLeft=4;spacingRight=4;overflow=hidden;rotatable=0;points=[[0,0.5],[1,0.5]];portConstraint=eastwest;" parent="zlSE3J9hhCGDOPV4P5my-2" vertex="1">
          <mxGeometry y="294" width="440" height="26" as="geometry" />
        </mxCell>
        <mxCell id="zlSE3J9hhCGDOPV4P5my-15" value="+ count_dopplungen (guess : String) : int" style="text;align=left;verticalAlign=top;spacingLeft=4;spacingRight=4;overflow=hidden;rotatable=0;points=[[0,0.5],[1,0.5]];portConstraint=eastwest;" parent="zlSE3J9hhCGDOPV4P5my-2" vertex="1">
          <mxGeometry y="320" width="440" height="26" as="geometry" />
        </mxCell>
        <mxCell id="zlSE3J9hhCGDOPV4P5my-16" value="+ choose_best_guess (permutations : String[]) : String" style="text;align=left;verticalAlign=top;spacingLeft=4;spacingRight=4;overflow=hidden;rotatable=0;points=[[0,0.5],[1,0.5]];portConstraint=eastwest;" parent="zlSE3J9hhCGDOPV4P5my-2" vertex="1">
          <mxGeometry y="346" width="440" height="26" as="geometry" />
        </mxCell>
        <mxCell id="zlSE3J9hhCGDOPV4P5my-17" value="+ generate_guess () : void" style="text;align=left;verticalAlign=top;spacingLeft=4;spacingRight=4;overflow=hidden;rotatable=0;points=[[0,0.5],[1,0.5]];portConstraint=eastwest;" parent="zlSE3J9hhCGDOPV4P5my-2" vertex="1">
          <mxGeometry y="372" width="440" height="26" as="geometry" />
        </mxCell>
        <mxCell id="zlSE3J9hhCGDOPV4P5my-18" style="edgeStyle=orthogonalEdgeStyle;rounded=0;orthogonalLoop=1;jettySize=auto;html=1;exitX=0.25;exitY=0;exitDx=0;exitDy=0;entryX=0.5;entryY=1;entryDx=0;entryDy=0;entryPerimeter=0;dashed=1;endArrow=open;endFill=0;" parent="1" source="zlSE3J9hhCGDOPV4P5my-20" target="zlSE3J9hhCGDOPV4P5my-85" edge="1">
          <mxGeometry relative="1" as="geometry" />
        </mxCell>
        <mxCell id="zlSE3J9hhCGDOPV4P5my-19" style="edgeStyle=orthogonalEdgeStyle;rounded=0;orthogonalLoop=1;jettySize=auto;html=1;exitX=0.75;exitY=0;exitDx=0;exitDy=0;entryX=0;entryY=0.5;entryDx=0;entryDy=0;dashed=1;endArrow=open;endFill=0;" parent="1" source="zlSE3J9hhCGDOPV4P5my-20" target="zlSE3J9hhCGDOPV4P5my-53" edge="1">
          <mxGeometry relative="1" as="geometry" />
        </mxCell>
        <mxCell id="ZPwmua-Yqa8nRkXLpiFK-5" style="edgeStyle=orthogonalEdgeStyle;rounded=0;orthogonalLoop=1;jettySize=auto;html=1;exitX=0.75;exitY=1;exitDx=0;exitDy=0;entryX=0.5;entryY=0;entryDx=0;entryDy=0;dashed=1;endArrow=openThin;endFill=0;" parent="1" source="zlSE3J9hhCGDOPV4P5my-20" target="kxm0GbXFzBx9KOaNjG-1-2" edge="1">
          <mxGeometry relative="1" as="geometry" />
        </mxCell>
        <mxCell id="ZPwmua-Yqa8nRkXLpiFK-6" style="edgeStyle=orthogonalEdgeStyle;rounded=0;orthogonalLoop=1;jettySize=auto;html=1;exitX=0.5;exitY=1;exitDx=0;exitDy=0;entryX=0.5;entryY=0;entryDx=0;entryDy=0;dashed=1;endArrow=openThin;endFill=0;" parent="1" source="zlSE3J9hhCGDOPV4P5my-20" target="kxm0GbXFzBx9KOaNjG-1-1" edge="1">
          <mxGeometry relative="1" as="geometry" />
        </mxCell>
        <mxCell id="ZPwmua-Yqa8nRkXLpiFK-10" style="edgeStyle=orthogonalEdgeStyle;rounded=0;orthogonalLoop=1;jettySize=auto;html=1;exitX=0.5;exitY=0;exitDx=0;exitDy=0;entryX=0.5;entryY=1;entryDx=0;entryDy=0;endArrow=openThin;endFill=0;dashed=1;" parent="1" source="zlSE3J9hhCGDOPV4P5my-20" target="ZPwmua-Yqa8nRkXLpiFK-9" edge="1">
          <mxGeometry relative="1" as="geometry" />
        </mxCell>
        <mxCell id="zlSE3J9hhCGDOPV4P5my-20" value="GameController" style="swimlane;fontStyle=1;align=center;verticalAlign=top;childLayout=stackLayout;horizontal=1;startSize=26;horizontalStack=0;resizeParent=1;resizeLast=0;collapsible=1;marginBottom=0;rounded=0;shadow=0;strokeWidth=1;" parent="1" vertex="1">
          <mxGeometry x="20" y="-120" width="860" height="680" as="geometry">
            <mxRectangle x="340" y="380" width="170" height="26" as="alternateBounds" />
          </mxGeometry>
        </mxCell>
        <mxCell id="zlSE3J9hhCGDOPV4P5my-21" value="- validator: Validator" style="text;align=left;verticalAlign=top;spacingLeft=4;spacingRight=4;overflow=hidden;rotatable=0;points=[[0,0.5],[1,0.5]];portConstraint=eastwest;" parent="zlSE3J9hhCGDOPV4P5my-20" vertex="1">
          <mxGeometry y="26" width="860" height="26" as="geometry" />
        </mxCell>
        <mxCell id="zlSE3J9hhCGDOPV4P5my-22" value="- terminal : Terminal" style="text;align=left;verticalAlign=top;spacingLeft=4;spacingRight=4;overflow=hidden;rotatable=0;points=[[0,0.5],[1,0.5]];portConstraint=eastwest;" parent="zlSE3J9hhCGDOPV4P5my-20" vertex="1">
          <mxGeometry y="52" width="860" height="26" as="geometry" />
        </mxCell>
        <mxCell id="zlSE3J9hhCGDOPV4P5my-23" value="- user_name : String" style="text;align=left;verticalAlign=top;spacingLeft=4;spacingRight=4;overflow=hidden;rotatable=0;points=[[0,0.5],[1,0.5]];portConstraint=eastwest;" parent="zlSE3J9hhCGDOPV4P5my-20" vertex="1">
          <mxGeometry y="78" width="860" height="26" as="geometry" />
        </mxCell>
        <mxCell id="zlSE3J9hhCGDOPV4P5my-24" value="- npc_feedback_error : NPCFeedbackError" style="text;align=left;verticalAlign=top;spacingLeft=4;spacingRight=4;overflow=hidden;rotatable=0;points=[[0,0.5],[1,0.5]];portConstraint=eastwest;" parent="zlSE3J9hhCGDOPV4P5my-20" vertex="1">
          <mxGeometry y="104" width="860" height="26" as="geometry" />
        </mxCell>
        <mxCell id="zlSE3J9hhCGDOPV4P5my-25" value="" style="line;html=1;strokeWidth=1;align=left;verticalAlign=middle;spacingTop=-1;spacingLeft=3;spacingRight=3;rotatable=0;labelPosition=right;points=[];portConstraint=eastwest;" parent="zlSE3J9hhCGDOPV4P5my-20" vertex="1">
          <mxGeometry y="130" width="860" height="8" as="geometry" />
        </mxCell>
        <mxCell id="zlSE3J9hhCGDOPV4P5my-26" value="+ command_checker (user_input : String, terminal : View, validator : Validator, npc_feedback_error : NPCFeedbackError, user_name : String)" style="text;align=left;verticalAlign=top;spacingLeft=4;spacingRight=4;overflow=hidden;rotatable=0;points=[[0,0.5],[1,0.5]];portConstraint=eastwest;fontStyle=4" parent="zlSE3J9hhCGDOPV4P5my-20" vertex="1">
          <mxGeometry y="138" width="860" height="26" as="geometry" />
        </mxCell>
        <mxCell id="zlSE3J9hhCGDOPV4P5my-27" value="+ user_help (view : View) : void" style="text;align=left;verticalAlign=top;spacingLeft=4;spacingRight=4;overflow=hidden;rotatable=0;points=[[0,0.5],[1,0.5]];portConstraint=eastwest;fontStyle=4" parent="zlSE3J9hhCGDOPV4P5my-20" vertex="1">
          <mxGeometry y="164" width="860" height="26" as="geometry" />
        </mxCell>
        <mxCell id="zlSE3J9hhCGDOPV4P5my-28" value="+ reset ( validator : Validator, terminal : View, npc_feedback_error : NPCFeedbackError, user_input : String) : GameController" style="text;align=left;verticalAlign=top;spacingLeft=4;spacingRight=4;overflow=hidden;rotatable=0;points=[[0,0.5],[1,0.5]];portConstraint=eastwest;fontStyle=4" parent="zlSE3J9hhCGDOPV4P5my-20" vertex="1">
          <mxGeometry y="190" width="860" height="26" as="geometry" />
        </mxCell>
        <mxCell id="zlSE3J9hhCGDOPV4P5my-29" value="+ quit_game () : void" style="text;align=left;verticalAlign=top;spacingLeft=4;spacingRight=4;overflow=hidden;rotatable=0;points=[[0,0.5],[1,0.5]];portConstraint=eastwest;fontStyle=4" parent="zlSE3J9hhCGDOPV4P5my-20" vertex="1">
          <mxGeometry y="216" width="860" height="26" as="geometry" />
        </mxCell>
        <mxCell id="zlSE3J9hhCGDOPV4P5my-30" value="+ setup_game () : void" style="text;align=left;verticalAlign=top;spacingLeft=4;spacingRight=4;overflow=hidden;rotatable=0;points=[[0,0.5],[1,0.5]];portConstraint=eastwest;" parent="zlSE3J9hhCGDOPV4P5my-20" vertex="1">
          <mxGeometry y="242" width="860" height="26" as="geometry" />
        </mxCell>
        <mxCell id="zlSE3J9hhCGDOPV4P5my-31" value="+ choose_game_mode (user : User) : void" style="text;align=left;verticalAlign=top;spacingLeft=4;spacingRight=4;overflow=hidden;rotatable=0;points=[[0,0.5],[1,0.5]];portConstraint=eastwest;" parent="zlSE3J9hhCGDOPV4P5my-20" vertex="1">
          <mxGeometry y="268" width="860" height="26" as="geometry" />
        </mxCell>
        <mxCell id="zlSE3J9hhCGDOPV4P5my-32" value="+ setup_network_mode () : NetworkMode" style="text;align=left;verticalAlign=top;spacingLeft=4;spacingRight=4;overflow=hidden;rotatable=0;points=[[0,0.5],[1,0.5]];portConstraint=eastwest;" parent="zlSE3J9hhCGDOPV4P5my-20" vertex="1">
          <mxGeometry y="294" width="860" height="26" as="geometry" />
        </mxCell>
        <mxCell id="zlSE3J9hhCGDOPV4P5my-33" value="+ choose_npc_rater () : int" style="text;align=left;verticalAlign=top;spacingLeft=4;spacingRight=4;overflow=hidden;rotatable=0;points=[[0,0.5],[1,0.5]];portConstraint=eastwest;" parent="zlSE3J9hhCGDOPV4P5my-20" vertex="1">
          <mxGeometry y="320" width="860" height="26" as="geometry" />
        </mxCell>
        <mxCell id="zlSE3J9hhCGDOPV4P5my-34" value="+ choose_user_name (user : User) : void" style="text;align=left;verticalAlign=top;spacingLeft=4;spacingRight=4;overflow=hidden;rotatable=0;points=[[0,0.5],[1,0.5]];portConstraint=eastwest;" parent="zlSE3J9hhCGDOPV4P5my-20" vertex="1">
          <mxGeometry y="346" width="860" height="26" as="geometry" />
        </mxCell>
        <mxCell id="zlSE3J9hhCGDOPV4P5my-35" value="+ choose_max_colour () : int" style="text;align=left;verticalAlign=top;spacingLeft=4;spacingRight=4;overflow=hidden;rotatable=0;points=[[0,0.5],[1,0.5]];portConstraint=eastwest;" parent="zlSE3J9hhCGDOPV4P5my-20" vertex="1">
          <mxGeometry y="372" width="860" height="26" as="geometry" />
        </mxCell>
        <mxCell id="zlSE3J9hhCGDOPV4P5my-36" value="+ get_user_input (prompt : Function, validation_function : Validator:Function) : String" style="text;align=left;verticalAlign=top;spacingLeft=4;spacingRight=4;overflow=hidden;rotatable=0;points=[[0,0.5],[1,0.5]];portConstraint=eastwest;" parent="zlSE3J9hhCGDOPV4P5my-20" vertex="1">
          <mxGeometry y="398" width="860" height="26" as="geometry" />
        </mxCell>
        <mxCell id="zlSE3J9hhCGDOPV4P5my-37" value="+ initialize_game ( network_mode : Int, network_config : NetworkMode, code_max_length : int, max_colours : int, user : User, npc_rater : Boolean) : void" style="text;align=left;verticalAlign=top;spacingLeft=4;spacingRight=4;overflow=hidden;rotatable=0;points=[[0,0.5],[1,0.5]];portConstraint=eastwest;" parent="zlSE3J9hhCGDOPV4P5my-20" vertex="1">
          <mxGeometry y="424" width="860" height="26" as="geometry" />
        </mxCell>
        <mxCell id="zlSE3J9hhCGDOPV4P5my-38" value="+ coder_game (role : Role, board : Board) : void" style="text;align=left;verticalAlign=top;spacingLeft=4;spacingRight=4;overflow=hidden;rotatable=0;points=[[0,0.5],[1,0.5]];portConstraint=eastwest;" parent="zlSE3J9hhCGDOPV4P5my-20" vertex="1">
          <mxGeometry y="450" width="860" height="26" as="geometry" />
        </mxCell>
        <mxCell id="zlSE3J9hhCGDOPV4P5my-39" value="+ set_initial_code (board : Board) : void" style="text;align=left;verticalAlign=top;spacingLeft=4;spacingRight=4;overflow=hidden;rotatable=0;points=[[0,0.5],[1,0.5]];portConstraint=eastwest;" parent="zlSE3J9hhCGDOPV4P5my-20" vertex="1">
          <mxGeometry y="476" width="860" height="26" as="geometry" />
        </mxCell>
        <mxCell id="zlSE3J9hhCGDOPV4P5my-40" value="+ get_valid_code_input ( board : Board, prompt : Function ) : void" style="text;align=left;verticalAlign=top;spacingLeft=4;spacingRight=4;overflow=hidden;rotatable=0;points=[[0,0.5],[1,0.5]];portConstraint=eastwest;" parent="zlSE3J9hhCGDOPV4P5my-20" vertex="1">
          <mxGeometry y="502" width="860" height="26" as="geometry" />
        </mxCell>
        <mxCell id="zlSE3J9hhCGDOPV4P5my-41" value="+ provide_feedback (board : Board) : void" style="text;align=left;verticalAlign=top;spacingLeft=4;spacingRight=4;overflow=hidden;rotatable=0;points=[[0,0.5],[1,0.5]];portConstraint=eastwest;" parent="zlSE3J9hhCGDOPV4P5my-20" vertex="1">
          <mxGeometry y="528" width="860" height="26" as="geometry" />
        </mxCell>
        <mxCell id="zlSE3J9hhCGDOPV4P5my-42" value="+ guesser_game ( role : Role, npc : NPC, board : Board, server : ServerHandler, npc_rater : Boolean ) : void" style="text;align=left;verticalAlign=top;spacingLeft=4;spacingRight=4;overflow=hidden;rotatable=0;points=[[0,0.5],[1,0.5]];portConstraint=eastwest;" parent="zlSE3J9hhCGDOPV4P5my-20" vertex="1">
          <mxGeometry y="554" width="860" height="26" as="geometry" />
        </mxCell>
        <mxCell id="zlSE3J9hhCGDOPV4P5my-43" value="+ start_online_game(server : ServerHandler) : void" style="text;align=left;verticalAlign=top;spacingLeft=4;spacingRight=4;overflow=hidden;rotatable=0;points=[[0,0.5],[1,0.5]];portConstraint=eastwest;fontStyle=4" parent="zlSE3J9hhCGDOPV4P5my-20" vertex="1">
          <mxGeometry y="580" width="860" height="26" as="geometry" />
        </mxCell>
        <mxCell id="zlSE3J9hhCGDOPV4P5my-44" value="+ perform_guesser_turn ( npc : NPC, board : Board, server : ServerHandler, npc_rater : Boolean, role : Role) : void" style="text;align=left;verticalAlign=top;spacingLeft=4;spacingRight=4;overflow=hidden;rotatable=0;points=[[0,0.5],[1,0.5]];portConstraint=eastwest;" parent="zlSE3J9hhCGDOPV4P5my-20" vertex="1">
          <mxGeometry y="606" width="860" height="26" as="geometry" />
        </mxCell>
        <mxCell id="zlSE3J9hhCGDOPV4P5my-45" value="+ check_game_end ( board : Board, role : Role ) : Boolean" style="text;align=left;verticalAlign=top;spacingLeft=4;spacingRight=4;overflow=hidden;rotatable=0;points=[[0,0.5],[1,0.5]];portConstraint=eastwest;" parent="zlSE3J9hhCGDOPV4P5my-20" vertex="1">
          <mxGeometry y="632" width="860" height="26" as="geometry" />
        </mxCell>
        <mxCell id="zlSE3J9hhCGDOPV4P5my-46" style="edgeStyle=orthogonalEdgeStyle;rounded=0;orthogonalLoop=1;jettySize=auto;html=1;exitX=1;exitY=0.5;exitDx=0;exitDy=0;exitPerimeter=0;entryX=0.5;entryY=0;entryDx=0;entryDy=0;endArrow=none;endFill=0;" parent="1" source="zlSE3J9hhCGDOPV4P5my-47" target="zlSE3J9hhCGDOPV4P5my-2" edge="1">
          <mxGeometry relative="1" as="geometry" />
        </mxCell>
        <mxCell id="zlSE3J9hhCGDOPV4P5my-47" value="" style="shape=providedRequiredInterface;html=1;verticalLabelPosition=bottom;sketch=0;rotation=90;" parent="1" vertex="1">
          <mxGeometry x="1170" y="-172.5" width="20" height="20" as="geometry" />
        </mxCell>
        <mxCell id="zlSE3J9hhCGDOPV4P5my-48" style="edgeStyle=orthogonalEdgeStyle;rounded=0;orthogonalLoop=1;jettySize=auto;html=1;exitX=0.5;exitY=1;exitDx=0;exitDy=0;entryX=0;entryY=0.5;entryDx=0;entryDy=0;entryPerimeter=0;endArrow=none;endFill=0;" parent="1" source="zlSE3J9hhCGDOPV4P5my-49" target="zlSE3J9hhCGDOPV4P5my-47" edge="1">
          <mxGeometry relative="1" as="geometry" />
        </mxCell>
        <mxCell id="zlSE3J9hhCGDOPV4P5my-49" value="Â«interfaceÂ»&lt;br&gt;&lt;b&gt;Observer&lt;/b&gt;" style="html=1;" parent="1" vertex="1">
          <mxGeometry x="1130" y="-244.5" width="110" height="50" as="geometry" />
        </mxCell>
        <mxCell id="zlSE3J9hhCGDOPV4P5my-50" value="&amp;lt;&amp;lt;DataType&amp;gt;&amp;gt;&lt;br&gt;&lt;b&gt;NetworkMode&lt;/b&gt;" style="swimlane;fontStyle=0;align=center;verticalAlign=top;childLayout=stackLayout;horizontal=1;startSize=40;horizontalStack=0;resizeParent=1;resizeParentMax=0;resizeLast=0;collapsible=0;marginBottom=0;html=1;" parent="1" vertex="1">
          <mxGeometry x="720" y="-260" width="160" height="130" as="geometry" />
        </mxCell>
        <mxCell id="zlSE3J9hhCGDOPV4P5my-51" value="+ network_mode : int&lt;br&gt;" style="text;html=1;strokeColor=none;fillColor=none;align=left;verticalAlign=middle;spacingLeft=4;spacingRight=4;overflow=hidden;rotatable=0;points=[[0,0.5],[1,0.5]];portConstraint=eastwest;" parent="zlSE3J9hhCGDOPV4P5my-50" vertex="1">
          <mxGeometry y="40" width="160" height="30" as="geometry" />
        </mxCell>
        <mxCell id="zlSE3J9hhCGDOPV4P5my-52" value="+ ip : String" style="text;html=1;strokeColor=none;fillColor=none;align=left;verticalAlign=middle;spacingLeft=4;spacingRight=4;overflow=hidden;rotatable=0;points=[[0,0.5],[1,0.5]];portConstraint=eastwest;" parent="zlSE3J9hhCGDOPV4P5my-50" vertex="1">
          <mxGeometry y="70" width="160" height="30" as="geometry" />
        </mxCell>
        <mxCell id="zlSE3J9hhCGDOPV4P5my-53" value="+ port : int" style="text;html=1;strokeColor=none;fillColor=none;align=left;verticalAlign=middle;spacingLeft=4;spacingRight=4;overflow=hidden;rotatable=0;points=[[0,0.5],[1,0.5]];portConstraint=eastwest;" parent="zlSE3J9hhCGDOPV4P5my-50" vertex="1">
          <mxGeometry y="100" width="160" height="30" as="geometry" />
        </mxCell>
        <mxCell id="zlSE3J9hhCGDOPV4P5my-54" style="edgeStyle=orthogonalEdgeStyle;rounded=0;orthogonalLoop=1;jettySize=auto;html=1;exitX=0.75;exitY=0;exitDx=0;exitDy=0;entryX=0.5;entryY=1;entryDx=0;entryDy=0;dashed=1;endArrow=open;endFill=0;" parent="1" source="zlSE3J9hhCGDOPV4P5my-55" target="zlSE3J9hhCGDOPV4P5my-70" edge="1">
          <mxGeometry relative="1" as="geometry" />
        </mxCell>
        <mxCell id="ZPwmua-Yqa8nRkXLpiFK-2" style="edgeStyle=orthogonalEdgeStyle;rounded=0;orthogonalLoop=1;jettySize=auto;html=1;exitX=0.25;exitY=1;exitDx=0;exitDy=0;entryX=0.75;entryY=0;entryDx=0;entryDy=0;dashed=1;endArrow=openThin;endFill=0;" parent="1" source="zlSE3J9hhCGDOPV4P5my-55" target="ZPwmua-Yqa8nRkXLpiFK-1" edge="1">
          <mxGeometry relative="1" as="geometry" />
        </mxCell>
        <mxCell id="A6XjG0teXkBw0d25oW9s-2" style="edgeStyle=orthogonalEdgeStyle;rounded=0;orthogonalLoop=1;jettySize=auto;html=1;exitX=0.5;exitY=1;exitDx=0;exitDy=0;entryX=0.5;entryY=0;entryDx=0;entryDy=0;dashed=1;endArrow=openThin;endFill=0;" parent="1" source="zlSE3J9hhCGDOPV4P5my-55" target="A6XjG0teXkBw0d25oW9s-1" edge="1">
          <mxGeometry relative="1" as="geometry" />
        </mxCell>
        <mxCell id="zlSE3J9hhCGDOPV4P5my-55" value="Validator" style="swimlane;fontStyle=1;align=center;verticalAlign=top;childLayout=stackLayout;horizontal=1;startSize=26;horizontalStack=0;resizeParent=1;resizeLast=0;collapsible=1;marginBottom=0;rounded=0;shadow=0;strokeWidth=1;" parent="1" vertex="1">
          <mxGeometry x="1460" y="-120" width="520" height="410" as="geometry">
            <mxRectangle x="340" y="380" width="170" height="26" as="alternateBounds" />
          </mxGeometry>
        </mxCell>
        <mxCell id="zlSE3J9hhCGDOPV4P5my-56" value="- rule_book : RuleBook" style="text;align=left;verticalAlign=top;spacingLeft=4;spacingRight=4;overflow=hidden;rotatable=0;points=[[0,0.5],[1,0.5]];portConstraint=eastwest;" parent="zlSE3J9hhCGDOPV4P5my-55" vertex="1">
          <mxGeometry y="26" width="520" height="26" as="geometry" />
        </mxCell>
        <mxCell id="zlSE3J9hhCGDOPV4P5my-57" value="- validation_error : ValidationError" style="text;align=left;verticalAlign=top;spacingLeft=4;spacingRight=4;overflow=hidden;rotatable=0;points=[[0,0.5],[1,0.5]];portConstraint=eastwest;" parent="zlSE3J9hhCGDOPV4P5my-55" vertex="1">
          <mxGeometry y="52" width="520" height="26" as="geometry" />
        </mxCell>
        <mxCell id="zlSE3J9hhCGDOPV4P5my-58" value="- game_state : GameState" style="text;align=left;verticalAlign=top;spacingLeft=4;spacingRight=4;overflow=hidden;rotatable=0;points=[[0,0.5],[1,0.5]];portConstraint=eastwest;" parent="zlSE3J9hhCGDOPV4P5my-55" vertex="1">
          <mxGeometry y="78" width="520" height="26" as="geometry" />
        </mxCell>
        <mxCell id="zlSE3J9hhCGDOPV4P5my-59" value="- role: Role" style="text;align=left;verticalAlign=top;spacingLeft=4;spacingRight=4;overflow=hidden;rotatable=0;points=[[0,0.5],[1,0.5]];portConstraint=eastwest;" parent="zlSE3J9hhCGDOPV4P5my-55" vertex="1">
          <mxGeometry y="104" width="520" height="26" as="geometry" />
        </mxCell>
        <mxCell id="zlSE3J9hhCGDOPV4P5my-60" value="" style="line;html=1;strokeWidth=1;align=left;verticalAlign=middle;spacingTop=-1;spacingLeft=3;spacingRight=3;rotatable=0;labelPosition=right;points=[];portConstraint=eastwest;" parent="zlSE3J9hhCGDOPV4P5my-55" vertex="1">
          <mxGeometry y="130" width="520" height="8" as="geometry" />
        </mxCell>
        <mxCell id="zlSE3J9hhCGDOPV4P5my-61" value="+ check_stone_input ( input_strings : String, min_number : int, max_number : int): Boolean" style="text;align=left;verticalAlign=top;spacingLeft=4;spacingRight=4;overflow=hidden;rotatable=0;points=[[0,0.5],[1,0.5]];portConstraint=eastwest;" parent="zlSE3J9hhCGDOPV4P5my-55" vertex="1">
          <mxGeometry y="138" width="520" height="26" as="geometry" />
        </mxCell>
        <mxCell id="zlSE3J9hhCGDOPV4P5my-62" value="+ check_code_input ( input_strings : String, code_max_length : int, max_number : int) : Boolean" style="text;align=left;verticalAlign=top;spacingLeft=4;spacingRight=4;overflow=hidden;rotatable=0;points=[[0,0.5],[1,0.5]];portConstraint=eastwest;" parent="zlSE3J9hhCGDOPV4P5my-55" vertex="1">
          <mxGeometry y="164" width="520" height="26" as="geometry" />
        </mxCell>
        <mxCell id="zlSE3J9hhCGDOPV4P5my-63" value="+ check_feedback_input ( input_strings : String, code_max_length : int) : Boolean" style="text;align=left;verticalAlign=top;spacingLeft=4;spacingRight=4;overflow=hidden;rotatable=0;points=[[0,0.5],[1,0.5]];portConstraint=eastwest;" parent="zlSE3J9hhCGDOPV4P5my-55" vertex="1">
          <mxGeometry y="190" width="520" height="26" as="geometry" />
        </mxCell>
        <mxCell id="zlSE3J9hhCGDOPV4P5my-64" value="+ set_digit_range ( value : int, min_value : int, max_value : int) : Boolean" style="text;align=left;verticalAlign=top;spacingLeft=4;spacingRight=4;overflow=hidden;rotatable=0;points=[[0,0.5],[1,0.5]];portConstraint=eastwest;" parent="zlSE3J9hhCGDOPV4P5my-55" vertex="1">
          <mxGeometry y="216" width="520" height="26" as="geometry" />
        </mxCell>
        <mxCell id="zlSE3J9hhCGDOPV4P5my-65" value="+ check_max_code_length_input ( code_max_length : int ) : Boolean" style="text;align=left;verticalAlign=top;spacingLeft=4;spacingRight=4;overflow=hidden;rotatable=0;points=[[0,0.5],[1,0.5]];portConstraint=eastwest;" parent="zlSE3J9hhCGDOPV4P5my-55" vertex="1">
          <mxGeometry y="242" width="520" height="26" as="geometry" />
        </mxCell>
        <mxCell id="zlSE3J9hhCGDOPV4P5my-66" value="+ check_game_mode_input ( game_mode : int) : Boolean" style="text;align=left;verticalAlign=top;spacingLeft=4;spacingRight=4;overflow=hidden;rotatable=0;points=[[0,0.5],[1,0.5]];portConstraint=eastwest;" parent="zlSE3J9hhCGDOPV4P5my-55" vertex="1">
          <mxGeometry y="268" width="520" height="26" as="geometry" />
        </mxCell>
        <mxCell id="zlSE3J9hhCGDOPV4P5my-67" value="+ check_max_colour_input ( max_colour : int ) : Boolean" style="text;align=left;verticalAlign=top;spacingLeft=4;spacingRight=4;overflow=hidden;rotatable=0;points=[[0,0.5],[1,0.5]];portConstraint=eastwest;" parent="zlSE3J9hhCGDOPV4P5my-55" vertex="1">
          <mxGeometry y="294" width="520" height="26" as="geometry" />
        </mxCell>
        <mxCell id="zlSE3J9hhCGDOPV4P5my-68" value="+ check_game_state ( board : Board, user_role : Role ) : void" style="text;align=left;verticalAlign=top;spacingLeft=4;spacingRight=4;overflow=hidden;rotatable=0;points=[[0,0.5],[1,0.5]];portConstraint=eastwest;" parent="zlSE3J9hhCGDOPV4P5my-55" vertex="1">
          <mxGeometry y="320" width="520" height="26" as="geometry" />
        </mxCell>
        <mxCell id="zlSE3J9hhCGDOPV4P5my-69" value="+ check_port_input ( input_string : String) : Boolean" style="text;align=left;verticalAlign=top;spacingLeft=4;spacingRight=4;overflow=hidden;rotatable=0;points=[[0,0.5],[1,0.5]];portConstraint=eastwest;" parent="zlSE3J9hhCGDOPV4P5my-55" vertex="1">
          <mxGeometry y="346" width="520" height="26" as="geometry" />
        </mxCell>
        <mxCell id="zlSE3J9hhCGDOPV4P5my-70" value="&lt;p style=&quot;margin:0px;margin-top:4px;text-align:center;&quot;&gt;&lt;i&gt;&amp;lt;&amp;lt;enumeration&amp;gt;&amp;gt;&lt;/i&gt;&lt;/p&gt;&lt;p style=&quot;margin:0px;margin-top:4px;text-align:center;&quot;&gt;&lt;b&gt;GameState&lt;/b&gt;&lt;/p&gt;&lt;hr size=&quot;1&quot;&gt;&lt;p style=&quot;margin:0px;margin-left:4px;&quot;&gt;- Win : True&lt;/p&gt;&lt;p style=&quot;margin:0px;margin-left:4px;&quot;&gt;- Lose : False&lt;/p&gt;&lt;p style=&quot;margin:0px;margin-left:4px;&quot;&gt;- Undecided : -1&lt;/p&gt;" style="verticalAlign=top;align=left;overflow=fill;fontSize=12;fontFamily=Helvetica;html=1;" parent="1" vertex="1">
          <mxGeometry x="1760" y="-247.5" width="190" height="95" as="geometry" />
        </mxCell>
        <mxCell id="zlSE3J9hhCGDOPV4P5my-71" style="edgeStyle=orthogonalEdgeStyle;rounded=0;orthogonalLoop=1;jettySize=auto;html=1;exitX=0.25;exitY=0;exitDx=0;exitDy=0;entryX=0.5;entryY=1;entryDx=0;entryDy=0;entryPerimeter=0;dashed=1;endArrow=open;endFill=0;" parent="1" source="zlSE3J9hhCGDOPV4P5my-73" target="zlSE3J9hhCGDOPV4P5my-84" edge="1">
          <mxGeometry relative="1" as="geometry" />
        </mxCell>
        <mxCell id="ZPwmua-Yqa8nRkXLpiFK-7" style="edgeStyle=orthogonalEdgeStyle;rounded=0;orthogonalLoop=1;jettySize=auto;html=1;exitX=0.5;exitY=1;exitDx=0;exitDy=0;entryX=0;entryY=0.5;entryDx=0;entryDy=0;endArrow=openThin;endFill=0;" parent="1" source="zlSE3J9hhCGDOPV4P5my-73" target="kxm0GbXFzBx9KOaNjG-1-1" edge="1">
          <mxGeometry relative="1" as="geometry" />
        </mxCell>
        <mxCell id="ZPwmua-Yqa8nRkXLpiFK-8" value="sendet Feedback" style="edgeLabel;html=1;align=center;verticalAlign=middle;resizable=0;points=[];" parent="ZPwmua-Yqa8nRkXLpiFK-7" vertex="1" connectable="0">
          <mxGeometry x="-0.4118" y="-4" relative="1" as="geometry">
            <mxPoint as="offset" />
          </mxGeometry>
        </mxCell>
        <mxCell id="zlSE3J9hhCGDOPV4P5my-73" value="ServerHandler" style="swimlane;fontStyle=1;align=center;verticalAlign=top;childLayout=stackLayout;horizontal=1;startSize=26;horizontalStack=0;resizeParent=1;resizeLast=0;collapsible=1;marginBottom=0;rounded=0;shadow=0;strokeWidth=1;" parent="1" vertex="1">
          <mxGeometry x="-590" y="-120" width="520" height="280" as="geometry">
            <mxRectangle x="340" y="380" width="170" height="26" as="alternateBounds" />
          </mxGeometry>
        </mxCell>
        <mxCell id="zlSE3J9hhCGDOPV4P5my-74" value="- ip : String" style="text;align=left;verticalAlign=top;spacingLeft=4;spacingRight=4;overflow=hidden;rotatable=0;points=[[0,0.5],[1,0.5]];portConstraint=eastwest;" parent="zlSE3J9hhCGDOPV4P5my-73" vertex="1">
          <mxGeometry y="26" width="520" height="26" as="geometry" />
        </mxCell>
        <mxCell id="zlSE3J9hhCGDOPV4P5my-75" value="- port : int" style="text;align=left;verticalAlign=top;spacingLeft=4;spacingRight=4;overflow=hidden;rotatable=0;points=[[0,0.5],[1,0.5]];portConstraint=eastwest;" parent="zlSE3J9hhCGDOPV4P5my-73" vertex="1">
          <mxGeometry y="52" width="520" height="26" as="geometry" />
        </mxCell>
        <mxCell id="zlSE3J9hhCGDOPV4P5my-76" value="- board : Board" style="text;align=left;verticalAlign=top;spacingLeft=4;spacingRight=4;overflow=hidden;rotatable=0;points=[[0,0.5],[1,0.5]];portConstraint=eastwest;" parent="zlSE3J9hhCGDOPV4P5my-73" vertex="1">
          <mxGeometry y="78" width="520" height="26" as="geometry" />
        </mxCell>
        <mxCell id="zlSE3J9hhCGDOPV4P5my-77" value="- user_name : String" style="text;align=left;verticalAlign=top;spacingLeft=4;spacingRight=4;overflow=hidden;rotatable=0;points=[[0,0.5],[1,0.5]];portConstraint=eastwest;" parent="zlSE3J9hhCGDOPV4P5my-73" vertex="1">
          <mxGeometry y="104" width="520" height="26" as="geometry" />
        </mxCell>
        <mxCell id="zlSE3J9hhCGDOPV4P5my-78" value="- game_id : int" style="text;align=left;verticalAlign=top;spacingLeft=4;spacingRight=4;overflow=hidden;rotatable=0;points=[[0,0.5],[1,0.5]];portConstraint=eastwest;" parent="zlSE3J9hhCGDOPV4P5my-73" vertex="1">
          <mxGeometry y="130" width="520" height="26" as="geometry" />
        </mxCell>
        <mxCell id="zlSE3J9hhCGDOPV4P5my-79" value="- first_call_made : Boolean" style="text;align=left;verticalAlign=top;spacingLeft=4;spacingRight=4;overflow=hidden;rotatable=0;points=[[0,0.5],[1,0.5]];portConstraint=eastwest;" parent="zlSE3J9hhCGDOPV4P5my-73" vertex="1">
          <mxGeometry y="156" width="520" height="26" as="geometry" />
        </mxCell>
        <mxCell id="zlSE3J9hhCGDOPV4P5my-80" value="" style="line;html=1;strokeWidth=1;align=left;verticalAlign=middle;spacingTop=-1;spacingLeft=3;spacingRight=3;rotatable=0;labelPosition=right;points=[];portConstraint=eastwest;" parent="zlSE3J9hhCGDOPV4P5my-73" vertex="1">
          <mxGeometry y="182" width="520" height="8" as="geometry" />
        </mxCell>
        <mxCell id="zlSE3J9hhCGDOPV4P5my-81" value="+ convert_guess_to_string () : String" style="text;align=left;verticalAlign=top;spacingLeft=4;spacingRight=4;overflow=hidden;rotatable=0;points=[[0,0.5],[1,0.5]];portConstraint=eastwest;" parent="zlSE3J9hhCGDOPV4P5my-73" vertex="1">
          <mxGeometry y="190" width="520" height="26" as="geometry" />
        </mxCell>
        <mxCell id="zlSE3J9hhCGDOPV4P5my-82" value="+ server_handler_send_json () : Response" style="text;align=left;verticalAlign=top;spacingLeft=4;spacingRight=4;overflow=hidden;rotatable=0;points=[[0,0.5],[1,0.5]];portConstraint=eastwest;" parent="zlSE3J9hhCGDOPV4P5my-73" vertex="1">
          <mxGeometry y="216" width="520" height="26" as="geometry" />
        </mxCell>
        <mxCell id="zlSE3J9hhCGDOPV4P5my-83" value="+ handle_response ( response : Response ) : void" style="text;align=left;verticalAlign=top;spacingLeft=4;spacingRight=4;overflow=hidden;rotatable=0;points=[[0,0.5],[1,0.5]];portConstraint=eastwest;" parent="zlSE3J9hhCGDOPV4P5my-73" vertex="1">
          <mxGeometry y="242" width="520" height="26" as="geometry" />
        </mxCell>
        <mxCell id="zlSE3J9hhCGDOPV4P5my-84" value="Request" style="shape=folder;fontStyle=1;tabWidth=80;tabHeight=30;tabPosition=left;html=1;boundedLbl=1;" parent="1" vertex="1">
          <mxGeometry x="-530" y="-244.5" width="150" height="80" as="geometry" />
        </mxCell>
        <mxCell id="zlSE3J9hhCGDOPV4P5my-85" value="sys" style="shape=folder;fontStyle=1;tabWidth=80;tabHeight=30;tabPosition=left;html=1;boundedLbl=1;" parent="1" vertex="1">
          <mxGeometry x="180" y="-260" width="150" height="80" as="geometry" />
        </mxCell>
        <mxCell id="zlSE3J9hhCGDOPV4P5my-86" style="edgeStyle=orthogonalEdgeStyle;rounded=0;orthogonalLoop=1;jettySize=auto;html=1;exitX=0;exitY=0.5;exitDx=0;exitDy=0;entryX=1;entryY=0.5;entryDx=0;entryDy=0;endArrow=openThin;endFill=0;dashed=1;" parent="1" source="zlSE3J9hhCGDOPV4P5my-26" target="zlSE3J9hhCGDOPV4P5my-78" edge="1">
          <mxGeometry relative="1" as="geometry" />
        </mxCell>
        <mxCell id="kxm0GbXFzBx9KOaNjG-1-1" value="Board" style="fontStyle=1;" parent="1" vertex="1">
          <mxGeometry x="340" y="630" width="140" height="30" as="geometry" />
        </mxCell>
        <mxCell id="kxm0GbXFzBx9KOaNjG-1-2" value="User" style="fontStyle=1;" parent="1" vertex="1">
          <mxGeometry x="590" y="630" width="140" height="30" as="geometry" />
        </mxCell>
        <mxCell id="ZPwmua-Yqa8nRkXLpiFK-1" value="&lt;p style=&quot;margin:0px;margin-top:4px;text-align:center;&quot;&gt;&lt;i&gt;&amp;lt;&amp;lt;enumeration&amp;gt;&amp;gt;&lt;/i&gt;&lt;/p&gt;&lt;p style=&quot;margin:0px;margin-top:4px;text-align:center;&quot;&gt;&lt;b&gt;Role&lt;/b&gt;&lt;/p&gt;&lt;p style=&quot;margin:0px;margin-left:4px;&quot;&gt;&lt;br&gt;&lt;/p&gt;" style="verticalAlign=top;align=left;overflow=fill;fontSize=12;fontFamily=Helvetica;html=1;" parent="1" vertex="1">
          <mxGeometry x="1050" y="630" width="190" height="50" as="geometry" />
        </mxCell>
        <mxCell id="ZPwmua-Yqa8nRkXLpiFK-9" value="Terminal" style="fontStyle=1;" parent="1" vertex="1">
          <mxGeometry x="410" y="-350" width="140" height="30" as="geometry" />
        </mxCell>
        <mxCell id="A6XjG0teXkBw0d25oW9s-1" value="RuleBook" style="fontStyle=1;" parent="1" vertex="1">
          <mxGeometry x="1550" y="630" width="140" height="30" as="geometry" />
        </mxCell>
      </root>
    </mxGraphModel>
  </diagram>
  <diagram id="R14Cg8eNllz4cFmUev8m" name="Feindiagramm_Ent">
    <mxGraphModel dx="4107" dy="1188" grid="1" gridSize="10" guides="1" tooltips="1" connect="1" arrows="1" fold="1" page="1" pageScale="1" pageWidth="1169" pageHeight="827" math="0" shadow="0">
      <root>
        <mxCell id="0" />
        <mxCell id="1" parent="0" />
        <mxCell id="XVolfPyo0YX4eApnRgrG-1" value="Entities" style="shape=umlFrame;whiteSpace=wrap;html=1;" parent="1" vertex="1">
          <mxGeometry x="-30" y="430" width="1310" height="610" as="geometry" />
        </mxCell>
        <mxCell id="XVolfPyo0YX4eApnRgrG-2" style="edgeStyle=orthogonalEdgeStyle;rounded=0;orthogonalLoop=1;jettySize=auto;html=1;exitX=0.5;exitY=0;exitDx=0;exitDy=0;entryX=0.5;entryY=1;entryDx=0;entryDy=0;dashed=1;endArrow=block;endFill=0;" parent="1" source="XVolfPyo0YX4eApnRgrG-3" target="XVolfPyo0YX4eApnRgrG-56" edge="1">
          <mxGeometry relative="1" as="geometry" />
        </mxCell>
        <mxCell id="XVolfPyo0YX4eApnRgrG-3" value="Board" style="swimlane;fontStyle=1;align=center;verticalAlign=top;childLayout=stackLayout;horizontal=1;startSize=26;horizontalStack=0;resizeParent=1;resizeLast=0;collapsible=1;marginBottom=0;rounded=0;shadow=0;strokeWidth=1;" parent="1" vertex="1">
          <mxGeometry x="290" y="530" width="390" height="476" as="geometry">
            <mxRectangle x="130" y="380" width="160" height="26" as="alternateBounds" />
          </mxGeometry>
        </mxCell>
        <mxCell id="XVolfPyo0YX4eApnRgrG-4" value="- code_max_length : int" style="text;align=left;verticalAlign=top;spacingLeft=4;spacingRight=4;overflow=hidden;rotatable=0;points=[[0,0.5],[1,0.5]];portConstraint=eastwest;" parent="XVolfPyo0YX4eApnRgrG-3" vertex="1">
          <mxGeometry y="26" width="390" height="26" as="geometry" />
        </mxCell>
        <mxCell id="XVolfPyo0YX4eApnRgrG-5" value="- max_colour : int" style="text;align=left;verticalAlign=top;spacingLeft=4;spacingRight=4;overflow=hidden;rotatable=0;points=[[0,0.5],[1,0.5]];portConstraint=eastwest;rounded=0;shadow=0;html=0;" parent="XVolfPyo0YX4eApnRgrG-3" vertex="1">
          <mxGeometry y="52" width="390" height="26" as="geometry" />
        </mxCell>
        <mxCell id="XVolfPyo0YX4eApnRgrG-6" value="- max_attempts : int" style="text;align=left;verticalAlign=top;spacingLeft=4;spacingRight=4;overflow=hidden;rotatable=0;points=[[0,0.5],[1,0.5]];portConstraint=eastwest;rounded=0;shadow=0;html=0;" parent="XVolfPyo0YX4eApnRgrG-3" vertex="1">
          <mxGeometry y="78" width="390" height="26" as="geometry" />
        </mxCell>
        <mxCell id="XVolfPyo0YX4eApnRgrG-7" value="- attempt_counter :Â  int" style="text;align=left;verticalAlign=top;spacingLeft=4;spacingRight=4;overflow=hidden;rotatable=0;points=[[0,0.5],[1,0.5]];portConstraint=eastwest;rounded=0;shadow=0;html=0;" parent="XVolfPyo0YX4eApnRgrG-3" vertex="1">
          <mxGeometry y="104" width="390" height="26" as="geometry" />
        </mxCell>
        <mxCell id="XVolfPyo0YX4eApnRgrG-8" value="- guessed_code : Stone[]" style="text;align=left;verticalAlign=top;spacingLeft=4;spacingRight=4;overflow=hidden;rotatable=0;points=[[0,0.5],[1,0.5]];portConstraint=eastwest;rounded=0;shadow=0;html=0;" parent="XVolfPyo0YX4eApnRgrG-3" vertex="1">
          <mxGeometry y="130" width="390" height="26" as="geometry" />
        </mxCell>
        <mxCell id="XVolfPyo0YX4eApnRgrG-9" value="- guessed_code_list : List(Stone[])" style="text;align=left;verticalAlign=top;spacingLeft=4;spacingRight=4;overflow=hidden;rotatable=0;points=[[0,0.5],[1,0.5]];portConstraint=eastwest;rounded=0;shadow=0;html=0;" parent="XVolfPyo0YX4eApnRgrG-3" vertex="1">
          <mxGeometry y="156" width="390" height="26" as="geometry" />
        </mxCell>
        <mxCell id="XVolfPyo0YX4eApnRgrG-10" value="- code : Stone[]" style="text;align=left;verticalAlign=top;spacingLeft=4;spacingRight=4;overflow=hidden;rotatable=0;points=[[0,0.5],[1,0.5]];portConstraint=eastwest;rounded=0;shadow=0;html=0;" parent="XVolfPyo0YX4eApnRgrG-3" vertex="1">
          <mxGeometry y="182" width="390" height="26" as="geometry" />
        </mxCell>
        <mxCell id="XVolfPyo0YX4eApnRgrG-11" value="- feedback : Stone[]" style="text;align=left;verticalAlign=top;spacingLeft=4;spacingRight=4;overflow=hidden;rotatable=0;points=[[0,0.5],[1,0.5]];portConstraint=eastwest;rounded=0;shadow=0;html=0;" parent="XVolfPyo0YX4eApnRgrG-3" vertex="1">
          <mxGeometry y="208" width="390" height="26" as="geometry" />
        </mxCell>
        <mxCell id="XVolfPyo0YX4eApnRgrG-12" value="- feedback_list : List(Stone[])" style="text;align=left;verticalAlign=top;spacingLeft=4;spacingRight=4;overflow=hidden;rotatable=0;points=[[0,0.5],[1,0.5]];portConstraint=eastwest;rounded=0;shadow=0;html=0;" parent="XVolfPyo0YX4eApnRgrG-3" vertex="1">
          <mxGeometry y="234" width="390" height="26" as="geometry" />
        </mxCell>
        <mxCell id="XVolfPyo0YX4eApnRgrG-13" value="- game_mode : Role" style="text;align=left;verticalAlign=top;spacingLeft=4;spacingRight=4;overflow=hidden;rotatable=0;points=[[0,0.5],[1,0.5]];portConstraint=eastwest;rounded=0;shadow=0;html=0;" parent="XVolfPyo0YX4eApnRgrG-3" vertex="1">
          <mxGeometry y="260" width="390" height="26" as="geometry" />
        </mxCell>
        <mxCell id="XVolfPyo0YX4eApnRgrG-14" value="- observers: Observer[]" style="text;align=left;verticalAlign=top;spacingLeft=4;spacingRight=4;overflow=hidden;rotatable=0;points=[[0,0.5],[1,0.5]];portConstraint=eastwest;rounded=0;shadow=0;html=0;" parent="XVolfPyo0YX4eApnRgrG-3" vertex="1">
          <mxGeometry y="286" width="390" height="26" as="geometry" />
        </mxCell>
        <mxCell id="XVolfPyo0YX4eApnRgrG-15" value="" style="line;html=1;strokeWidth=1;align=left;verticalAlign=middle;spacingTop=-1;spacingLeft=3;spacingRight=3;rotatable=0;labelPosition=right;points=[];portConstraint=eastwest;" parent="XVolfPyo0YX4eApnRgrG-3" vertex="1">
          <mxGeometry y="312" width="390" height="8" as="geometry" />
        </mxCell>
        <mxCell id="XVolfPyo0YX4eApnRgrG-16" value="+ register_observer (observer : Observer) : void" style="text;align=left;verticalAlign=top;spacingLeft=4;spacingRight=4;overflow=hidden;rotatable=0;points=[[0,0.5],[1,0.5]];portConstraint=eastwest;" parent="XVolfPyo0YX4eApnRgrG-3" vertex="1">
          <mxGeometry y="320" width="390" height="26" as="geometry" />
        </mxCell>
        <mxCell id="XVolfPyo0YX4eApnRgrG-17" value="+ remove_observer (observer : Observer) : void" style="text;align=left;verticalAlign=top;spacingLeft=4;spacingRight=4;overflow=hidden;rotatable=0;points=[[0,0.5],[1,0.5]];portConstraint=eastwest;" parent="XVolfPyo0YX4eApnRgrG-3" vertex="1">
          <mxGeometry y="346" width="390" height="26" as="geometry" />
        </mxCell>
        <mxCell id="XVolfPyo0YX4eApnRgrG-18" value="+ notify_observer () : void" style="text;align=left;verticalAlign=top;spacingLeft=4;spacingRight=4;overflow=hidden;rotatable=0;points=[[0,0.5],[1,0.5]];portConstraint=eastwest;" parent="XVolfPyo0YX4eApnRgrG-3" vertex="1">
          <mxGeometry y="372" width="390" height="26" as="geometry" />
        </mxCell>
        <mxCell id="XVolfPyo0YX4eApnRgrG-19" value="+ create_board_stone_array (values : String ) : Stone[]" style="text;align=left;verticalAlign=top;spacingLeft=4;spacingRight=4;overflow=hidden;rotatable=0;points=[[0,0.5],[1,0.5]];portConstraint=eastwest;fontStyle=4" parent="XVolfPyo0YX4eApnRgrG-3" vertex="1">
          <mxGeometry y="398" width="390" height="26" as="geometry" />
        </mxCell>
        <mxCell id="XVolfPyo0YX4eApnRgrG-20" value="+ create_stone_array_to_colour ( stone_array : Stone[] ) : Colour[]" style="text;align=left;verticalAlign=top;spacingLeft=4;spacingRight=4;overflow=hidden;rotatable=0;points=[[0,0.5],[1,0.5]];portConstraint=eastwest;fontStyle=4" parent="XVolfPyo0YX4eApnRgrG-3" vertex="1">
          <mxGeometry y="424" width="390" height="26" as="geometry" />
        </mxCell>
        <mxCell id="XVolfPyo0YX4eApnRgrG-21" value="+ convert_colour_array_to_int ( colour_array : Colour[] ) : int[]" style="text;align=left;verticalAlign=top;spacingLeft=4;spacingRight=4;overflow=hidden;rotatable=0;points=[[0,0.5],[1,0.5]];portConstraint=eastwest;fontStyle=4" parent="XVolfPyo0YX4eApnRgrG-3" vertex="1">
          <mxGeometry y="450" width="390" height="26" as="geometry" />
        </mxCell>
        <mxCell id="XVolfPyo0YX4eApnRgrG-22" style="edgeStyle=orthogonalEdgeStyle;rounded=0;orthogonalLoop=1;jettySize=auto;html=1;exitX=0.75;exitY=1;exitDx=0;exitDy=0;entryX=0;entryY=0.5;entryDx=0;entryDy=0;endArrow=none;endFill=0;" parent="1" source="XVolfPyo0YX4eApnRgrG-25" target="XVolfPyo0YX4eApnRgrG-10" edge="1">
          <mxGeometry relative="1" as="geometry" />
        </mxCell>
        <mxCell id="XVolfPyo0YX4eApnRgrG-23" value="&amp;lt; besteht aus" style="edgeLabel;html=1;align=center;verticalAlign=middle;resizable=0;points=[];" parent="XVolfPyo0YX4eApnRgrG-22" vertex="1" connectable="0">
          <mxGeometry x="0.2013" y="-1" relative="1" as="geometry">
            <mxPoint x="-7" y="-1" as="offset" />
          </mxGeometry>
        </mxCell>
        <mxCell id="XVolfPyo0YX4eApnRgrG-24" style="edgeStyle=orthogonalEdgeStyle;rounded=0;orthogonalLoop=1;jettySize=auto;html=1;exitX=0.5;exitY=1;exitDx=0;exitDy=0;entryX=0.5;entryY=0;entryDx=0;entryDy=0;dashed=1;endArrow=open;endFill=0;" parent="1" source="XVolfPyo0YX4eApnRgrG-25" target="XVolfPyo0YX4eApnRgrG-30" edge="1">
          <mxGeometry relative="1" as="geometry" />
        </mxCell>
        <mxCell id="XVolfPyo0YX4eApnRgrG-25" value="Stone" style="swimlane;fontStyle=1;align=center;verticalAlign=top;childLayout=stackLayout;horizontal=1;startSize=26;horizontalStack=0;resizeParent=1;resizeLast=0;collapsible=1;marginBottom=0;rounded=0;shadow=0;strokeWidth=1;" parent="1" vertex="1">
          <mxGeometry x="40" y="530" width="205" height="120" as="geometry">
            <mxRectangle x="340" y="380" width="170" height="26" as="alternateBounds" />
          </mxGeometry>
        </mxCell>
        <mxCell id="XVolfPyo0YX4eApnRgrG-26" value="- colour : Colour" style="text;align=left;verticalAlign=top;spacingLeft=4;spacingRight=4;overflow=hidden;rotatable=0;points=[[0,0.5],[1,0.5]];portConstraint=eastwest;" parent="XVolfPyo0YX4eApnRgrG-25" vertex="1">
          <mxGeometry y="26" width="205" height="26" as="geometry" />
        </mxCell>
        <mxCell id="XVolfPyo0YX4eApnRgrG-27" value="" style="line;html=1;strokeWidth=1;align=left;verticalAlign=middle;spacingTop=-1;spacingLeft=3;spacingRight=3;rotatable=0;labelPosition=right;points=[];portConstraint=eastwest;" parent="XVolfPyo0YX4eApnRgrG-25" vertex="1">
          <mxGeometry y="52" width="205" height="8" as="geometry" />
        </mxCell>
        <mxCell id="XVolfPyo0YX4eApnRgrG-28" value="+ colour() : Colour" style="text;align=left;verticalAlign=top;spacingLeft=4;spacingRight=4;overflow=hidden;rotatable=0;points=[[0,0.5],[1,0.5]];portConstraint=eastwest;" parent="XVolfPyo0YX4eApnRgrG-25" vertex="1">
          <mxGeometry y="60" width="205" height="26" as="geometry" />
        </mxCell>
        <mxCell id="XVolfPyo0YX4eApnRgrG-29" value="+ colour.setter(colour : Colour) : void" style="text;align=left;verticalAlign=top;spacingLeft=4;spacingRight=4;overflow=hidden;rotatable=0;points=[[0,0.5],[1,0.5]];portConstraint=eastwest;" parent="XVolfPyo0YX4eApnRgrG-25" vertex="1">
          <mxGeometry y="86" width="205" height="26" as="geometry" />
        </mxCell>
        <mxCell id="XVolfPyo0YX4eApnRgrG-30" value="&lt;p style=&quot;margin:0px;margin-top:4px;text-align:center;&quot;&gt;&lt;i&gt;&amp;lt;&amp;lt;enumeration&amp;gt;&amp;gt;&lt;/i&gt;&lt;/p&gt;&lt;p style=&quot;margin:0px;margin-top:4px;text-align:center;&quot;&gt;&lt;b&gt;Colour&lt;/b&gt;&lt;/p&gt;&lt;hr size=&quot;1&quot;&gt;&lt;p style=&quot;margin:0px;margin-left:4px;&quot;&gt;- RED : 1&lt;br&gt;- GREEN : 2&lt;/p&gt;&lt;p style=&quot;margin:0px;margin-left:4px;&quot;&gt;- YELLOW : 3&lt;/p&gt;&lt;p style=&quot;margin:0px;margin-left:4px;&quot;&gt;- BLUE : 4&lt;/p&gt;&lt;p style=&quot;margin:0px;margin-left:4px;&quot;&gt;- ORANGE : 5&lt;/p&gt;&lt;p style=&quot;margin:0px;margin-left:4px;&quot;&gt;- BROWN : 6&lt;/p&gt;&lt;p style=&quot;margin:0px;margin-left:4px;&quot;&gt;- WHITE : 7&lt;/p&gt;&lt;p style=&quot;margin:0px;margin-left:4px;&quot;&gt;- BLACK : 8&lt;/p&gt;" style="verticalAlign=top;align=left;overflow=fill;fontSize=12;fontFamily=Helvetica;html=1;" parent="1" vertex="1">
          <mxGeometry x="47.5" y="750" width="190" height="184" as="geometry" />
        </mxCell>
        <mxCell id="XVolfPyo0YX4eApnRgrG-31" style="edgeStyle=orthogonalEdgeStyle;rounded=0;orthogonalLoop=1;jettySize=auto;html=1;exitX=0.5;exitY=1;exitDx=0;exitDy=0;entryX=0.5;entryY=0;entryDx=0;entryDy=0;dashed=1;endArrow=open;endFill=0;" parent="1" source="XVolfPyo0YX4eApnRgrG-32" target="XVolfPyo0YX4eApnRgrG-40" edge="1">
          <mxGeometry relative="1" as="geometry" />
        </mxCell>
        <mxCell id="XVolfPyo0YX4eApnRgrG-32" value="User" style="swimlane;fontStyle=1;align=center;verticalAlign=top;childLayout=stackLayout;horizontal=1;startSize=26;horizontalStack=0;resizeParent=1;resizeLast=0;collapsible=1;marginBottom=0;rounded=0;shadow=0;strokeWidth=1;" parent="1" vertex="1">
          <mxGeometry x="730" y="470" width="200" height="200" as="geometry">
            <mxRectangle x="340" y="380" width="170" height="26" as="alternateBounds" />
          </mxGeometry>
        </mxCell>
        <mxCell id="XVolfPyo0YX4eApnRgrG-33" value="- name : String" style="text;align=left;verticalAlign=top;spacingLeft=4;spacingRight=4;overflow=hidden;rotatable=0;points=[[0,0.5],[1,0.5]];portConstraint=eastwest;" parent="XVolfPyo0YX4eApnRgrG-32" vertex="1">
          <mxGeometry y="26" width="200" height="26" as="geometry" />
        </mxCell>
        <mxCell id="XVolfPyo0YX4eApnRgrG-34" value="- role : Role" style="text;align=left;verticalAlign=top;spacingLeft=4;spacingRight=4;overflow=hidden;rotatable=0;points=[[0,0.5],[1,0.5]];portConstraint=eastwest;" parent="XVolfPyo0YX4eApnRgrG-32" vertex="1">
          <mxGeometry y="52" width="200" height="26" as="geometry" />
        </mxCell>
        <mxCell id="XVolfPyo0YX4eApnRgrG-35" value="" style="line;html=1;strokeWidth=1;align=left;verticalAlign=middle;spacingTop=-1;spacingLeft=3;spacingRight=3;rotatable=0;labelPosition=right;points=[];portConstraint=eastwest;" parent="XVolfPyo0YX4eApnRgrG-32" vertex="1">
          <mxGeometry y="78" width="200" height="8" as="geometry" />
        </mxCell>
        <mxCell id="XVolfPyo0YX4eApnRgrG-36" value="+ name() : String" style="text;align=left;verticalAlign=top;spacingLeft=4;spacingRight=4;overflow=hidden;rotatable=0;points=[[0,0.5],[1,0.5]];portConstraint=eastwest;" parent="XVolfPyo0YX4eApnRgrG-32" vertex="1">
          <mxGeometry y="86" width="200" height="26" as="geometry" />
        </mxCell>
        <mxCell id="XVolfPyo0YX4eApnRgrG-37" value="+ name.setter(value : String) : void" style="text;align=left;verticalAlign=top;spacingLeft=4;spacingRight=4;overflow=hidden;rotatable=0;points=[[0,0.5],[1,0.5]];portConstraint=eastwest;" parent="XVolfPyo0YX4eApnRgrG-32" vertex="1">
          <mxGeometry y="112" width="200" height="26" as="geometry" />
        </mxCell>
        <mxCell id="XVolfPyo0YX4eApnRgrG-38" value="+ role() : Role" style="text;align=left;verticalAlign=top;spacingLeft=4;spacingRight=4;overflow=hidden;rotatable=0;points=[[0,0.5],[1,0.5]];portConstraint=eastwest;" parent="XVolfPyo0YX4eApnRgrG-32" vertex="1">
          <mxGeometry y="138" width="200" height="26" as="geometry" />
        </mxCell>
        <mxCell id="XVolfPyo0YX4eApnRgrG-39" value="+ role.setter(role : Role) : void" style="text;align=left;verticalAlign=top;spacingLeft=4;spacingRight=4;overflow=hidden;rotatable=0;points=[[0,0.5],[1,0.5]];portConstraint=eastwest;" parent="XVolfPyo0YX4eApnRgrG-32" vertex="1">
          <mxGeometry y="164" width="200" height="26" as="geometry" />
        </mxCell>
        <mxCell id="XVolfPyo0YX4eApnRgrG-40" value="&lt;p style=&quot;margin:0px;margin-top:4px;text-align:center;&quot;&gt;&lt;i&gt;&amp;lt;&amp;lt;enumeration&amp;gt;&amp;gt;&lt;/i&gt;&lt;/p&gt;&lt;p style=&quot;margin:0px;margin-top:4px;text-align:center;&quot;&gt;&lt;b&gt;Role&lt;/b&gt;&lt;/p&gt;&lt;hr size=&quot;1&quot;&gt;&lt;p style=&quot;margin:0px;margin-left:4px;&quot;&gt;- Coder : 1&lt;/p&gt;&lt;p style=&quot;margin:0px;margin-left:4px;&quot;&gt;- Rater : 2&lt;/p&gt;" style="verticalAlign=top;align=left;overflow=fill;fontSize=12;fontFamily=Helvetica;html=1;" parent="1" vertex="1">
          <mxGeometry x="730" y="700" width="190" height="95" as="geometry" />
        </mxCell>
        <mxCell id="XVolfPyo0YX4eApnRgrG-41" value="RuleBook" style="swimlane;fontStyle=1;align=center;verticalAlign=top;childLayout=stackLayout;horizontal=1;startSize=26;horizontalStack=0;resizeParent=1;resizeLast=0;collapsible=1;marginBottom=0;rounded=0;shadow=0;strokeWidth=1;" parent="1" vertex="1">
          <mxGeometry x="1000" y="470" width="210" height="380" as="geometry">
            <mxRectangle x="340" y="380" width="170" height="26" as="alternateBounds" />
          </mxGeometry>
        </mxCell>
        <mxCell id="XVolfPyo0YX4eApnRgrG-42" value="- max_colour : int" style="text;align=left;verticalAlign=top;spacingLeft=4;spacingRight=4;overflow=hidden;rotatable=0;points=[[0,0.5],[1,0.5]];portConstraint=eastwest;" parent="XVolfPyo0YX4eApnRgrG-41" vertex="1">
          <mxGeometry y="26" width="210" height="26" as="geometry" />
        </mxCell>
        <mxCell id="XVolfPyo0YX4eApnRgrG-43" value="- max_try : intÂ " style="text;align=left;verticalAlign=top;spacingLeft=4;spacingRight=4;overflow=hidden;rotatable=0;points=[[0,0.5],[1,0.5]];portConstraint=eastwest;" parent="XVolfPyo0YX4eApnRgrG-41" vertex="1">
          <mxGeometry y="52" width="210" height="26" as="geometry" />
        </mxCell>
        <mxCell id="XVolfPyo0YX4eApnRgrG-44" value="- min_code_length : intÂ " style="text;align=left;verticalAlign=top;spacingLeft=4;spacingRight=4;overflow=hidden;rotatable=0;points=[[0,0.5],[1,0.5]];portConstraint=eastwest;" parent="XVolfPyo0YX4eApnRgrG-41" vertex="1">
          <mxGeometry y="78" width="210" height="26" as="geometry" />
        </mxCell>
        <mxCell id="XVolfPyo0YX4eApnRgrG-45" value="- min_game_mode : intÂ " style="text;align=left;verticalAlign=top;spacingLeft=4;spacingRight=4;overflow=hidden;rotatable=0;points=[[0,0.5],[1,0.5]];portConstraint=eastwest;" parent="XVolfPyo0YX4eApnRgrG-41" vertex="1">
          <mxGeometry y="104" width="210" height="26" as="geometry" />
        </mxCell>
        <mxCell id="XVolfPyo0YX4eApnRgrG-46" value="- max_code_length : int" style="text;align=left;verticalAlign=top;spacingLeft=4;spacingRight=4;overflow=hidden;rotatable=0;points=[[0,0.5],[1,0.5]];portConstraint=eastwest;" parent="XVolfPyo0YX4eApnRgrG-41" vertex="1">
          <mxGeometry y="130" width="210" height="26" as="geometry" />
        </mxCell>
        <mxCell id="XVolfPyo0YX4eApnRgrG-47" value="- max_game_mode : int" style="text;align=left;verticalAlign=top;spacingLeft=4;spacingRight=4;overflow=hidden;rotatable=0;points=[[0,0.5],[1,0.5]];portConstraint=eastwest;" parent="XVolfPyo0YX4eApnRgrG-41" vertex="1">
          <mxGeometry y="156" width="210" height="26" as="geometry" />
        </mxCell>
        <mxCell id="XVolfPyo0YX4eApnRgrG-48" value="- min_colour : intÂ " style="text;align=left;verticalAlign=top;spacingLeft=4;spacingRight=4;overflow=hidden;rotatable=0;points=[[0,0.5],[1,0.5]];portConstraint=eastwest;" parent="XVolfPyo0YX4eApnRgrG-41" vertex="1">
          <mxGeometry y="182" width="210" height="26" as="geometry" />
        </mxCell>
        <mxCell id="XVolfPyo0YX4eApnRgrG-49" value="- min_check_code : int" style="text;align=left;verticalAlign=top;spacingLeft=4;spacingRight=4;overflow=hidden;rotatable=0;points=[[0,0.5],[1,0.5]];portConstraint=eastwest;" parent="XVolfPyo0YX4eApnRgrG-41" vertex="1">
          <mxGeometry y="208" width="210" height="26" as="geometry" />
        </mxCell>
        <mxCell id="XVolfPyo0YX4eApnRgrG-50" value="- min_feedback_colour : intÂ " style="text;align=left;verticalAlign=top;spacingLeft=4;spacingRight=4;overflow=hidden;rotatable=0;points=[[0,0.5],[1,0.5]];portConstraint=eastwest;" parent="XVolfPyo0YX4eApnRgrG-41" vertex="1">
          <mxGeometry y="234" width="210" height="26" as="geometry" />
        </mxCell>
        <mxCell id="XVolfPyo0YX4eApnRgrG-51" value="- max_feedback_colour : intÂ " style="text;align=left;verticalAlign=top;spacingLeft=4;spacingRight=4;overflow=hidden;rotatable=0;points=[[0,0.5],[1,0.5]];portConstraint=eastwest;" parent="XVolfPyo0YX4eApnRgrG-41" vertex="1">
          <mxGeometry y="260" width="210" height="26" as="geometry" />
        </mxCell>
        <mxCell id="XVolfPyo0YX4eApnRgrG-52" value="- winning_feedback_4 : StringÂ " style="text;align=left;verticalAlign=top;spacingLeft=4;spacingRight=4;overflow=hidden;rotatable=0;points=[[0,0.5],[1,0.5]];portConstraint=eastwest;" parent="XVolfPyo0YX4eApnRgrG-41" vertex="1">
          <mxGeometry y="286" width="210" height="26" as="geometry" />
        </mxCell>
        <mxCell id="XVolfPyo0YX4eApnRgrG-53" value="- winning_feedback_5 : StringÂ " style="text;align=left;verticalAlign=top;spacingLeft=4;spacingRight=4;overflow=hidden;rotatable=0;points=[[0,0.5],[1,0.5]];portConstraint=eastwest;" parent="XVolfPyo0YX4eApnRgrG-41" vertex="1">
          <mxGeometry y="312" width="210" height="26" as="geometry" />
        </mxCell>
        <mxCell id="XVolfPyo0YX4eApnRgrG-54" value="" style="line;html=1;strokeWidth=1;align=left;verticalAlign=middle;spacingTop=-1;spacingLeft=3;spacingRight=3;rotatable=0;labelPosition=right;points=[];portConstraint=eastwest;" parent="XVolfPyo0YX4eApnRgrG-41" vertex="1">
          <mxGeometry y="338" width="210" height="8" as="geometry" />
        </mxCell>
        <mxCell id="XVolfPyo0YX4eApnRgrG-55" value="+ getter_for_every_attribute" style="text;align=left;verticalAlign=top;spacingLeft=4;spacingRight=4;overflow=hidden;rotatable=0;points=[[0,0.5],[1,0.5]];portConstraint=eastwest;" parent="XVolfPyo0YX4eApnRgrG-41" vertex="1">
          <mxGeometry y="346" width="210" height="26" as="geometry" />
        </mxCell>
        <mxCell id="XVolfPyo0YX4eApnRgrG-56" value="Â«interfaceÂ»&lt;br&gt;&lt;b&gt;Observer&lt;/b&gt;" style="html=1;" parent="1" vertex="1">
          <mxGeometry x="380" y="440" width="110" height="50" as="geometry" />
        </mxCell>
        <mxCell id="XVolfPyo0YX4eApnRgrG-57" style="edgeStyle=orthogonalEdgeStyle;rounded=0;orthogonalLoop=1;jettySize=auto;html=1;exitX=1;exitY=0.5;exitDx=0;exitDy=0;entryX=0;entryY=0.25;entryDx=0;entryDy=0;dashed=1;endArrow=open;endFill=0;" parent="1" source="XVolfPyo0YX4eApnRgrG-10" target="XVolfPyo0YX4eApnRgrG-40" edge="1">
          <mxGeometry relative="1" as="geometry" />
        </mxCell>
        <mxCell id="UmGZTvEl51ErbaLzJQul-7" style="edgeStyle=orthogonalEdgeStyle;rounded=0;orthogonalLoop=1;jettySize=auto;html=1;exitX=0.5;exitY=1;exitDx=0;exitDy=0;entryX=0.75;entryY=0;entryDx=0;entryDy=0;dashed=1;endArrow=openThin;endFill=0;" parent="1" source="UmGZTvEl51ErbaLzJQul-1" target="XVolfPyo0YX4eApnRgrG-3" edge="1">
          <mxGeometry relative="1" as="geometry">
            <Array as="points">
              <mxPoint x="320" y="420" />
              <mxPoint x="583" y="420" />
            </Array>
          </mxGeometry>
        </mxCell>
        <mxCell id="UmGZTvEl51ErbaLzJQul-8" style="edgeStyle=orthogonalEdgeStyle;rounded=0;orthogonalLoop=1;jettySize=auto;html=1;exitX=1;exitY=0.5;exitDx=0;exitDy=0;entryX=0.25;entryY=0;entryDx=0;entryDy=0;dashed=1;endArrow=openThin;endFill=0;" parent="1" source="UmGZTvEl51ErbaLzJQul-1" target="XVolfPyo0YX4eApnRgrG-32" edge="1">
          <mxGeometry relative="1" as="geometry">
            <Array as="points">
              <mxPoint x="390" y="410" />
              <mxPoint x="780" y="410" />
            </Array>
          </mxGeometry>
        </mxCell>
        <mxCell id="UmGZTvEl51ErbaLzJQul-1" value="GameController" style="fontStyle=1;" parent="1" vertex="1">
          <mxGeometry x="250" y="370" width="140" height="30" as="geometry" />
        </mxCell>
        <mxCell id="UmGZTvEl51ErbaLzJQul-4" style="edgeStyle=orthogonalEdgeStyle;rounded=0;orthogonalLoop=1;jettySize=auto;html=1;exitX=1;exitY=0.5;exitDx=0;exitDy=0;entryX=1;entryY=0.25;entryDx=0;entryDy=0;dashed=1;endArrow=openThin;endFill=0;" parent="1" source="UmGZTvEl51ErbaLzJQul-2" target="XVolfPyo0YX4eApnRgrG-40" edge="1">
          <mxGeometry relative="1" as="geometry" />
        </mxCell>
        <mxCell id="UmGZTvEl51ErbaLzJQul-2" value="NPC" style="fontStyle=1;" parent="1" vertex="1">
          <mxGeometry x="770" y="370" width="140" height="30" as="geometry" />
        </mxCell>
        <mxCell id="UmGZTvEl51ErbaLzJQul-6" style="edgeStyle=orthogonalEdgeStyle;rounded=0;orthogonalLoop=1;jettySize=auto;html=1;exitX=0;exitY=0.5;exitDx=0;exitDy=0;entryX=1;entryY=0.5;entryDx=0;entryDy=0;dashed=1;endArrow=openThin;endFill=0;" parent="1" source="UmGZTvEl51ErbaLzJQul-3" target="XVolfPyo0YX4eApnRgrG-40" edge="1">
          <mxGeometry relative="1" as="geometry" />
        </mxCell>
        <mxCell id="UmGZTvEl51ErbaLzJQul-3" value="Validator" style="fontStyle=1;" parent="1" vertex="1">
          <mxGeometry x="1029" y="370" width="140" height="30" as="geometry" />
        </mxCell>
        <mxCell id="UmGZTvEl51ErbaLzJQul-11" style="edgeStyle=orthogonalEdgeStyle;rounded=0;orthogonalLoop=1;jettySize=auto;html=1;exitX=0.5;exitY=1;exitDx=0;exitDy=0;entryX=0.25;entryY=0;entryDx=0;entryDy=0;endArrow=openThin;endFill=0;" parent="1" source="UmGZTvEl51ErbaLzJQul-9" target="XVolfPyo0YX4eApnRgrG-3" edge="1">
          <mxGeometry relative="1" as="geometry">
            <Array as="points">
              <mxPoint x="80" y="500" />
              <mxPoint x="388" y="500" />
            </Array>
          </mxGeometry>
        </mxCell>
        <mxCell id="UmGZTvEl51ErbaLzJQul-9" value="ServerHandler" style="fontStyle=1;" parent="1" vertex="1">
          <mxGeometry x="10" y="370" width="140" height="30" as="geometry" />
        </mxCell>
      </root>
    </mxGraphModel>
  </diagram>
  <diagram id="noftq3AWdJ2TzxbMB9rm" name="Feindiagramm-View">
    <mxGraphModel dx="2026" dy="2473" grid="1" gridSize="10" guides="1" tooltips="1" connect="1" arrows="1" fold="1" page="1" pageScale="1" pageWidth="1169" pageHeight="827" math="0" shadow="0">
      <root>
        <mxCell id="0" />
        <mxCell id="1" parent="0" />
        <mxCell id="NZJb6S2eH_rGU9y7LkIK-1" value="Presentation" style="shape=umlFrame;whiteSpace=wrap;html=1;width=110;height=30;" parent="1" vertex="1">
          <mxGeometry x="40" y="-1080" width="640" height="700" as="geometry" />
        </mxCell>
        <mxCell id="QatODt7mC7ED_Zb5MMqP-1" style="edgeStyle=orthogonalEdgeStyle;rounded=0;orthogonalLoop=1;jettySize=auto;html=1;exitX=0.25;exitY=0;exitDx=0;exitDy=0;entryX=0.5;entryY=1;entryDx=0;entryDy=0;entryPerimeter=0;dashed=1;endArrow=open;endFill=0;" parent="1" source="QatODt7mC7ED_Zb5MMqP-2" target="QatODt7mC7ED_Zb5MMqP-20" edge="1">
          <mxGeometry relative="1" as="geometry" />
        </mxCell>
        <mxCell id="QatODt7mC7ED_Zb5MMqP-2" value="TerminalView" style="swimlane;fontStyle=1;align=center;verticalAlign=top;childLayout=stackLayout;horizontal=1;startSize=26;horizontalStack=0;resizeParent=1;resizeLast=0;collapsible=1;marginBottom=0;rounded=0;shadow=0;strokeWidth=1;" parent="1" vertex="1">
          <mxGeometry x="115" y="-902" width="520" height="472" as="geometry">
            <mxRectangle x="340" y="380" width="170" height="26" as="alternateBounds" />
          </mxGeometry>
        </mxCell>
        <mxCell id="QatODt7mC7ED_Zb5MMqP-3" value="" style="line;html=1;strokeWidth=1;align=left;verticalAlign=middle;spacingTop=-1;spacingLeft=3;spacingRight=3;rotatable=0;labelPosition=right;points=[];portConstraint=eastwest;" parent="QatODt7mC7ED_Zb5MMqP-2" vertex="1">
          <mxGeometry y="26" width="520" height="8" as="geometry" />
        </mxCell>
        <mxCell id="QatODt7mC7ED_Zb5MMqP-4" value="+ background_colour ( colour_value : int ) : String" style="text;align=left;verticalAlign=top;spacingLeft=4;spacingRight=4;overflow=hidden;rotatable=0;points=[[0,0.5],[1,0.5]];portConstraint=eastwest;fontStyle=4" parent="QatODt7mC7ED_Zb5MMqP-2" vertex="1">
          <mxGeometry y="34" width="520" height="26" as="geometry" />
        </mxCell>
        <mxCell id="QatODt7mC7ED_Zb5MMqP-5" value="+ view_game_mode () : void" style="text;align=left;verticalAlign=top;spacingLeft=4;spacingRight=4;overflow=hidden;rotatable=0;points=[[0,0.5],[1,0.5]];portConstraint=eastwest;fontStyle=4" parent="QatODt7mC7ED_Zb5MMqP-2" vertex="1">
          <mxGeometry y="60" width="520" height="26" as="geometry" />
        </mxCell>
        <mxCell id="QatODt7mC7ED_Zb5MMqP-6" value="+ view_game_network_mode () : void" style="text;align=left;verticalAlign=top;spacingLeft=4;spacingRight=4;overflow=hidden;rotatable=0;points=[[0,0.5],[1,0.5]];portConstraint=eastwest;fontStyle=4" parent="QatODt7mC7ED_Zb5MMqP-2" vertex="1">
          <mxGeometry y="86" width="520" height="26" as="geometry" />
        </mxCell>
        <mxCell id="QatODt7mC7ED_Zb5MMqP-7" value="+ view_human_or_npc () : void" style="text;align=left;verticalAlign=top;spacingLeft=4;spacingRight=4;overflow=hidden;rotatable=0;points=[[0,0.5],[1,0.5]];portConstraint=eastwest;fontStyle=4" parent="QatODt7mC7ED_Zb5MMqP-2" vertex="1">
          <mxGeometry y="112" width="520" height="26" as="geometry" />
        </mxCell>
        <mxCell id="QatODt7mC7ED_Zb5MMqP-8" value="+ view_ip_address () : void" style="text;align=left;verticalAlign=top;spacingLeft=4;spacingRight=4;overflow=hidden;rotatable=0;points=[[0,0.5],[1,0.5]];portConstraint=eastwest;fontStyle=4" parent="QatODt7mC7ED_Zb5MMqP-2" vertex="1">
          <mxGeometry y="138" width="520" height="26" as="geometry" />
        </mxCell>
        <mxCell id="QatODt7mC7ED_Zb5MMqP-9" value="+ view_port () : void" style="text;align=left;verticalAlign=top;spacingLeft=4;spacingRight=4;overflow=hidden;rotatable=0;points=[[0,0.5],[1,0.5]];portConstraint=eastwest;fontStyle=4" parent="QatODt7mC7ED_Zb5MMqP-2" vertex="1">
          <mxGeometry y="164" width="520" height="26" as="geometry" />
        </mxCell>
        <mxCell id="QatODt7mC7ED_Zb5MMqP-10" value="+ view_code_length () : void" style="text;align=left;verticalAlign=top;spacingLeft=4;spacingRight=4;overflow=hidden;rotatable=0;points=[[0,0.5],[1,0.5]];portConstraint=eastwest;fontStyle=4" parent="QatODt7mC7ED_Zb5MMqP-2" vertex="1">
          <mxGeometry y="190" width="520" height="26" as="geometry" />
        </mxCell>
        <mxCell id="QatODt7mC7ED_Zb5MMqP-11" value="+ view_max_colour () : void" style="text;align=left;verticalAlign=top;spacingLeft=4;spacingRight=4;overflow=hidden;rotatable=0;points=[[0,0.5],[1,0.5]];portConstraint=eastwest;fontStyle=4" parent="QatODt7mC7ED_Zb5MMqP-2" vertex="1">
          <mxGeometry y="216" width="520" height="26" as="geometry" />
        </mxCell>
        <mxCell id="QatODt7mC7ED_Zb5MMqP-12" value="+ view_username () : void" style="text;align=left;verticalAlign=top;spacingLeft=4;spacingRight=4;overflow=hidden;rotatable=0;points=[[0,0.5],[1,0.5]];portConstraint=eastwest;fontStyle=4" parent="QatODt7mC7ED_Zb5MMqP-2" vertex="1">
          <mxGeometry y="242" width="520" height="26" as="geometry" />
        </mxCell>
        <mxCell id="QatODt7mC7ED_Zb5MMqP-13" value="+ view_provide_guess () : void" style="text;align=left;verticalAlign=top;spacingLeft=4;spacingRight=4;overflow=hidden;rotatable=0;points=[[0,0.5],[1,0.5]];portConstraint=eastwest;fontStyle=4" parent="QatODt7mC7ED_Zb5MMqP-2" vertex="1">
          <mxGeometry y="268" width="520" height="26" as="geometry" />
        </mxCell>
        <mxCell id="QatODt7mC7ED_Zb5MMqP-14" value="+ view_provide_code () : void" style="text;align=left;verticalAlign=top;spacingLeft=4;spacingRight=4;overflow=hidden;rotatable=0;points=[[0,0.5],[1,0.5]];portConstraint=eastwest;fontStyle=4" parent="QatODt7mC7ED_Zb5MMqP-2" vertex="1">
          <mxGeometry y="294" width="520" height="26" as="geometry" />
        </mxCell>
        <mxCell id="QatODt7mC7ED_Zb5MMqP-15" value="+ view_provide_feedback () : void" style="text;align=left;verticalAlign=top;spacingLeft=4;spacingRight=4;overflow=hidden;rotatable=0;points=[[0,0.5],[1,0.5]];portConstraint=eastwest;fontStyle=4" parent="QatODt7mC7ED_Zb5MMqP-2" vertex="1">
          <mxGeometry y="320" width="520" height="26" as="geometry" />
        </mxCell>
        <mxCell id="QatODt7mC7ED_Zb5MMqP-16" value="+ view_win () : void" style="text;align=left;verticalAlign=top;spacingLeft=4;spacingRight=4;overflow=hidden;rotatable=0;points=[[0,0.5],[1,0.5]];portConstraint=eastwest;fontStyle=4" parent="QatODt7mC7ED_Zb5MMqP-2" vertex="1">
          <mxGeometry y="346" width="520" height="26" as="geometry" />
        </mxCell>
        <mxCell id="QatODt7mC7ED_Zb5MMqP-17" value="+ view_lose () : void" style="text;align=left;verticalAlign=top;spacingLeft=4;spacingRight=4;overflow=hidden;rotatable=0;points=[[0,0.5],[1,0.5]];portConstraint=eastwest;fontStyle=4" parent="QatODt7mC7ED_Zb5MMqP-2" vertex="1">
          <mxGeometry y="372" width="520" height="26" as="geometry" />
        </mxCell>
        <mxCell id="QatODt7mC7ED_Zb5MMqP-18" value="+ view_draw () : void" style="text;align=left;verticalAlign=top;spacingLeft=4;spacingRight=4;overflow=hidden;rotatable=0;points=[[0,0.5],[1,0.5]];portConstraint=eastwest;fontStyle=4" parent="QatODt7mC7ED_Zb5MMqP-2" vertex="1">
          <mxGeometry y="398" width="520" height="26" as="geometry" />
        </mxCell>
        <mxCell id="QatODt7mC7ED_Zb5MMqP-19" value="+ print_help () : void" style="text;align=left;verticalAlign=top;spacingLeft=4;spacingRight=4;overflow=hidden;rotatable=0;points=[[0,0.5],[1,0.5]];portConstraint=eastwest;fontStyle=4" parent="QatODt7mC7ED_Zb5MMqP-2" vertex="1">
          <mxGeometry y="424" width="520" height="26" as="geometry" />
        </mxCell>
        <mxCell id="QatODt7mC7ED_Zb5MMqP-20" value="os" style="shape=folder;fontStyle=1;tabWidth=80;tabHeight=30;tabPosition=left;html=1;boundedLbl=1;" parent="1" vertex="1">
          <mxGeometry x="170" y="-1050" width="150" height="80" as="geometry" />
        </mxCell>
        <mxCell id="risNF0w7UQrgu_rGFPEX-3" style="edgeStyle=orthogonalEdgeStyle;rounded=0;orthogonalLoop=1;jettySize=auto;html=1;exitX=0.5;exitY=0;exitDx=0;exitDy=0;entryX=0.5;entryY=1;entryDx=0;entryDy=0;endArrow=openThin;endFill=0;dashed=1;" parent="1" source="risNF0w7UQrgu_rGFPEX-1" target="QatODt7mC7ED_Zb5MMqP-2" edge="1">
          <mxGeometry relative="1" as="geometry" />
        </mxCell>
        <mxCell id="risNF0w7UQrgu_rGFPEX-1" value="GameController" style="fontStyle=1;" parent="1" vertex="1">
          <mxGeometry x="305" y="-360" width="140" height="30" as="geometry" />
        </mxCell>
      </root>
    </mxGraphModel>
  </diagram>
</mxfile>
